<?xml version="1.0" encoding="utf-8"?>
<!-- Generator: Adobe Illustrator 16.0.0, SVG Export Plug-In . SVG Version: 6.00 Build 0)  -->
<!DOCTYPE svg PUBLIC "-//W3C//DTD SVG 1.1//EN" "http://www.w3.org/Graphics/SVG/1.1/DTD/svg11.dtd">
<svg version="1.1" id="Layer_1" xmlns="http://www.w3.org/2000/svg" xmlns:xlink="http://www.w3.org/1999/xlink" x="0px" y="0px"
	 width="563.125px" height="599.102px" viewBox="0 0 563.125 599.102" enable-background="new 0 0 563.125 599.102"
	 xml:space="preserve">
<g>
	<g>
		<path fill="#F2F2F2" d="M142.93,109.804l59.937-31.592h39.958l54.609,31.592c0,0,0,330.729,0,410.645
			c0,26.638-154.502,26.638-154.502,0C142.93,493.811,142.93,109.804,142.93,109.804z"/>
		<path fill="#FBFCFE" d="M276.123,73.693c0,7.356-7.951,13.319-17.759,13.319H182c-9.809,0-17.76-5.963-17.76-13.319V14.319
			C164.24,6.963,172.191,1,182,1h76.364c9.808,0,17.759,5.963,17.759,13.319V73.693z"/>
		<rect x="142.93" y="194.204" fill="#7F599F" width="154.503" height="140.121"/>
		<text transform="matrix(1 0 0 1 149.0581 284.2139)" font-family="'Sansita-Regular'" font-size="33.298">Phosphate</text>
	</g>
	<g>
		<path fill="#F2F2F2" d="M409.316,109.804l59.934-31.592h39.959l54.607,31.592c0,0,0,330.729,0,410.645
			c0,26.638-154.5,26.638-154.5,0C409.316,493.811,409.316,109.804,409.316,109.804z"/>
		<path fill="#FBFCFE" d="M542.507,73.693c0,7.356-7.953,13.319-17.76,13.319h-76.363c-9.809,0-17.76-5.963-17.76-13.319V14.319
			c0-7.356,7.951-13.319,17.76-13.319h76.363c9.807,0,17.76,5.963,17.76,13.319V73.693z"/>
		<rect x="409.316" y="194.204" fill="#E5E674" width="154.5" height="140.121"/>
		<text transform="matrix(1 0 0 1 431.9224 284.2139)" font-family="'Sansita-Regular'" font-size="39.9576">Nitrate</text>
	</g>
	<g>
		<path fill="#F2F2F2" d="M276.123,136.443l59.936-31.592h39.959l54.607,31.592c0,0,0,330.73,0,410.644
			c0,26.639-154.502,26.639-154.502,0C276.123,520.449,276.123,136.443,276.123,136.443z"/>
		<path fill="#FBFCFE" d="M409.316,100.331c0,7.356-7.953,13.319-17.762,13.319h-76.363c-9.809,0-17.76-5.963-17.76-13.319V40.958
			c0-7.356,7.951-13.32,17.76-13.32h76.363c9.809,0,17.762,5.963,17.762,13.32V100.331z"/>
		<rect x="276.123" y="220.843" fill="#DC496A" width="154.502" height="140.12"/>
		<text transform="matrix(1 0 0 1 292.106 310.8535)" font-family="'Sansita-Regular'" font-size="75.9195">PH+</text>
	</g>
	<g>
		<path fill="#F2F2F2" d="M184.513,539.775c0,11.032-8.946,19.979-19.979,19.979H20.667c-11.034,0-19.978-8.943-19.978-19.979
			V313.934c0-11.033,8.944-19.979,19.978-19.979h143.867c11.033,0,19.979,8.945,19.979,19.979V539.775L184.513,539.775z"/>
		<ellipse fill="#FBFCFE" cx="92.781" cy="163.426" rx="26.095" ry="6.66"/>
		<rect x="66.686" y="158.765" fill="#FBFCFE" width="52.19" height="55.274"/>
		<path fill="#FBFCFE" d="M145.936,290.626c0,5.516-4.473,9.988-9.99,9.988H49.617c-5.517,0-9.989-4.473-9.989-9.988v-86.577
			c0-5.517,4.473-9.989,9.989-9.989h86.328c5.518,0,9.99,4.473,9.99,9.989L145.936,290.626L145.936,290.626z"/>
		<polygon fill="#981922" points="26.309,247.337 51.616,265.983 51.616,283.459 19.65,271.311 		"/>
		<path fill="#981922" d="M145.936,265.398c0,0-30.388,24.56-94.32,8.577c0,3.996,0,9.484,0,9.484s52.783,18.045,94.32-10.814
			C145.936,269.092,145.936,265.398,145.936,265.398z"/>
		<rect x="0.689" y="375.868" fill="#8BB8DD" width="183.824" height="82.577"/>
		<text transform="matrix(1 0 0 1 42.6421 441.2402)" font-family="'Sansita-Regular'" font-size="67.8797">test</text>
	</g>
	<g>
		<polygon fill="#FFFFFF" points="195.467,536.075 181.765,563.914 151.057,559.487 145.777,528.912 173.224,514.444 		"/>
		<polygon fill="#FFFFFF" points="183.395,516.394 166.229,530.479 144.513,525.838 134.602,505.968 143.957,485.83 
			165.534,480.589 183.086,494.189 		"/>
		<polygon fill="#FFFFFF" points="209.808,499.543 187.54,512.816 164.912,500.167 164.551,474.247 186.819,460.976 
			209.447,473.624 		"/>
		<polygon fill="#FFFFFF" points="206.812,527.837 192.494,542.561 171.958,542.847 157.234,528.526 156.948,507.992 
			171.268,493.269 191.804,492.984 206.526,507.302 		"/>
		<polygon fill="#EFEFEF" points="196.939,529.102 186.942,499.73 211.787,481.146 237.139,499.031 227.963,528.672 		"/>
		<polygon fill="#FFFFFF" points="219.393,534.484 221.572,512.388 240.207,500.312 261.266,507.354 268.891,528.21 
			257.339,547.173 235.312,549.967 		"/>
		<polygon fill="#FFFFFF" points="212.63,565.075 218.992,539.944 243.935,532.888 262.518,550.962 256.157,576.092 
			231.213,583.148 		"/>
		<polygon fill="#FFFFFF" points="194.742,542.951 194.455,522.414 208.775,507.691 229.311,507.406 244.034,521.725 
			244.319,542.261 230.001,556.984 209.465,557.269 		"/>
		<polygon fill="#F7F7F7" points="252.437,522.218 266.136,494.381 296.845,498.807 302.125,529.381 274.677,543.851 		"/>
		<polygon fill="#F7F7F7" points="264.505,541.902 281.673,527.815 303.388,532.456 313.3,552.326 303.945,572.465 282.369,577.707 
			264.815,564.104 		"/>
		<polygon fill="#FFFFFF" points="238.095,558.751 260.363,545.479 282.992,558.127 283.351,584.046 261.084,597.319 
			238.456,584.67 		"/>
		<polygon fill="#FFFFFF" points="241.089,530.456 255.409,515.733 275.945,515.448 290.667,529.768 290.953,550.302 
			276.634,565.025 256.098,565.312 241.376,550.991 		"/>
		<polygon fill="#FFFFFF" points="265.076,519.498 275.072,548.868 250.227,567.453 224.875,549.567 234.051,519.929 		"/>
		<polygon fill="#FFFFFF" points="242.621,514.115 240.442,536.213 221.807,548.288 200.748,541.246 193.123,520.391 
			204.675,501.427 226.703,498.633 		"/>
		<polygon fill="#F4F4F4" points="249.384,483.523 243.023,508.654 218.078,515.712 199.496,497.638 205.857,472.508 230.8,465.45 
					"/>
		<polygon fill="#FFFFFF" points="267.273,505.649 267.558,526.185 253.239,540.908 232.704,541.194 217.98,526.875 217.694,506.34 
			232.013,491.616 252.55,491.331 		"/>
		<polygon fill="#F7F7F7" points="232.383,505.188 224.098,480.85 244.687,465.449 265.695,480.271 258.09,504.832 		"/>
		<polygon fill="#FFFFFF" points="250.989,509.649 252.795,491.338 268.238,481.334 285.689,487.167 292.007,504.449 
			282.435,520.165 264.18,522.48 		"/>
		<polygon fill="#EFEFEF" points="255.145,553.86 260.417,533.035 281.085,527.188 296.486,542.164 291.216,562.988 
			270.544,568.837 		"/>
		<polygon fill="#EFEFEF" points="230.561,516.664 230.324,499.648 242.191,487.448 259.208,487.21 271.41,499.076 271.646,516.093 
			259.778,528.295 242.762,528.531 		"/>
		<polygon fill="#FFFFFF" points="247.955,515.049 271.022,526.403 267.355,551.85 242.019,556.225 230.029,533.481 		"/>
		<polygon fill="#FFFFFF" points="221.883,506.192 233.555,520.418 229.711,538.412 213.244,546.627 196.556,538.874 
			192.212,520.994 203.484,506.448 		"/>
		<polygon fill="#F7F7F7" points="193.809,493.999 204.807,512.453 194.326,531.204 172.846,531.502 161.848,513.048 
			172.33,494.298 		"/>
		<polygon fill="#FFFFFF" points="241.128,505.647 253.329,517.513 253.565,534.53 241.699,546.731 224.681,546.968 
			212.481,535.104 212.244,518.085 224.11,505.883 		"/>
		<polygon fill="#FFFFFF" points="208.408,542.26 216.693,566.599 196.105,581.999 175.096,567.178 182.7,542.615 		"/>
		<polygon fill="#FFFFFF" points="197.585,542.958 195.779,561.27 180.336,571.275 162.885,565.441 156.566,548.159 
			166.139,532.443 184.393,530.129 		"/>
		<polygon fill="#EFEFEF" points="182.593,512.627 177.323,533.452 156.653,539.299 141.253,524.322 146.524,503.497 
			167.195,497.649 		"/>
		<polygon fill="#EFEFEF" points="197.418,530.96 197.655,547.979 185.789,560.179 168.772,560.416 156.571,548.551 
			156.334,531.533 168.201,519.33 185.217,519.095 		"/>
		<polygon fill="#FFFFFF" points="221.35,599.102 198.28,587.748 201.949,562.301 227.285,557.925 239.275,580.669 		"/>
		<polygon fill="#EFEFEF" points="220.539,555.479 208.867,541.255 212.711,523.26 229.176,515.046 245.865,522.798 
			250.209,540.679 238.937,555.224 		"/>
		<polygon fill="#F7F7F7" points="234.501,577.367 223.503,558.914 233.983,540.163 255.462,539.864 266.46,558.316 255.98,577.068 
					"/>
		<polygon fill="#EFEFEF" points="211.054,574.885 198.853,563.019 198.617,546.002 210.483,533.802 227.5,533.564 239.701,545.43 
			239.937,562.446 228.072,574.649 		"/>
	</g>
</g>
</svg>
