<?xml version="1.0" encoding="utf-8"?>
<!-- Generator: Adobe Illustrator 16.0.0, SVG Export Plug-In . SVG Version: 6.00 Build 0)  -->
<!DOCTYPE svg PUBLIC "-//W3C//DTD SVG 1.1//EN" "http://www.w3.org/Graphics/SVG/1.1/DTD/svg11.dtd">
<svg version="1.1" id="Layer_1" xmlns="http://www.w3.org/2000/svg" xmlns:xlink="http://www.w3.org/1999/xlink" x="0px" y="0px"
	 width="600px" height="395.225px" viewBox="0 0 600 395.225" enable-background="new 0 0 600 395.225" xml:space="preserve">
<g>
	<path fill="#171919" d="M310.679,226.767c0,0-96.684,38.932-147.157,38.932s-32.68,82.82-32.68,90.604
		c0,7.785-75.62-23.352-75.62-23.352l-5.56-95.01l67.835-42.733l89.355-26.477L310.679,226.767z"/>
	<path fill="#232626" d="M117.498,163.971c0,0-75.62,38.903-78.956,62.796c-3.336,23.895,0,106.185,0,106.185h23.353
		c0,0,0-51.152,0-78.955c0-27.802,151.062-65.851,151.062-65.851L117.498,163.971z"/>
	<path fill="#47494A" d="M71.903,265.277c8.896-7.942,51.578,10.963,50.255,20.972c-1.325,10.009,4.701,57.821,0.02,57.821
		c-4.681,0-50.275-10.008-50.275-17.789C71.903,318.497,63.007,273.219,71.903,265.277z"/>
	<polygon fill="#4E5554" points="63.007,314.047 180.17,350.744 180.17,389.666 63.007,395.225 	"/>
	<polygon fill="#1D1E1E" points="15.188,332.951 63.007,314.047 63.007,395.225 15.188,388.553 	"/>
	<path fill="#303435" d="M197.661,5.442c0,0,376.897,136.923,398.583,170.282c21.686,33.36-90.07,108.419-160.128,95.077
		C366.062,257.456,13.869,149.028,7.44,125.684C1.011,102.339,197.661,5.442,197.661,5.442z"/>
	<path fill="#232626" d="M54.145,38.948C114.651,0.291,199.26-11.093,207.6,15.596c8.341,26.688-101.748,33.36-130.104,68.388
		c-28.356,35.028-58.381,63.386-70.056,41.7C-4.235,104-5.904,77.311,54.145,38.948z"/>
	<path fill="#47494A" d="M218.443,57.163c15.821-2.225,333.87,129.34,342.764,145.294c8.896,15.956-103.604,65.998-119.637,62.661
		C425.537,261.782,87.472,148.74,84.135,135.757C80.8,122.775,202.623,59.387,218.443,57.163z"/>
	<path fill="#5C86BF" d="M226.336,90.151c-2.194,5.117-10.493,6.474-18.536,3.025c-8.045-3.446-12.789-10.391-10.596-15.51
		c2.193-5.117,10.492-6.473,18.536-3.023C223.785,78.088,228.528,85.032,226.336,90.151z"/>
	
		<ellipse transform="matrix(-0.9192 -0.3939 0.3939 -0.9192 445.6628 295.5203)" fill="#FFFFFF" cx="253.156" cy="102.03" rx="15.849" ry="10.083"/>
	
		<ellipse transform="matrix(-0.9192 -0.3939 0.3939 -0.9192 522.6772 342.4294)" fill="#5C86BF" cx="296.479" cy="117.578" rx="15.846" ry="10.082"/>
	
		<ellipse transform="matrix(-0.9192 -0.3939 0.3939 -0.9192 591.9161 388.0018)" fill="#FFFFFF" cx="335.775" cy="133.258" rx="15.849" ry="10.083"/>
	
		<ellipse transform="matrix(-0.9191 -0.3939 0.3939 -0.9191 662.4592 433.7283)" fill="#5C86BF" cx="375.743" cy="148.877" rx="15.845" ry="10.081"/>
	<path fill="#FFFFFF" d="M430.98,170.211c-2.195,5.12-10.493,6.472-18.537,3.025c-8.045-3.446-12.788-10.391-10.6-15.508
		c2.194-5.12,10.493-6.472,18.539-3.024C428.428,158.15,433.171,165.094,430.98,170.211z"/>
	
		<ellipse transform="matrix(-0.9191 -0.3939 0.3939 -0.9191 792.6855 522.5188)" fill="#5C86BF" cx="449.968" cy="179.907" rx="15.845" ry="10.083"/>
	
		<ellipse transform="matrix(-0.9192 -0.3938 0.3938 -0.9192 847.1768 573.6165)" fill="#FFFFFF" cx="482.44" cy="199.889" rx="15.847" ry="10.082"/>
	
		<ellipse transform="matrix(-0.9192 -0.3938 0.3938 -0.9192 287.4112 271.8826)" fill="#5C86BF" cx="171.6" cy="106.454" rx="15.847" ry="10.082"/>
	
		<ellipse transform="matrix(-0.9192 -0.3938 0.3938 -0.9192 359.6695 322.9587)" fill="#FFFFFF" cx="212.97" cy="124.578" rx="15.847" ry="10.081"/>
	
		<ellipse transform="matrix(-0.9192 -0.3938 0.3938 -0.9192 436.7012 369.8323)" fill="#5C86BF" cx="256.294" cy="140.112" rx="15.847" ry="10.081"/>
	
		<ellipse transform="matrix(-0.9192 -0.3938 0.3938 -0.9192 505.9569 415.4068)" fill="#FFFFFF" cx="295.597" cy="155.795" rx="15.847" ry="10.081"/>
	
		<ellipse transform="matrix(-0.9192 -0.3939 0.3939 -0.9192 576.5855 461.2027)" fill="#5C86BF" cx="335.62" cy="171.434" rx="15.847" ry="10.082"/>
	
		<ellipse transform="matrix(-0.9192 -0.3938 0.3938 -0.9192 648.6699 506.111)" fill="#FFFFFF" cx="376.257" cy="186.509" rx="15.846" ry="10.081"/>
	
		<ellipse transform="matrix(-0.9192 -0.3938 0.3938 -0.9192 706.833 549.9576)" fill="#5C86BF" cx="409.842" cy="202.458" rx="15.848" ry="10.08"/>
	
		<ellipse transform="matrix(-0.9192 -0.3939 0.3939 -0.9192 772.2679 592.433)" fill="#FFFFFF" cx="446.93" cy="216.966" rx="15.848" ry="10.083"/>
	
		<ellipse transform="matrix(-0.9192 -0.3939 0.3939 -0.9192 213.6754 296.5085)" fill="#5C86BF" cx="137.265" cy="126.327" rx="15.849" ry="10.082"/>
	
		<ellipse transform="matrix(-0.9192 -0.3939 0.3939 -0.9192 285.9244 347.58)" fill="#FFFFFF" cx="178.631" cy="144.448" rx="15.849" ry="10.081"/>
	
		<ellipse transform="matrix(-0.9192 -0.3938 0.3938 -0.9192 362.9925 394.4363)" fill="#5C86BF" cx="221.964" cy="159.976" rx="15.847" ry="10.081"/>
	<path fill="#FFFFFF" d="M275.812,181.903c-2.194,5.117-10.493,6.473-18.536,3.025c-8.045-3.447-12.789-10.391-10.596-15.51
		c2.193-5.117,10.493-6.473,18.537-3.023C273.261,169.839,278.004,176.783,275.812,181.903z"/>
	
		<ellipse transform="matrix(-0.9192 -0.3939 0.3939 -0.9192 502.8518 485.8039)" fill="#5C86BF" cx="301.279" cy="191.299" rx="15.848" ry="10.081"/>
	
		<ellipse transform="matrix(-0.9192 -0.3938 0.3938 -0.9192 574.9512 530.7314)" fill="#FFFFFF" cx="341.928" cy="206.377" rx="15.847" ry="10.081"/>
	
		<ellipse transform="matrix(-0.9192 -0.3938 0.3938 -0.9192 633.1332 574.5334)" fill="#5C86BF" cx="375.513" cy="222.308" rx="15.847" ry="10.081"/>
	
		<ellipse transform="matrix(-0.9192 -0.3939 0.3939 -0.9192 698.0828 619.197)" fill="#FFFFFF" cx="412.583" cy="237.962" rx="15.846" ry="10.082"/>
</g>
</svg>
