<?xml version="1.0" encoding="utf-8"?>
<!-- Generator: Adobe Illustrator 16.0.0, SVG Export Plug-In . SVG Version: 6.00 Build 0)  -->
<!DOCTYPE svg PUBLIC "-//W3C//DTD SVG 1.1//EN" "http://www.w3.org/Graphics/SVG/1.1/DTD/svg11.dtd">
<svg version="1.1" id="Layer_1" xmlns="http://www.w3.org/2000/svg" xmlns:xlink="http://www.w3.org/1999/xlink" x="0px" y="0px"
	 width="310.48px" height="598.34px" viewBox="0 0 310.48 598.34" enable-background="new 0 0 310.48 598.34" xml:space="preserve">
<g>
	<polygon fill="#383838" points="227.879,411.819 227.879,468.358 101.524,534.334 97.1,447.217 	"/>
	<path fill="#606766" d="M0,440.362v116.002c0,0,36.135,45.23,71.533,41.791c35.398-3.441,100.296-46.215,100.296-46.215V430.993
		L0,440.362z"/>
	<polygon fill="#494949" points="171.83,422.145 171.83,497.624 101.524,534.334 97.1,447.217 	"/>
	<polygon fill="#606161" points="101.524,534.334 54.487,514.668 54.487,437.391 101.524,434.827 	"/>
	<ellipse fill="#252828" cx="272.787" cy="298.414" rx="37.693" ry="49.985"/>
	<path fill="#222322" d="M274.08,359.704c2.312-2.129,0-201.851,0-201.851l-52.428,3.388l6.557,219.276
		C228.209,380.518,271.768,361.831,274.08,359.704z"/>
	<path fill="#454545" d="M232.795,134.965c11.803-2.404,35.398,10.87,40.809,21.195c5.408,10.325-36.873,24.583-36.873,24.583
		l-40.316-25.074C196.412,155.668,220.996,137.366,232.795,134.965z"/>
	<path fill="#303030" d="M250.082,402.915c0-8.111,0-275.815,0-275.815L0,161.76v278.604c0,0,47.604,38.35,98.409,34.088
		C149.215,470.188,250.082,411.026,250.082,402.915z"/>
	<path fill="#606766" d="M250.082,170.172c0-8.11,0-138.154,0-138.154L0,47.013v146.842c0,0,47.604,32.449,98.409,28.188
		C149.215,217.781,250.082,178.284,250.082,170.172z"/>
	<path fill="#383838" d="M108.244,147.345c58.309-13.238,119.96,0.657,138.972,19.666c19.014,19.009-60.156,39.374-127.829,53.755
		c-52.443,11.143-87.188-0.657-108.164-14.423C-9.752,192.577-13.029,174.877,108.244,147.345z"/>
	<path fill="#5B5C5C" d="M247.217,167.011c2.93,2.927,3.521,5.888,2.191,8.854c0.227-0.096,0.451-0.192,0.68-0.288l-0.008-37.427
		c-6.371-2.692-12.715-4.117-17.285-3.184c-6.691,1.362-17.496,7.84-25.594,13.19C225.348,152.712,239.66,159.453,247.217,167.011z"
		/>
	<path fill="#47494A" d="M88.741,88.312c0,0-12.783,8.85-12.783,91.447c39.566,39.566,95.379-2.458,95.379-2.458
		c0-36.382-4.727-81.898-13.426-107.322C149.215,44.555,88.741,88.312,88.741,88.312z"/>
	<path fill="#383838" d="M250.082,56.6c0-8.11,0-26.057,0-26.057L0,45.538v20.979c0,0,27.938,38.349,78.743,34.087
		C129.549,96.343,250.082,64.712,250.082,56.6z"/>
	<path fill="#303030" d="M108.244,5.223c58.309-13.236,119.96,0.657,138.972,19.666C266.229,43.9,187.06,64.264,119.387,78.644
		C66.943,89.789,32.198,72.087,11.223,58.321C-9.752,44.555-13.029,32.755,108.244,5.223z"/>
</g>
</svg>
