<?xml version="1.0" encoding="utf-8"?>
<!-- Generator: Adobe Illustrator 16.0.0, SVG Export Plug-In . SVG Version: 6.00 Build 0)  -->
<!DOCTYPE svg PUBLIC "-//W3C//DTD SVG 1.1//EN" "http://www.w3.org/Graphics/SVG/1.1/DTD/svg11.dtd">
<svg version="1.1" id="Layer_1" xmlns="http://www.w3.org/2000/svg" xmlns:xlink="http://www.w3.org/1999/xlink" x="0px" y="0px"
	 width="300px" height="300px" viewBox="0 0 300 300" enable-background="new 0 0 300 300" xml:space="preserve">
<circle cx="150.001" cy="46.579" r="40.912"/>
<path d="M206.06,116.113c34.03,34.277,22.611,128.541,19.702,137.722c-2.907,9.181-11.588,4.897-14.319,0
	c-2.73-4.897-5.462-115.074-20.49-115.074c-6.628,0,4.058,153.636,4.058,153.636H150h-45.009c0,0,10.686-153.636,4.056-153.636
	c-15.026,0-17.758,110.177-20.489,115.074c-2.731,4.897-11.412,9.181-14.32,0c-2.908-9.181-14.328-103.444,19.702-137.722
	c0,0,20.854-22.697,56.06-22.697C185.204,93.417,206.06,116.113,206.06,116.113z"/>
</svg>
