<?xml version="1.0" encoding="utf-8"?>
<!-- Generator: Adobe Illustrator 16.0.0, SVG Export Plug-In . SVG Version: 6.00 Build 0)  -->
<!DOCTYPE svg PUBLIC "-//W3C//DTD SVG 1.1//EN" "http://www.w3.org/Graphics/SVG/1.1/DTD/svg11.dtd">
<svg version="1.1" id="Layer_1" xmlns="http://www.w3.org/2000/svg" xmlns:xlink="http://www.w3.org/1999/xlink" x="0px" y="0px"
	 width="300px" height="300px" viewBox="0 0 300 300" enable-background="new 0 0 300 300" xml:space="preserve">
<path fill="#E8C266" d="M185.373,101.895c42.46-20.061,71.076-19.639,51.127,31.939C216.551,185.412,127.575,246.205,83.167,256.5
	s-78.881-27.709-44.763-60.361C72.523,163.485,142.913,121.956,185.373,101.895z"/>
<text transform="matrix(1 0 0 1 62.2905 52.2734)" fill="#3F403F" font-family="'Roboto-Regular'" font-size="47.6534">Hot Dog</text>
<path fill="#96604B" d="M68.291,180.16c0,0,49.072-37.774,128.239-74.988c72.85-34.244,77.389,22.454,10.694,49.992
	c-66.695,27.54-111.715,72.001-150.606,84.513C41.353,244.588,16.995,218.766,68.291,180.16z"/>
<path fill="#E8C266" d="M209.271,121.54c41.367-21.841,74.512-30.618,54.562,20.96S133.835,249.91,89.427,260.205
	s-61.243-11.769-27.125-44.421C96.421,183.131,167.903,143.381,209.271,121.54z"/>
</svg>
