<?xml version="1.0" encoding="utf-8"?>
<!-- Generator: Adobe Illustrator 16.0.0, SVG Export Plug-In . SVG Version: 6.00 Build 0)  -->
<!DOCTYPE svg PUBLIC "-//W3C//DTD SVG 1.1//EN" "http://www.w3.org/Graphics/SVG/1.1/DTD/svg11.dtd">
<svg version="1.1" id="Layer_1" xmlns="http://www.w3.org/2000/svg" xmlns:xlink="http://www.w3.org/1999/xlink" x="0px" y="0px"
	 width="300px" height="300px" viewBox="0 0 300 300" enable-background="new 0 0 300 300" xml:space="preserve">
<polygon fill="#E8D970" points="37.719,109.142 86.855,156.766 69.822,171.805 31.167,116.661 "/>
<polygon fill="#D6C669" points="57.331,97.869 86.855,166.985 66.485,171.805 48.938,101.305 "/>
<polygon fill="#D6C669" points="115.484,98.931 138.956,171.723 118.296,173.695 106.849,101.187 "/>
<polygon fill="#E8D970" points="136.872,101.869 134.899,180.536 115.419,171.542 128.27,99.415 "/>
<polygon fill="#E8D970" points="67.636,109.141 111.652,164.313 93.262,176.482 60.391,115.542 "/>
<polygon fill="#D6C669" points="87.046,106.06 118.367,173.878 98.134,179.563 78.749,109.852 "/>
<polygon fill="#E8D970" points="102.296,103.978 124.63,177.352 103.942,178.8 93.628,106.014 "/>
<polygon fill="#E8D970" points="169.615,101.776 168.524,180.471 148.946,171.833 160.986,99.479 "/>
<polygon fill="#D6C669" points="151.854,101.003 145.968,179.353 126.975,168.798 143.393,97.857 "/>
<polygon fill="#D6C669" points="184.188,102.692 192.281,180.72 171.912,175.888 175.388,102.057 "/>
<polygon fill="#E8D970" points="203.149,102.92 190.761,180.025 172.754,166.953 194.996,98.645 "/>
<polygon fill="#D6C669" points="222.677,101.718 210.289,178.824 192.281,165.752 214.524,97.442 "/>
<polygon fill="#D6C669" points="235.478,97.615 244.731,175.433 224.293,171.095 226.667,97.193 "/>
<polygon fill="#E8D970" points="258.816,106.744 236.008,179.88 220.08,162.979 251.378,100.71 "/>
<polygon fill="#E8D970" points="218.166,99.868 232.581,176.398 211.925,174.296 209.359,100.404 "/>
<text transform="matrix(1 0 0 1 67.0371 52.2734)" fill="#3F403F" font-family="'Roboto-Regular'" font-size="47.6534">Poutine</text>
<g>
	<path fill="#D35050" d="M158.768,138.667c-4.95,0-13.05,0-18,0H50.035c-4.95,0-7.848,3.882-6.439,8.628l21.545,72.577
		c1.409,4.745,6.611,8.628,11.561,8.628h64.065c4.95,0,13.05,0,18,0h64.065c4.95,0,10.152-3.883,11.562-8.628l21.544-72.577
		c1.409-4.746-1.488-8.628-6.438-8.628H158.768z"/>
</g>
<path fill="#8E6244" d="M68.167,134c5.102-3.396,12.362-5.954,27.892-2.133s52.442,0,68.442,0s52.086-1.035,61.187,0.984
	s23.146-0.817,24.132,14.184c1.009,15.354-9.645,29.086-22.365,16.021s-1.548-23.91-15.542-22.342
	c-36.744,4.119-40.945-0.604-51.212,0.182c-10.267,0.785-19.9,3.138-18.05,12.805s-2.189,21.001-13.502,13.334
	s-15.53-25.398-33.089-25.398s-29.101-3.715-32.558,3.53c-3.5,7.334-9.568-2.021-9.552-6.226C53.948,137.899,59.5,139.77,68.167,134
	z"/>
<path fill="#E2D9B3" d="M210.697,128.373c2.406-0.943,5.462,2.707,8.21,1.219c2.749-1.489,9.351,1.629,7.351,4.211
	c-1.288,1.663-3.832,3.397-6.335,3.601c-2.504,0.204-2.795-1.117-4.222-1.055c-2.979,0.13-5.799,1.264-7.013-0.179
	C205.812,132.749,206.64,129.963,210.697,128.373z"/>
<path fill="#E2D9B3" d="M104.368,139.581c-2.871,0.782-5.917-3.775-9.246-2.411c-3.33,1.364-10.5-3.021-7.891-5.729
	c1.68-1.745,4.805-3.414,7.695-3.338c2.891,0.076,3.061,1.625,4.701,1.73c3.426,0.22,6.794-0.729,8.004,1.073
	C110.499,135.177,109.208,138.263,104.368,139.581z"/>
<path fill="#E2D9B3" d="M135.952,138.198c-1.442,0.936-2.673-3.425-4.372-1.884c-1.698,1.54-4.949-2.422-3.527-5.258
	c0.915-1.827,2.531-3.659,3.935-3.744c1.404-0.084,1.401,1.446,2.195,1.46c1.658,0.027,3.351-1.102,3.84,0.622
	C139.184,133.48,138.383,136.619,135.952,138.198z"/>
<path fill="#E2D9B3" d="M179.62,138.131c-1.328-1.09,2.456-3.584,0.474-4.736s0.81-5.45,3.942-4.953
	c2.019,0.319,4.254,1.305,4.76,2.617s-0.954,1.772-0.727,2.534c0.475,1.588,2.063,2.86,0.569,3.848
	C185.095,139.785,181.861,139.971,179.62,138.131z"/>
<path fill="#E2D9B3" d="M157.488,135.775c-1.664,0.425-2.033-0.614-4.135,0.302c-2.103,0.915-3.914-3.878-1.659-6.109
	c1.452-1.438,1.229,0.531,2.586,0.899c1.356,0.37,3.204-1.369,3.953-1.103c1.562,0.558,3.526,0.029,3.438,1.819
	C161.464,135.828,160.297,135.058,157.488,135.775z"/>
</svg>
