<?xml version="1.0" encoding="utf-8"?>
<!-- Generator: Adobe Illustrator 16.0.0, SVG Export Plug-In . SVG Version: 6.00 Build 0)  -->
<!DOCTYPE svg PUBLIC "-//W3C//DTD SVG 1.1//EN" "http://www.w3.org/Graphics/SVG/1.1/DTD/svg11.dtd">
<svg version="1.1" id="Layer_1" xmlns="http://www.w3.org/2000/svg" xmlns:xlink="http://www.w3.org/1999/xlink" x="0px" y="0px"
	 width="300px" height="300px" viewBox="0 0 300 300" enable-background="new 0 0 300 300" xml:space="preserve">
<path fill="#E8C266" d="M149.768,137.74c0,0-73.822,0-118.164,0c0,0,31.039-70.946,118.164-70.946
	c87.125,0,118.164,70.946,118.164,70.946C223.591,137.74,149.768,137.74,149.768,137.74z"/>
<path fill="#513E2A" d="M272.857,169.727c0,5.605-4.543,10.148-10.148,10.148H36.827c-5.605,0-10.15-4.543-10.15-10.148v-15.176
	c0-5.604,4.544-10.148,10.15-10.148h225.882c5.605,0,10.148,4.545,10.148,10.148V169.727L272.857,169.727z"/>
<path fill="#E8C266" d="M272.857,211.689c0,5.604-4.543,10.147-10.148,10.147H36.827c-5.605,0-10.15-4.545-10.15-10.147v-15.174
	c0-5.606,4.544-10.149,10.15-10.149h225.882c5.605,0,10.148,4.543,10.148,10.149V211.689L272.857,211.689z"/>
<ellipse fill="#FFFFFF" cx="118.227" cy="79.111" rx="3.202" ry="1.232"/>
<ellipse fill="#FFFFFF" cx="86.694" cy="88.265" rx="3.202" ry="1.231"/>
<ellipse fill="#FFFFFF" cx="129.976" cy="72.537" rx="3.203" ry="1.231"/>
<ellipse fill="#FFFFFF" cx="154.322" cy="73.768" rx="3.201" ry="1.231"/>
<ellipse fill="#FFFFFF" cx="177.496" cy="73.768" rx="3.202" ry="1.231"/>
<ellipse fill="#FFFFFF" cx="164.206" cy="76.231" rx="3.201" ry="1.231"/>
<ellipse fill="#FFFFFF" cx="186.475" cy="77.463" rx="3.2" ry="1.231"/>
<ellipse fill="#FFFFFF" cx="142.184" cy="73.768" rx="3.202" ry="1.231"/>
<text transform="matrix(1 0 0 1 29.2847 52.2734)" fill="#3F403F" font-family="'Roboto-Regular'" font-size="47.6534">Hamburger</text>
</svg>
