<?xml version="1.0" encoding="utf-8"?>
<!-- Generator: Adobe Illustrator 16.0.0, SVG Export Plug-In . SVG Version: 6.00 Build 0)  -->
<!DOCTYPE svg PUBLIC "-//W3C//DTD SVG 1.1//EN" "http://www.w3.org/Graphics/SVG/1.1/DTD/svg11.dtd">
<svg version="1.1" id="Layer_1" xmlns="http://www.w3.org/2000/svg" xmlns:xlink="http://www.w3.org/1999/xlink" x="0px" y="0px"
	 width="200px" height="200px" viewBox="50 93.416 200 200" enable-background="new 50 93.416 200 200" xml:space="preserve">
<path d="M220.282,115.694c42.662,34.452,28.346,129.195,24.699,138.422c-3.644,9.227-14.527,4.922-17.95,0
	c-3.424-4.923-6.85-115.659-25.688-115.659c-8.31,0,5.086,154.416,5.086,154.416H150H93.573c0,0,13.397-154.416,5.084-154.416
	c-18.838,0-22.262,110.736-25.687,115.659c-3.424,4.922-14.306,9.227-17.954,0c-3.645-9.228-17.962-103.97,24.701-138.422
	c0,0,26.144-22.812,70.281-22.812C194.135,92.883,220.282,115.694,220.282,115.694z"/>
</svg>
