<?xml version="1.0" encoding="utf-8"?>
<!-- Generator: Adobe Illustrator 16.0.0, SVG Export Plug-In . SVG Version: 6.00 Build 0)  -->
<!DOCTYPE svg PUBLIC "-//W3C//DTD SVG 1.1//EN" "http://www.w3.org/Graphics/SVG/1.1/DTD/svg11.dtd">
<svg version="1.1" id="Layer_1" xmlns="http://www.w3.org/2000/svg" xmlns:xlink="http://www.w3.org/1999/xlink" x="0px" y="0px"
	 width="300px" height="300px" viewBox="0 0 300 300" enable-background="new 0 0 300 300" xml:space="preserve">
<text transform="matrix(1 0 0 1 65.4893 52.2734)" fill="#3F403F" font-family="'Roboto-Regular'" font-size="47.6534">Chicken</text>
<path fill="#C2AF98" d="M149.291,148.283l-97.667,69.68c0,0-5.979-20.367-22.922-6.432c-16.941,13.937-20.179,45.023,12.956,35.376
	c-12.956,17.151,13.953,33.231,33.884,18.226c19.932-15.009-5.979-31.089-5.979-31.089l128.559-85.761H149.291z"/>
<path fill="#8E542C" d="M85.56,174.845c29.799-88.148,133.47-143.313,187.985-71.657c54.516,71.657-88.353,112.604-137.229,114.65
	c-22.558-2.046-24.438-16.378-24.438-16.378s6.579-9.213-11.278-10.237C80.293,190.06,79.923,191.52,85.56,174.845z"/>
</svg>
