<?xml version="1.0" encoding="utf-8"?>
<!-- Generator: Adobe Illustrator 16.0.0, SVG Export Plug-In . SVG Version: 6.00 Build 0)  -->
<!DOCTYPE svg PUBLIC "-//W3C//DTD SVG 1.1//EN" "http://www.w3.org/Graphics/SVG/1.1/DTD/svg11.dtd">
<svg version="1.1" id="Layer_1" xmlns="http://www.w3.org/2000/svg" xmlns:xlink="http://www.w3.org/1999/xlink" x="0px" y="0px"
	 width="300px" height="300px" viewBox="0 0 300 300" enable-background="new 0 0 300 300" xml:space="preserve">
<ellipse fill="#DDD799" cx="149.5" cy="153.252" rx="133.214" ry="66.248"/>
<ellipse fill="#E5E2CC" cx="149.5" cy="153.252" rx="80.044" ry="39.808"/>
<polygon fill="#5EA051" points="115.028,102.676 157.484,91.66 169.17,95.918 182.997,95.918 183.973,102.676 195.658,105.18 
	211.236,110.184 213.771,122.955 222.729,129.713 215.716,159.151 152.421,163.513 "/>
<polygon fill="#76B769" points="212.666,128.799 228.568,125.458 238.699,131.718 247.074,151.875 249.801,172.777 239.088,182.541 
	219.419,182.541 206.37,182.541 200.525,163.764 200.525,142.984 "/>
<polygon fill="#67BD58" points="138.398,123.455 177.154,116.946 187.867,113.441 205.591,116.946 212.665,128.797 221.561,141.731 
	228.568,151.875 228.568,169.522 210.264,176.785 177.545,176.785 158.458,186.049 140.542,186.049 133.726,182.541 
	124.377,169.522 124.377,140.981 132.556,134.973 "/>
<polygon fill="#67BD58" points="66.631,104.179 82.504,92.161 103.538,84.9 122.427,88.371 130.415,108.433 139.764,113.441 
	140.542,127.534 136.452,144.485 119.508,155.002 96.332,151.875 59.523,134.318 "/>
<polygon fill="#64AA54" points="73.74,108.685 93.995,98.669 109.576,109.937 137.816,104.303 160.796,107.933 161.576,120.954 
	175.014,150.495 170.534,167.522 157.484,170.525 119.508,176.785 98.475,170.525 89.516,170.525 85.328,162.264 "/>
<text transform="matrix(1 0 0 1 30.459 52.2734)" fill="#3F403F" font-family="'Roboto-Regular'" font-size="47.6534">Tuna Salad</text>
<polygon fill="#6CAF63" points="83.868,121.702 107.434,116.946 113.276,125.958 124.377,129.214 125.74,142.233 132.361,149.993 
	131.193,159.151 135.673,168.771 125.74,182.541 112.302,181.542 102.759,176.785 89.125,176.785 81.92,160.51 "/>
<path fill="#78AF6A" d="M46.862,116.697l2.337-11.517l12.854-9.262l10.322,9.262l10.127,6.134l5.064,11.391l-4.285,12.02
	l3.505,10.765c0,0-5.063,12.769-4.87,13.521c0.195,0.752-26.876-1.753-26.876-1.753l-9.346-15.023L46.862,116.697z"/>
<polygon fill="#67BD58" points="42.579,146.491 41.604,135.226 42.579,134.473 42.579,130.092 39.755,122.955 45.305,113.441 
	53.193,111.313 57.965,122.333 56.212,128.902 62.833,139.731 63.321,144.614 63.321,148.618 46.474,152.123 42.384,150.622 "/>
<polygon fill="#81C571" points="58.938,156.507 79.971,170.525 95.747,167.272 112.106,166.771 116.781,156.507 116.781,141.484 
	111.911,137.227 99.837,137.227 95.552,141.733 84.062,133.222 65.56,135.976 53.875,146.742 "/>
<polygon fill="#81C571" points="169.206,137.727 186.309,137.727 204.13,146.117 215.229,167.146 226.04,170.525 226.04,182.541 
	200.525,197.19 158.266,182.541 156.221,170.525 166.734,156.632 165.566,146.866 "/>
<polygon fill="#DBB9B9" points="88.931,145.241 92.241,152.123 98.279,149.745 102.758,151.875 105.484,145.241 103.926,144.238 
	98.279,140.733 92.241,135.226 88.931,139.98 "/>
<polygon fill="#EAACAC" points="123.597,138.729 130.023,135.976 134.893,138.729 136.649,143.674 137.424,151.875 130.511,151.875 
	129.83,147.369 125.155,147.742 122.818,143.674 "/>
<polygon fill="#F2DDDD" points="159.626,149.745 164.301,155.503 167.417,158.948 169.949,161.262 169.949,165.769 166.031,165.769 
	159.236,167.146 152.615,161.262 152.615,158.696 154.562,155.503 154.562,150.246 "/>
<polygon fill="#CEB6B6" points="172.677,135.976 176.475,128.715 179.491,128.715 182.023,127.534 185.725,128.966 185.725,131.718 
	189.139,139.057 189.139,142.484 183.389,142.484 180.907,144.987 177.35,141.986 175.014,138.729 "/>
<polygon fill="#F3B8B8" points="149.5,116.946 153.785,113.943 157.874,113.943 162.354,116.946 165.857,118.447 167.029,123.207 
	164.497,125.458 155.344,124.209 152.227,121.204 149.5,119.702 "/>
<polyline fill="#EAC8C7" points="113.469,113.943 121.065,111.313 125.934,111.313 128.466,114.444 135.673,116.946 
	135.673,121.956 130.121,121.956 120.287,130.219 113.469,123.457 110.938,116.946 112.69,113.943 "/>
</svg>
