<?xml version="1.0" encoding="utf-8"?>
<!-- Generator: Adobe Illustrator 16.0.0, SVG Export Plug-In . SVG Version: 6.00 Build 0)  -->
<!DOCTYPE svg PUBLIC "-//W3C//DTD SVG 1.1//EN" "http://www.w3.org/Graphics/SVG/1.1/DTD/svg11.dtd">
<svg version="1.1" id="Layer_1" xmlns="http://www.w3.org/2000/svg" xmlns:xlink="http://www.w3.org/1999/xlink" x="0px" y="0px"
	 width="300px" height="300px" viewBox="0 0 300 300" enable-background="new 0 0 300 300" xml:space="preserve">
<ellipse fill="#A0A0A0" cx="144" cy="167.415" rx="137.5" ry="51.622"/>
<ellipse fill="#A8A8A8" cx="144" cy="161.415" rx="127" ry="44.864"/>
<g>
	<path fill="#E0CFA6" d="M127.31,165.903c0,3.006-10.833,5.444-24.203,5.444c-13.363,0-24.196-2.438-24.196-5.444
		c0-3.005,10.833-5.444,24.196-5.444C116.477,160.459,127.31,162.898,127.31,165.903z"/>
	<path fill="#D6C399" d="M110.046,146.843c0,3.007-10.832,5.445-24.202,5.445c-13.364,0-24.196-2.438-24.196-5.445
		c0-3.005,10.832-5.443,24.196-5.443C99.214,141.399,110.046,143.838,110.046,146.843z"/>
	<path fill="#E8DCC1" d="M127.31,160.459c0,3.005-10.833,5.444-24.203,5.444c-13.363,0-24.196-2.439-24.196-5.444
		c0-3.006,10.833-5.445,24.196-5.445C116.477,155.014,127.31,157.453,127.31,160.459z"/>
	<path fill="#E8DCC1" d="M134.243,146.843c0,3.007-10.833,5.445-24.203,5.445c-13.363,0-24.195-2.438-24.195-5.445
		c0-3.005,10.833-5.443,24.195-5.443C123.411,141.399,134.243,143.838,134.243,146.843z"/>
	<path fill="#E0CFA6" d="M141.836,155.014c0,3.005-10.833,5.445-24.203,5.445c-13.363,0-24.195-2.44-24.195-5.445
		c0-3.006,10.833-5.445,24.195-5.445C131.003,149.568,141.836,152.008,141.836,155.014z"/>
	<path fill="#E0CFA6" d="M151.506,141.399c0,3.006-10.833,5.443-24.203,5.443c-13.364,0-24.197-2.438-24.197-5.443
		s10.833-5.445,24.197-5.445C140.672,135.954,151.506,138.394,151.506,141.399z"/>
	<path fill="#D6C399" d="M166.039,146.843c0,3.007-10.833,5.445-24.203,5.445c-13.364,0-24.197-2.438-24.197-5.445
		c0-3.005,10.833-5.443,24.197-5.443C155.206,141.399,166.039,143.838,166.039,146.843z"/>
	<path fill="#E8DCC1" d="M166.032,155.014c0,3.005-10.832,5.445-24.203,5.445c-13.364,0-24.196-2.44-24.196-5.445
		c0-3.006,10.832-5.445,24.196-5.445C155.2,149.568,166.032,152.008,166.032,155.014z"/>
	<path fill="#E8DCC1" d="M141.836,160.459c0,3.005-10.833,5.444-24.203,5.444c-13.363,0-24.195-2.439-24.195-5.444
		c0-3.006,10.833-5.445,24.195-5.445C131.003,155.014,141.836,157.453,141.836,160.459z"/>
	<path fill="#D6C399" d="M158.439,160.459c0,3.005-10.833,5.444-24.203,5.444c-13.364,0-24.196-2.439-24.196-5.444
		c0-3.006,10.832-5.445,24.196-5.445C147.607,155.014,158.439,157.453,158.439,160.459z"/>
	<path fill="#E0CFA6" d="M158.439,171.348c0,3.007-10.833,5.445-24.203,5.445c-13.364,0-24.196-2.438-24.196-5.445
		c0-3.006,10.832-5.444,24.196-5.444C147.607,165.903,158.439,168.342,158.439,171.348z"/>
	<path fill="#D6C399" d="M156.775,177.856c0,3.007-10.832,5.445-24.203,5.445c-13.364,0-24.196-2.438-24.196-5.445
		c0-3.006,10.832-5.444,24.196-5.444C145.943,172.412,156.775,174.851,156.775,177.856z"/>
	<path fill="#E0CFA6" d="M190.228,171.348c0,3.007-10.833,5.445-24.203,5.445c-13.363,0-24.195-2.438-24.195-5.445
		c0-3.006,10.832-5.444,24.195-5.444C179.395,165.903,190.228,168.342,190.228,171.348z"/>
	<path fill="#E8DCC1" d="M199.904,176.793c0,3.005-10.832,5.443-24.203,5.443c-13.362,0-24.195-2.438-24.195-5.443
		c0-3.007,10.833-5.445,24.195-5.445C189.072,171.348,199.904,173.786,199.904,176.793z"/>
	<path fill="#E0CFA6" d="M166.039,160.459c0,3.005-10.833,5.444-24.203,5.444c-13.364,0-24.197-2.439-24.197-5.444
		c0-3.006,10.833-5.445,24.197-5.445C155.206,155.014,166.039,157.453,166.039,160.459z"/>
	<path fill="#E8DCC1" d="M166.039,167.265c0,3.005-10.833,5.445-24.203,5.445c-13.364,0-24.197-2.44-24.197-5.445
		c0-3.006,10.833-5.445,24.197-5.445C155.206,161.819,166.039,164.259,166.039,167.265z"/>
	<path fill="#E0CFA6" d="M195.984,161.819c0,3.006-10.832,5.445-24.203,5.445c-13.364,0-24.196-2.439-24.196-5.445
		s10.832-5.445,24.196-5.445C185.152,156.374,195.984,158.813,195.984,161.819z"/>
	<path fill="#E8DCC1" d="M199.904,155.014c0,3.005-10.832,5.445-24.203,5.445c-13.362,0-24.195-2.44-24.195-5.445
		c0-3.006,10.833-5.445,24.195-5.445C189.072,149.568,199.904,152.008,199.904,155.014z"/>
	<path fill="#D6C399" d="M202.173,146.843c0,3.007-10.832,5.445-24.203,5.445c-13.362,0-24.195-2.438-24.195-5.445
		c0-3.005,10.833-5.443,24.195-5.443C191.341,141.399,202.173,143.838,202.173,146.843z"/>
	<path fill="#D6C399" d="M190.234,152.288c0,3.006-10.833,5.444-24.202,5.444c-13.364,0-24.196-2.438-24.196-5.444
		c0-3.007,10.832-5.445,24.196-5.445C179.401,146.843,190.234,149.281,190.234,152.288z"/>
	<path fill="#E8DCC1" d="M186.15,141.399c0,3.006-10.832,5.443-24.203,5.443c-13.362,0-24.195-2.438-24.195-5.443
		s10.833-5.445,24.195-5.445C175.318,135.954,186.15,138.394,186.15,141.399z"/>
	<path fill="#E8DCC1" d="M223.732,177.994c0.527,2.96-9.71,7.259-22.873,9.603c-13.156,2.343-24.248,1.843-24.775-1.116
		c-0.527-2.96,9.711-7.261,22.866-9.604C212.113,174.532,223.206,175.035,223.732,177.994z"/>
	<path fill="#E0CFA6" d="M192.305,186.058c-0.181,3.001-11.141,4.779-24.486,3.97c-13.339-0.808-24.004-3.896-23.823-6.896
		c0.181-3.001,11.143-4.78,24.481-3.973C181.822,179.967,192.487,183.058,192.305,186.058z"/>
	<path fill="#E8DCC1" d="M161.606,180.522c0.507,2.963-9.761,7.189-22.94,9.438c-13.172,2.25-24.261,1.67-24.767-1.293
		c-0.507-2.963,9.763-7.19,22.934-9.439C150.013,176.977,161.102,177.56,161.606,180.522z"/>
	<path fill="#E0CFA6" d="M134.033,185.378c-0.389,2.98-11.446,3.993-24.703,2.256c-13.25-1.733-23.675-5.557-23.285-8.537
		c0.389-2.98,11.449-3.993,24.698-2.259C124,178.572,134.424,182.398,134.033,185.378z"/>
	<path fill="#E8DCC1" d="M106.843,182.291c-0.389,2.98-11.446,3.993-24.703,2.256c-13.25-1.733-23.675-5.557-23.285-8.537
		c0.389-2.98,11.449-3.993,24.698-2.259C96.811,175.485,107.234,179.312,106.843,182.291z"/>
	<path fill="#E8DCC1" d="M101.176,168.676c-0.389,2.98-11.446,3.993-24.703,2.256c-13.25-1.733-23.675-5.557-23.285-8.537
		c0.389-2.98,11.449-3.993,24.698-2.259C91.144,161.87,101.567,165.696,101.176,168.676z"/>
	<path fill="#E0CFA6" d="M240.061,152.579c-0.713,2.921-11.813,2.721-24.804-0.448c-12.981-3.167-22.929-8.103-22.216-11.023
		c0.713-2.92,11.814-2.722,24.797,0.445C230.827,144.722,240.772,149.659,240.061,152.579z"/>
	<path fill="#E8DCC1" d="M240.635,177.084c-0.713,2.921-11.813,2.721-24.804-0.448c-12.981-3.167-22.929-8.103-22.216-11.023
		c0.713-2.92,11.814-2.722,24.797,0.445C231.401,169.227,241.347,174.164,240.635,177.084z"/>
	<path fill="#D6C399" d="M251.061,163.469c-0.713,2.921-11.813,2.721-24.804-0.448c-12.981-3.167-22.929-8.103-22.216-11.023
		c0.713-2.92,11.814-2.722,24.797,0.445C241.827,155.611,251.772,160.549,251.061,163.469z"/>
	<path fill="#D6C399" d="M124.238,187.972c-0.713,2.921-11.813,2.721-24.804-0.448c-12.981-3.167-22.929-8.103-22.216-11.023
		c0.713-2.92,11.814-2.722,24.797,0.445C115.004,180.114,124.95,185.052,124.238,187.972z"/>
	<path fill="#E0CFA6" d="M243.689,171.954c-0.713,2.921-11.813,2.721-24.804-0.448c-12.981-3.167-22.929-8.103-22.216-11.023
		c0.713-2.92,11.814-2.722,24.797,0.445C234.456,164.097,244.401,169.034,243.689,171.954z"/>
	<path fill="#D6C399" d="M240.061,182.528c-0.713,2.921-11.813,2.721-24.804-0.448c-12.981-3.167-22.929-8.103-22.216-11.023
		c0.713-2.92,11.814-2.722,24.797,0.445C230.827,174.671,240.772,179.608,240.061,182.528z"/>
	<path fill="#E0CFA6" d="M31.854,160.381c0.713,2.921,11.813,2.721,24.804-0.448c12.981-3.167,22.929-8.103,22.216-11.023
		c-0.713-2.92-11.814-2.722-24.797,0.445C41.088,152.523,31.143,157.461,31.854,160.381z"/>
	<path fill="#E8DCC1" d="M38.128,173.684c0.713,2.921,11.813,2.721,24.804-0.448c12.981-3.167,22.929-8.103,22.216-11.023
		c-0.713-2.92-11.814-2.722-24.797,0.445C47.361,165.826,37.416,170.764,38.128,173.684z"/>
	<path fill="#D6C399" d="M31.854,168.913c0.713,2.921,11.813,2.721,24.804-0.448c12.981-3.167,22.929-8.103,22.216-11.023
		c-0.713-2.92-11.814-2.722-24.797,0.445C41.088,161.056,31.143,165.993,31.854,168.913z"/>
	<path fill="#E8DCC1" d="M44.171,158.023c0.713,2.921,11.813,2.721,24.804-0.448c12.981-3.167,22.929-8.103,22.216-11.023
		c-0.713-2.92-11.814-2.722-24.797,0.445C53.404,150.166,43.459,155.104,44.171,158.023z"/>
	<path fill="#D6C399" d="M38.702,179.128c0.713,2.921,11.813,2.721,24.804-0.448c12.981-3.167,22.929-8.103,22.216-11.023
		c-0.713-2.92-11.814-2.722-24.797,0.445C47.936,171.271,37.99,176.208,38.702,179.128z"/>
	<path fill="#E8DCC1" d="M210.354,140.037c0,3.007-10.832,5.445-24.203,5.445c-13.362,0-24.195-2.438-24.195-5.445
		c0-3.005,10.833-5.443,24.195-5.443C199.521,134.594,210.354,137.032,210.354,140.037z"/>
	<path fill="#E8DCC1" d="M220.18,150.927c0,3.007-10.833,5.444-24.203,5.444c-13.363,0-24.195-2.438-24.195-5.444
		c0-3.006,10.832-5.444,24.195-5.444C209.347,145.482,220.18,147.921,220.18,150.927z"/>
	<path fill="#E0CFA6" d="M220.18,157.732c0,3.007-10.833,5.445-24.203,5.445c-13.363,0-24.195-2.438-24.195-5.445
		c0-3.006,10.832-5.444,24.195-5.444C209.347,152.288,220.18,154.727,220.18,157.732z"/>
	<path fill="#E8DCC1" d="M216.551,167.265c0,3.005-10.833,5.445-24.203,5.445c-13.364,0-24.197-2.44-24.197-5.445
		c0-3.006,10.833-5.445,24.197-5.445C205.718,161.819,216.551,164.259,216.551,167.265z"/>
	<path fill="#E0CFA6" d="M224.107,172.71c0,3.005-10.832,5.443-24.203,5.443c-13.362,0-24.195-2.438-24.195-5.443
		c0-3.006,10.833-5.445,24.195-5.445C213.275,167.265,224.107,169.704,224.107,172.71z"/>
	<path fill="#E0CFA6" d="M107.049,155.014c0,3.005-10.833,5.445-24.203,5.445c-13.364,0-24.196-2.44-24.196-5.445
		c0-3.006,10.833-5.445,24.196-5.445C96.215,149.568,107.049,152.008,107.049,155.014z"/>
	<path fill="#E8DCC1" d="M112.337,140.037c0,3.007-10.833,5.445-24.203,5.445c-13.364,0-24.196-2.438-24.196-5.445
		c0-3.005,10.833-5.443,24.196-5.443C101.504,134.594,112.337,137.032,112.337,140.037z"/>
	<path fill="#E8DCC1" d="M120.958,172.71c0,3.005-10.833,5.443-24.203,5.443c-13.364,0-24.197-2.438-24.197-5.443
		c0-3.006,10.833-5.445,24.197-5.445C110.125,167.265,120.958,169.704,120.958,172.71z"/>
</g>
<text transform="matrix(1 0 0 1 -1.7441 52.2734)" fill="#3F403F" font-family="'Roboto-Regular'" font-size="47.6534">Chicken &amp; rice</text>
<g>
	<path fill="#B29A7F" d="M129.285,143.346l-38.988,27.815c0,0-2.387-8.131-9.15-2.567c-6.763,5.563-8.056,17.974,5.172,14.122
		c-5.172,6.847,5.57,13.266,13.526,7.275c7.957-5.991-2.387-12.41-2.387-12.41l51.321-34.235H129.285z"/>
	<path fill="#8E542C" d="M103.844,153.949c11.896-35.189,53.28-57.21,75.043-28.605c21.763,28.605-35.271,44.95-54.781,45.768
		c-9.005-0.817-9.755-6.538-9.755-6.538s2.626-3.678-4.502-4.087C101.741,160.022,101.593,160.604,103.844,153.949z"/>
</g>
</svg>
