<?xml version="1.0" encoding="utf-8"?>
<!-- Generator: Adobe Illustrator 16.0.0, SVG Export Plug-In . SVG Version: 6.00 Build 0)  -->
<!DOCTYPE svg PUBLIC "-//W3C//DTD SVG 1.1//EN" "http://www.w3.org/Graphics/SVG/1.1/DTD/svg11.dtd">
<svg version="1.1" id="Layer_1" xmlns="http://www.w3.org/2000/svg" xmlns:xlink="http://www.w3.org/1999/xlink" x="0px" y="0px"
	 width="300px" height="300px" viewBox="0 0 300 300" enable-background="new 0 0 300 300" xml:space="preserve">
<text transform="matrix(1 0 0 1 61.4648 52.2734)" fill="#3F403F" font-family="'Roboto-Regular'" font-size="47.6534">skewers</text>
<g>
	<polygon fill="#F2D38C" points="98.058,242.838 230.051,113.673 100.886,245.666 	"/>
</g>
<path fill="#754E38" d="M107.157,207.339c3.045-3.045,7.982-3.046,11.027,0l18.201,18.2c3.045,3.046,3.045,7.982,0,11.027
	l-9.243,9.242c-3.045,3.045-7.982,3.045-11.028,0l-18.201-18.201c-3.045-3.045-3.045-7.98,0-11.026L107.157,207.339z"/>
<path fill="#754E38" d="M144.059,174.902c2.581-2.58,6.761-2.579,9.341,0l15.42,15.42c2.58,2.58,2.582,6.762,0,9.343l-7.829,7.83
	c-2.58,2.58-6.763,2.58-9.343,0l-15.42-15.42c-2.58-2.58-2.58-6.763,0-9.343L144.059,174.902z"/>
<path fill="#754E38" d="M204.613,114.347c2.58-2.581,6.763-2.579,9.343,0l15.42,15.42c2.58,2.58,2.581,6.762,0.001,9.343
	l-7.83,7.829c-2.581,2.581-6.764,2.58-9.343,0l-15.42-15.42c-2.58-2.579-2.58-6.762,0-9.342L204.613,114.347z"/>
<path fill="#754E38" d="M174.907,149.23c2.041-2.042,5.348-2.041,7.389,0l12.197,12.197c2.041,2.04,2.042,5.349,0.001,7.39
	l-6.193,6.193c-2.042,2.041-5.35,2.04-7.39,0l-12.197-12.197c-2.041-2.041-2.041-5.349,0-7.39L174.907,149.23z"/>
<path fill="#BFD381" d="M122.785,192.001c8.122-6.649,34.326,21.751,28.85,28.851c-5.467,7.086-8.967,9.557-11.47,7.055
	c-1.211-1.213-4.496-8.84-10.002-14.346c-5.866-5.867-13.962-9.619-14.874-10.53C113.523,201.264,115.117,198.277,122.785,192.001z"
	/>
<path fill="#BFD381" d="M185.407,133.818c8.009-6.763,30.024,17.45,24.424,24.424c-5.593,6.962-9.013,9.511-11.131,7.393
	c-1.025-1.025-3.474-7.814-8.136-12.477c-4.967-4.967-12.151-7.812-12.924-8.583C176.146,143.08,177.848,140.202,185.407,133.818z"
	/>
<path fill="#8ABC69" d="M158.855,163.841c5.901-4.832,24.943,15.804,20.963,20.964c-3.973,5.147-6.516,6.942-8.334,5.125
	c-0.879-0.882-3.268-6.423-7.268-10.424c-4.263-4.263-10.146-6.99-10.807-7.652C152.127,170.568,153.286,168.4,158.855,163.841z"/>
<g>
	<polygon fill="#F2D38C" points="55.636,200.415 187.628,71.25 58.464,203.243 	"/>
</g>
<path fill="#DDC89F" d="M64.734,164.916c3.045-3.045,7.982-3.045,11.027,0l18.201,18.2c3.045,3.046,3.045,7.983,0,11.028
	l-9.243,9.241c-3.045,3.046-7.983,3.046-11.028,0l-18.201-18.2c-3.045-3.045-3.045-7.981,0-11.026L64.734,164.916z"/>
<path fill="#DDC89F" d="M101.636,132.479c2.581-2.58,6.762-2.579,9.342,0.001l15.42,15.42c2.58,2.579,2.581,6.762,0,9.342
	l-7.83,7.83c-2.581,2.58-6.763,2.58-9.343,0l-15.42-15.42c-2.58-2.58-2.58-6.762,0-9.343L101.636,132.479z"/>
<path fill="#DDC89F" d="M162.191,71.925c2.58-2.581,6.763-2.58,9.342,0l15.42,15.42c2.58,2.58,2.581,6.762,0.001,9.342l-7.83,7.83
	c-2.58,2.581-6.765,2.58-9.343,0l-15.42-15.42c-2.58-2.58-2.582-6.762,0-9.342L162.191,71.925z"/>
<path fill="#DDC89F" d="M132.484,106.808c2.041-2.042,5.349-2.041,7.389,0l12.197,12.197c2.041,2.041,2.041,5.348,0,7.39
	l-6.192,6.193c-2.041,2.041-5.35,2.04-7.39,0l-12.197-12.197c-2.041-2.041-2.042-5.349,0-7.39L132.484,106.808z"/>
<path fill="#CC5252" d="M80.362,149.578c8.122-6.649,34.327,21.751,28.85,28.852c-5.467,7.086-8.967,9.555-11.469,7.053
	c-1.212-1.211-4.496-8.838-10.002-14.344c-5.866-5.867-13.962-9.621-14.874-10.531C71.101,158.84,72.694,155.855,80.362,149.578z"/>
<path fill="#CC5252" d="M142.984,91.396c8.009-6.763,30.024,17.449,24.424,24.424c-5.592,6.962-9.014,9.51-11.131,7.392
	c-1.025-1.025-3.475-7.815-8.134-12.477c-4.966-4.966-12.153-7.811-12.924-8.583C133.723,100.658,135.424,97.78,142.984,91.396z"/>
<path fill="#E2D67D" d="M116.434,121.418c5.901-4.832,24.943,15.805,20.963,20.963c-3.973,5.149-6.516,6.943-8.333,5.125
	c-0.88-0.88-3.268-6.422-7.269-10.423c-4.263-4.263-10.145-6.99-10.807-7.652C109.704,128.147,110.863,125.979,116.434,121.418z"/>
</svg>
