<?xml version="1.0" encoding="utf-8"?>
<!-- Generator: Adobe Illustrator 16.0.0, SVG Export Plug-In . SVG Version: 6.00 Build 0)  -->
<!DOCTYPE svg PUBLIC "-//W3C//DTD SVG 1.1//EN" "http://www.w3.org/Graphics/SVG/1.1/DTD/svg11.dtd">
<svg version="1.1" id="Layer_1" xmlns="http://www.w3.org/2000/svg" xmlns:xlink="http://www.w3.org/1999/xlink" x="0px" y="0px"
	 width="300px" height="300px" viewBox="0 0 300 300" enable-background="new 0 0 300 300" xml:space="preserve">
<path fill="#A56D6D" d="M279.508,130.541c0,26.256-57.982,46.312-129.508,46.312c-71.526,0-129.508-20.058-129.508-46.312
	S78.474,83,150,83C221.525,83,279.508,104.285,279.508,130.541z"/>
<path fill="#D8C2B4" d="M57.833,173.266c0,0-58.054-35.774-17.561-32.739s54.855-1.905,62.895-10.6s40.237-21.427,79.771-16.76
	c16.068,1.896,55.207-4.114,68.218,6.11s15.679,37.89,7.345,41.557S117.5,210.365,57.833,173.266z"/>
<path fill="none" d="M20.492,126.41"/>
<text transform="matrix(1 0 0 1 87.6646 52.2734)" fill="#3F403F" font-family="'Roboto-Regular'" font-size="47.6534">Sauté</text>
<path fill="#D38854" d="M228.833,175.085c0,0-5.791-33.277-20.62-33.641c-14.828-0.361-4.233-13.288-28.361-15.357
	c-24.127-2.069-18.822-4.773-29.902,8.405c-11.084,13.178-48.104-1.924-60.776,4.542s-42.638,25.558-42.638,25.558l43.684,14.846
	c0,0,6.137-27.388,11.615-34.934s29.725,9.673,48.529,1.168s15.661-20.209,26.783-13.76c11.121,6.449,11.668-2.375,15.417,3.843
	c8.65,14.346-5.192,42.659-11.71,50.095"/>
<path fill="#F7AD77" d="M109.376,178.19c0,0,46.112-2.766,32.519-18.338c-13.593-15.575-10.864-34.468,11.565-38.727
	c22.429-4.259,46.516-2.667,55.989-11.274c9.474-8.606,62.609,3.661,35.013,26.011c-27.598,22.351,9.634,27.661-24.46,39.139
	c-6.153,1.293-14.908,3.103-14.908,3.103s16.302-5.136,17.126-15.381c0.824-10.247,2.988-25.81,16.478-33.23
	c13.487-7.422-6.592-22.099-23.48-13.901c-16.888,8.197-31.306,11.819-51.077,13.901s-27.186,12.737-13.182,26.672
	c14.006,13.936-5.912,19.395-20.74,24.312L109.376,178.19z"/>
<path fill="#EABFA2" d="M273.421,147.504c0,0-62.588,13.996-80.858,8.251c-40.61-12.77-39.609-5.001-73.503-8.628
	c-33.893-3.627-90.398-50.611-85.29,8.69l10.05,5.627c0,0-9.435-28.642,10.749-27.82c20.186,0.82,36.246,17.787,66.318,20.164
	s44.82,3.619,69.614,9.18c24.667,5.532,44.933-5.408,75.771-8.768L273.421,147.504z"/>
<path fill="#F4BC95" d="M242.495,166.658c42.931-49.344-33.331-21.132-46.33-12.249c-12.998,8.883-23.662,18.576-67.142,14.358
	c-25.408-2.466-75.315-15.832-72.074-2.109l-10.29-3.994c-4.996-17.915,52.111-7.303,77.239-2.812
	c25.127,4.489,44.074,4.937,64.67-10.67c20.596-15.606,30.749-16.508,47.34-16.261s44.39,1.853,20.499,27.508L242.495,166.658z"/>
<path fill="#D1CB86" d="M69.362,155.214c0,4.306-3.491,7.798-7.797,7.798H47.63c-4.306,0-7.797-3.492-7.797-7.798v-2.143
	c0-4.306,3.491-7.797,7.797-7.797h13.934c4.306,0,7.797,3.491,7.797,7.797V155.214z"/>
<path fill="#EAE473" d="M130.939,182.935c-3.672,2.249-8.473,1.097-10.723-2.575l-7.278-11.883
	c-2.249-3.672-1.095-8.473,2.577-10.722l1.827-1.119c3.672-2.249,8.473-1.097,10.723,2.575l7.278,11.883
	c2.249,3.672,1.095,8.473-2.577,10.722L130.939,182.935z"/>
<path fill="#D1CB86" d="M195.296,173.023c-0.635,4.259-4.603,7.197-8.862,6.562l-13.781-2.058c-4.259-0.635-7.196-4.604-6.562-8.862
	l0.316-2.119c0.636-4.259,4.604-7.198,8.862-6.562l13.782,2.057c4.259,0.636,7.196,4.604,6.561,8.863L195.296,173.023z"/>
<path fill="#EAE473" d="M218.241,142.103c-0.684,4.251-4.685,7.145-8.938,6.461l-13.757-2.216c-4.251-0.684-7.144-4.685-6.46-8.937
	l0.341-2.116c0.685-4.25,4.686-7.145,8.937-6.46l13.758,2.214c4.251,0.684,7.144,4.687,6.459,8.938L218.241,142.103z"/>
<path fill="#D1CB86" d="M138.411,134.763c1.442,4.057-0.677,8.517-4.735,9.961l-13.13,4.666c-4.057,1.443-8.516-0.677-9.959-4.734
	l-0.717-2.019c-1.442-4.057,0.677-8.518,4.734-9.959l13.129-4.668c4.057-1.442,8.517,0.678,9.959,4.735L138.411,134.763z"/>
<g>
	<ellipse fill="#C1C1C1" cx="72.667" cy="164.592" rx="10.942" ry="7.537"/>
	<path fill="#C1C1C1" d="M78.286,167.07c0,5.782-2.516,10.47-5.619,10.47c-3.104,0-5.62-4.688-5.62-10.47"/>
</g>
<g>
	
		<ellipse transform="matrix(0.8492 0.5281 -0.5281 0.8492 111.6091 -50.3268)" fill="#A8A8A8" cx="143.92" cy="170.249" rx="10.942" ry="7.537"/>
	<path fill="#A8A8A8" d="M147.383,175.321c-3.053,4.91-7.665,7.562-10.3,5.923c-2.636-1.639-2.297-6.948,0.757-11.858"/>
</g>
<g>
	
		<ellipse transform="matrix(0.8492 0.5281 -0.5281 0.8492 119.4341 -82.3119)" fill="#C1C1C1" cx="203.834" cy="167.957" rx="10.942" ry="7.537"/>
	<path fill="#C1C1C1" d="M207.297,173.029c-3.053,4.91-7.665,7.562-10.301,5.923c-2.636-1.639-2.297-6.948,0.758-11.858"/>
</g>
<g>
	
		<ellipse transform="matrix(0.8492 0.5281 -0.5281 0.8492 111.8348 -106.9073)" fill="#A8A8A8" cx="243.098" cy="142.354" rx="10.942" ry="7.537"/>
	<path fill="#A8A8A8" d="M246.561,147.426c-3.053,4.91-7.665,7.562-10.301,5.923s-2.297-6.949,0.758-11.859"/>
</g>
<g>
	
		<ellipse transform="matrix(0.4188 -0.9081 0.9081 0.4188 -25.3952 242.7739)" fill="#A8A8A8" cx="176.966" cy="141.227" rx="10.943" ry="7.538"/>
	<path fill="#A8A8A8" d="M181.57,137.162c5.25,2.421,8.453,6.669,7.153,9.487s-6.61,3.14-11.861,0.717"/>
</g>
<g>
	
		<ellipse transform="matrix(0.8841 0.4673 -0.4673 0.8841 79.3312 -87.3488)" fill="#C1C1C1" cx="215.761" cy="116.258" rx="10.942" ry="7.538"/>
	<path fill="#C1C1C1" d="M219.57,121.075c-2.7,5.112-7.115,8.081-9.859,6.63s-2.778-6.771-0.075-11.883"/>
</g>
<g>
	
		<ellipse transform="matrix(0.5711 -0.8209 0.8209 0.5711 -84.0678 122.0886)" fill="#A8A8A8" cx="74.801" cy="141.494" rx="10.942" ry="7.537"/>
	<path fill="#A8A8A8" d="M80.044,138.297c4.747,3.301,7.158,8.043,5.385,10.591c-1.772,2.548-7.058,1.937-11.804-1.367"/>
</g>
<path fill="#EAE473" d="M261.263,149.988c1.885,3.871,0.274,8.539-3.598,10.425l-12.53,6.097c-3.871,1.885-8.538,0.273-10.423-3.599
	l-0.938-1.927c-1.884-3.871-0.274-8.54,3.598-10.424l12.529-6.098c3.872-1.884,8.539-0.272,10.424,3.6L261.263,149.988z"/>
<g>
	<path fill="#619355" d="M111.938,186.887c0-2.046-5.5-2.231-5.5-11.802H103c0,9.57-5.5,9.473-5.5,11.802
		S111.938,188.933,111.938,186.887z"/>
	<path fill="#4B7A41" d="M119.219,171.867c0,7.658-6.492,8.866-14.5,8.866s-14.5-1.208-14.5-8.866s6.492-13.866,14.5-13.866
		S119.219,164.209,119.219,171.867z"/>
</g>
<g>
	<path fill="#619355" d="M158.307,152.542c-0.944,1.814,3.848,4.519-0.571,13.008l3.05,1.587c4.419-8.489,9.252-5.863,10.328-7.929
		C172.188,157.143,159.251,150.727,158.307,152.542z"/>
	<path fill="#4B7A41" d="M144.913,162.502c3.537-6.793,9.853-4.867,16.956-1.169c7.104,3.697,12.304,7.767,8.768,14.56
		s-12.16,9.302-19.264,5.604C144.269,177.799,141.376,169.295,144.913,162.502z"/>
</g>
<g>
	<path fill="#619355" d="M231.944,153.863c-1.714-1.118-4.874,3.387-12.89-1.842l-1.878,2.88c8.017,5.229,4.93,9.781,6.88,11.055
		C226.007,167.228,233.658,154.98,231.944,153.863z"/>
	<path fill="#4B7A41" d="M223.343,139.559c6.414,4.184,3.88,10.282-0.496,16.988c-4.375,6.708-8.934,11.485-15.348,7.301
		c-6.414-4.184-8.067-13.012-3.692-19.719S216.928,135.374,223.343,139.559z"/>
</g>
<g>
	<path fill="#81A378" d="M153.044,147.696c0.981-1.795-3.754-4.598,0.839-12.994l-3.017-1.649
		c-4.593,8.397-9.371,5.671-10.489,7.714C139.26,142.811,152.062,149.491,153.044,147.696z"/>
	<path fill="#59844E" d="M166.64,138.014c-3.676,6.719-9.951,4.664-16.976,0.82c-7.026-3.843-12.142-8.018-8.466-14.737
		c3.675-6.719,12.349-9.05,19.375-5.207C167.599,122.732,170.315,131.294,166.64,138.014z"/>
</g>
<g>
	<path fill="#619355" d="M60.956,153.557c0.101-2.044-5.384-2.498-4.915-12.057l-3.434-0.167c-0.468,9.56-5.957,9.192-6.071,11.519
		C46.421,155.176,60.856,155.601,60.956,153.557z"/>
	<path fill="#4B7A41" d="M68.963,138.912c-0.375,7.649-6.918,8.539-14.916,8.145c-7.999-0.392-14.424-1.916-14.048-9.565
		c0.375-7.649,7.161-13.531,15.16-13.14C63.158,124.744,69.339,131.262,68.963,138.912z"/>
</g>
<path fill="#935555" d="M150,176.854c-63.91,0-117-16.015-127.583-38.154C29.19,162.961,56.814,233,150,233
	c93.184,0,120.809-70.037,127.583-94.299C266.999,160.841,213.908,176.854,150,176.854z"/>
</svg>
