<?xml version="1.0" encoding="utf-8"?>
<!-- Generator: Adobe Illustrator 16.0.0, SVG Export Plug-In . SVG Version: 6.00 Build 0)  -->
<!DOCTYPE svg PUBLIC "-//W3C//DTD SVG 1.1//EN" "http://www.w3.org/Graphics/SVG/1.1/DTD/svg11.dtd">
<svg version="1.1" id="Layer_1" xmlns="http://www.w3.org/2000/svg" xmlns:xlink="http://www.w3.org/1999/xlink" x="0px" y="0px"
	 width="300px" height="300px" viewBox="0 0 300 300" enable-background="new 0 0 300 300" xml:space="preserve">
<ellipse cx="61.43" cy="102.325" rx="38.178" ry="14.804"/>
<rect x="23.252" y="102.325" width="76.357" height="50.646"/>
<g>
	<defs>
		<ellipse id="SVGID_1_" cx="61.43" cy="103.884" rx="36.882" ry="14.804"/>
	</defs>
	<clipPath id="SVGID_2_">
		<use xlink:href="#SVGID_1_"  overflow="visible"/>
	</clipPath>
	<g clip-path="url(#SVGID_2_)">
		<path fill="#EAE4D6" d="M49.202,105.616c0,1.957-7.048,3.544-15.747,3.544c-8.694,0-15.743-1.587-15.743-3.544
			c0-1.954,7.048-3.542,15.743-3.542C42.153,102.074,49.202,103.662,49.202,105.616z"/>
		<path fill="#EAE4D6" d="M37.969,93.214c0,1.958-7.047,3.543-15.746,3.543c-8.695,0-15.742-1.584-15.742-3.543
			c0-1.954,7.047-3.54,15.742-3.54C30.922,89.673,37.969,91.261,37.969,93.214z"/>
		<path fill="#FFFFFF" d="M49.202,102.074c0,1.954-7.048,3.542-15.747,3.542c-8.694,0-15.743-1.587-15.743-3.542
			s7.048-3.541,15.743-3.541C42.153,98.533,49.202,100.12,49.202,102.074z"/>
		<path fill="#FFFFFF" d="M53.712,93.214c0,1.958-7.048,3.543-15.746,3.543c-8.695,0-15.742-1.584-15.742-3.543
			c0-1.954,7.048-3.54,15.742-3.54C46.664,89.673,53.712,91.261,53.712,93.214z"/>
		<path fill="#EDE7DD" d="M58.652,98.533c0,1.954-7.048,3.541-15.747,3.541c-8.694,0-15.742-1.587-15.742-3.541
			c0-1.957,7.048-3.543,15.742-3.543C51.604,94.99,58.652,96.576,58.652,98.533z"/>
		<path fill="#EAE4D6" d="M64.943,89.673c0,1.956-7.048,3.541-15.747,3.541c-8.694,0-15.742-1.585-15.742-3.541
			c0-1.953,7.048-3.542,15.742-3.542C57.896,86.131,64.943,87.721,64.943,89.673z"/>
		<path fill="#EDE7DD" d="M74.399,93.214c0,1.958-7.049,3.543-15.748,3.543c-8.695,0-15.743-1.584-15.743-3.543
			c0-1.954,7.048-3.54,15.743-3.54C67.35,89.673,74.399,91.261,74.399,93.214z"/>
		<path fill="#FFFFFF" d="M74.395,98.533c0,1.954-7.047,3.541-15.747,3.541c-8.695,0-15.743-1.587-15.743-3.541
			c0-1.957,7.048-3.543,15.743-3.543C67.348,94.99,74.395,96.576,74.395,98.533z"/>
		<path fill="#FFFFFF" d="M58.652,102.074c0,1.954-7.048,3.542-15.747,3.542c-8.694,0-15.742-1.587-15.742-3.542
			s7.048-3.541,15.742-3.541C51.604,98.533,58.652,100.12,58.652,102.074z"/>
		<path fill="#EDE7DD" d="M69.454,102.074c0,1.954-7.048,3.542-15.747,3.542c-8.694,0-15.741-1.587-15.741-3.542
			s7.046-3.541,15.741-3.541C62.407,98.533,69.454,100.12,69.454,102.074z"/>
		<path fill="#EAE4D6" d="M69.454,109.16c0,1.957-7.048,3.542-15.747,3.542c-8.694,0-15.741-1.585-15.741-3.542
			c0-1.956,7.046-3.544,15.741-3.544C62.407,105.616,69.454,107.204,69.454,109.16z"/>
		<path fill="#EDE7DD" d="M68.372,113.392c0,1.959-7.048,3.544-15.747,3.544c-8.695,0-15.743-1.585-15.743-3.544
			c0-1.954,7.048-3.539,15.743-3.539C61.324,109.853,68.372,111.439,68.372,113.392z"/>
		<path fill="#EAE4D6" d="M90.137,109.16c0,1.957-7.049,3.542-15.747,3.542c-8.695,0-15.742-1.585-15.742-3.542
			c0-1.956,7.047-3.544,15.742-3.544C83.088,105.616,90.137,107.204,90.137,109.16z"/>
		<path fill="#FFFFFF" d="M96.432,112.702c0,1.954-7.047,3.542-15.747,3.542c-8.694,0-15.742-1.587-15.742-3.542
			c0-1.958,7.047-3.542,15.742-3.542C89.384,109.16,96.432,110.744,96.432,112.702z"/>
		<path fill="#EAE4D6" d="M74.399,102.074c0,1.954-7.049,3.542-15.748,3.542c-8.695,0-15.743-1.587-15.743-3.542
			s7.048-3.541,15.743-3.541C67.35,98.533,74.399,100.12,74.399,102.074z"/>
		<path fill="#FFFFFF" d="M69.458,106.947c0,1.955-7.049,3.542-15.748,3.542c-8.694,0-15.743-1.587-15.743-3.542
			c0-1.957,7.048-3.542,15.743-3.542C62.408,103.405,69.458,104.99,69.458,106.947z"/>
		<path fill="#EDE7DD" d="M93.881,102.96c0,1.956-7.047,3.542-15.746,3.542c-8.695,0-15.743-1.586-15.743-3.542
			c0-1.957,7.047-3.544,15.743-3.544C86.833,99.416,93.881,101.003,93.881,102.96z"/>
		<path fill="#EAE4D6" d="M96.432,98.533c0,1.954-7.047,3.541-15.747,3.541c-8.694,0-15.742-1.587-15.742-3.541
			c0-1.957,7.047-3.543,15.742-3.543C89.384,94.99,96.432,96.576,96.432,98.533z"/>
		<path fill="#EAE4D6" d="M97.908,93.214c0,1.958-7.048,3.543-15.747,3.543c-8.694,0-15.742-1.584-15.742-3.543
			c0-1.954,7.048-3.54,15.742-3.54C90.86,89.673,97.908,91.261,97.908,93.214z"/>
		<path fill="#EDE7DD" d="M90.141,96.757c0,1.958-7.048,3.544-15.746,3.544c-8.695,0-15.743-1.586-15.743-3.544
			c0-1.956,7.047-3.543,15.743-3.543C83.092,93.214,90.141,94.801,90.141,96.757z"/>
		<path fill="#FFFFFF" d="M87.483,89.673c0,1.956-7.048,3.541-15.746,3.541c-8.693,0-15.742-1.585-15.742-3.541
			c0-1.953,7.049-3.542,15.742-3.542C80.435,86.131,87.483,87.721,87.483,89.673z"/>
		<path fill="#FFFFFF" d="M111.934,113.485c0.342,1.923-6.317,4.72-14.881,6.247c-8.56,1.524-15.776,1.196-16.12-0.728
			c-0.342-1.925,6.318-4.724,14.878-6.247C104.375,111.229,111.591,111.558,111.934,113.485z"/>
		<path fill="#EDE7DD" d="M91.488,118.73c-0.118,1.953-7.248,3.109-15.932,2.582c-8.677-0.526-15.617-2.534-15.499-4.487
			c0.118-1.951,7.25-3.109,15.929-2.585C84.667,114.766,91.606,116.778,91.488,118.73z"/>
		<path fill="#FFFFFF" d="M71.514,115.128c0.331,1.926-6.35,4.676-14.924,6.14c-8.569,1.464-15.785,1.087-16.114-0.843
			c-0.329-1.925,6.352-4.676,14.922-6.137C63.972,112.821,71.187,113.202,71.514,115.128z"/>
		<path fill="#EAE4D6" d="M53.576,118.288c-0.254,1.938-7.447,2.598-16.074,1.467c-8.619-1.13-15.402-3.613-15.148-5.554
			c0.252-1.938,7.448-2.599,16.068-1.472C47.049,113.86,53.83,116.349,53.576,118.288z"/>
		<path fill="#FFFFFF" d="M35.885,116.279c-0.253,1.938-7.447,2.597-16.072,1.467c-8.622-1.126-15.403-3.616-15.15-5.555
			c0.254-1.938,7.45-2.596,16.07-1.468C29.358,111.85,36.14,114.343,35.885,116.279z"/>
		<path fill="#FFFFFF" d="M32.198,107.42c-0.252,1.94-7.447,2.598-16.071,1.468c-8.621-1.127-15.404-3.614-15.15-5.553
			c0.253-1.94,7.449-2.599,16.069-1.472C25.671,102.994,32.453,105.481,32.198,107.42z"/>
		<path fill="#EAE4D6" d="M122.558,96.949c-0.462,1.901-7.685,1.769-16.136-0.293c-8.448-2.061-14.92-5.27-14.455-7.172
			c0.463-1.899,7.687-1.771,16.134,0.29C116.551,91.836,123.02,95.048,122.558,96.949z"/>
		<path fill="#EAE4D6" d="M122.932,112.89c-0.466,1.902-7.685,1.77-16.139-0.289c-8.445-2.061-14.917-5.273-14.453-7.172
			c0.463-1.901,7.687-1.771,16.133,0.29C116.923,107.779,123.395,110.991,122.932,112.89z"/>
		<path fill="#EAE4D6" d="M129.716,104.034c-0.466,1.899-7.688,1.771-16.14-0.292c-8.444-2.062-14.917-5.273-14.452-7.172
			c0.463-1.899,7.686-1.771,16.132,0.29C123.707,98.921,130.177,102.132,129.716,104.034z"/>
		<path fill="#EAE4D6" d="M47.203,119.975c-0.464,1.9-7.687,1.771-16.138-0.292c-8.445-2.059-14.917-5.271-14.455-7.17
			c0.464-1.899,7.687-1.771,16.134,0.289C41.195,114.862,47.666,118.076,47.203,119.975z"/>
		<path fill="#EAE4D6" d="M124.919,109.554c-0.464,1.899-7.686,1.771-16.14-0.292c-8.444-2.061-14.917-5.273-14.452-7.17
			c0.463-1.901,7.685-1.773,16.132,0.288C118.912,104.442,125.382,107.652,124.919,109.554z"/>
		<path fill="#EAE4D6" d="M122.558,116.434c-0.462,1.899-7.685,1.77-16.136-0.29c-8.448-2.062-14.92-5.275-14.455-7.174
			c0.463-1.899,7.687-1.771,16.134,0.29C116.551,111.322,123.02,114.531,122.558,116.434z"/>
		<path fill="#EAE4D6" d="M-12.904,102.022c0.464,1.902,7.686,1.77,16.138-0.289c8.445-2.061,14.917-5.273,14.454-7.172
			c-0.464-1.901-7.686-1.771-16.133,0.29C-6.896,96.912-13.366,100.124-12.904,102.022z"/>
		<path fill="#E8DCC1" d="M-8.822,110.68c0.464,1.899,7.686,1.77,16.139-0.292c8.445-2.062,14.917-5.273,14.454-7.17
			c-0.464-1.901-7.686-1.773-16.133,0.289C-2.815,105.566-9.285,108.779-8.822,110.68z"/>
		<path fill="#EAE4D6" d="M-12.904,107.574c0.464,1.902,7.686,1.77,16.138-0.291c8.445-2.061,14.917-5.271,14.454-7.172
			c-0.464-1.899-7.686-1.77-16.133,0.291C-6.896,102.462-13.366,105.676-12.904,107.574z"/>
		<path fill="#FFFFFF" d="M-4.89,100.489c0.463,1.9,7.686,1.77,16.138-0.291c8.446-2.06,14.917-5.272,14.454-7.171
			c-0.464-1.902-7.686-1.77-16.134,0.291C1.117,95.377-5.354,98.591-4.89,100.489z"/>
		<path fill="#EAE4D6" d="M14.027,112.649c0.464,1.902,7.686,1.773,16.138-0.291c8.445-2.061,14.918-5.271,14.454-7.172
			c-0.465-1.899-7.688-1.77-16.133,0.291C20.035,107.538,13.565,110.751,14.027,112.649z"/>
		<path fill="#FFFFFF" d="M103.23,88.788c0,1.957-7.047,3.544-15.748,3.544c-8.693,0-15.74-1.587-15.74-3.544
			c0-1.954,7.047-3.542,15.74-3.542C96.183,85.246,103.23,86.833,103.23,88.788z"/>
		<path fill="#FFFFFF" d="M109.623,95.873c0,1.955-7.046,3.541-15.747,3.541c-8.693,0-15.741-1.586-15.741-3.541
			c0-1.956,7.047-3.542,15.741-3.542C102.576,92.332,109.623,93.917,109.623,95.873z"/>
		<path fill="#EAE4D6" d="M109.623,100.301c0,1.956-7.046,3.542-15.747,3.542c-8.693,0-15.741-1.586-15.741-3.542
			c0-1.957,7.047-3.544,15.741-3.544C102.576,96.757,109.623,98.345,109.623,100.301z"/>
		<path fill="#FFFFFF" d="M107.26,106.503c0,1.955-7.046,3.542-15.745,3.542c-8.695,0-15.743-1.587-15.743-3.542
			c0-1.958,7.048-3.542,15.743-3.542C100.214,102.96,107.26,104.545,107.26,106.503z"/>
		<path fill="#EDE7DD" d="M112.179,110.045c0,1.956-7.047,3.54-15.748,3.54c-8.693,0-15.741-1.584-15.741-3.54
			s7.048-3.542,15.741-3.542C105.132,106.503,112.179,108.09,112.179,110.045z"/>
		<path fill="#EAE4D6" d="M36.018,98.533c0,1.954-7.046,3.541-15.745,3.541c-8.695,0-15.743-1.587-15.743-3.541
			c0-1.957,7.048-3.543,15.743-3.543C28.97,94.99,36.018,96.576,36.018,98.533z"/>
		<path fill="#FFFFFF" d="M39.459,88.788c0,1.957-7.048,3.544-15.746,3.544c-8.694,0-15.742-1.587-15.742-3.544
			c0-1.954,7.048-3.542,15.742-3.542C32.411,85.246,39.459,86.833,39.459,88.788z"/>
		<path fill="#FFFFFF" d="M45.068,110.045c0,1.956-7.048,3.54-15.746,3.54c-8.695,0-15.744-1.584-15.744-3.54
			s7.048-3.542,15.744-3.542C38.021,106.503,45.068,108.09,45.068,110.045z"/>
	</g>
</g>
<ellipse fill="#D37248" cx="61.43" cy="103.884" rx="13.405" ry="5.381"/>
<text transform="matrix(1 0 0 1 77.1353 52.2734)" fill="#3F403F" font-family="'Roboto-Regular'" font-size="47.6534">Sushis</text>
<ellipse cx="61.43" cy="152.971" rx="38.178" ry="14.804"/>
<ellipse fill="#EF915E" cx="61.43" cy="103.884" rx="11.949" ry="4.415"/>
<g>
	<path fill="#EF915E" d="M241.155,96.925c0,7.781-6.308,14.089-14.089,14.089H124.346c-7.781,0-14.088-6.308-14.088-14.089l0,0
		c0-7.783,6.308-14.09,14.088-14.09h102.721C234.848,82.834,241.155,89.142,241.155,96.925L241.155,96.925z"/>
	<g>
		<defs>
			<path id="SVGID_3_" d="M241.155,96.925c0,7.781-6.308,14.089-14.089,14.089H124.346c-7.781,0-14.088-6.308-14.088-14.089l0,0
				c0-7.783,6.308-14.09,14.088-14.09h102.721C234.848,82.834,241.155,89.142,241.155,96.925L241.155,96.925z"/>
		</defs>
		<clipPath id="SVGID_4_">
			<use xlink:href="#SVGID_3_"  overflow="visible"/>
		</clipPath>
		<rect x="110.257" y="64.657" clip-path="url(#SVGID_4_)" fill="#D37248" width="7.997" height="57.136"/>
		<rect x="126.251" y="64.657" clip-path="url(#SVGID_4_)" fill="#D37248" width="7.997" height="57.136"/>
		<rect x="142.245" y="64.657" clip-path="url(#SVGID_4_)" fill="#D37248" width="7.998" height="57.136"/>
		<rect x="158.305" y="64.657" clip-path="url(#SVGID_4_)" fill="#D37248" width="7.997" height="57.136"/>
		<rect x="174.299" y="64.657" clip-path="url(#SVGID_4_)" fill="#D37248" width="7.996" height="57.136"/>
		<rect x="190.292" y="64.657" clip-path="url(#SVGID_4_)" fill="#D37248" width="7.997" height="57.136"/>
		<rect x="206.094" y="64.657" clip-path="url(#SVGID_4_)" fill="#D37248" width="7.996" height="57.136"/>
		<rect x="222.087" y="64.657" clip-path="url(#SVGID_4_)" fill="#D37248" width="7.997" height="57.136"/>
		<rect x="238.081" y="64.657" clip-path="url(#SVGID_4_)" fill="#D37248" width="7.997" height="57.136"/>
	</g>
	<g>
		<defs>
			<path id="SVGID_5_" d="M119.09,111.014h113.236c0,0-4.156,34.283-59.217,34.283C118.05,145.296,119.09,111.014,119.09,111.014z"
				/>
		</defs>
		<clipPath id="SVGID_6_">
			<use xlink:href="#SVGID_5_"  overflow="visible"/>
		</clipPath>
		<g clip-path="url(#SVGID_6_)">
			<path fill="#EAE4D6" d="M163.888,126.393c0,2.513-9.05,4.55-20.218,4.55c-11.164,0-20.212-2.038-20.212-4.55
				c0-2.509,9.049-4.547,20.212-4.547C154.838,121.845,163.888,123.883,163.888,126.393z"/>
			<path fill="#EAE4D6" d="M149.464,110.47c0,2.514-9.047,4.549-20.215,4.549c-11.164,0-20.214-2.035-20.214-4.549
				c0-2.509,9.05-4.545,20.214-4.545C140.417,105.923,149.464,107.96,149.464,110.47z"/>
			<path fill="#FFFFFF" d="M163.888,121.845c0,2.51-9.05,4.547-20.218,4.547c-11.164,0-20.212-2.038-20.212-4.547
				c0-2.509,9.049-4.547,20.212-4.547C154.838,117.298,163.888,119.336,163.888,121.845z"/>
			<path fill="#FFFFFF" d="M169.68,110.47c0,2.514-9.051,4.549-20.217,4.549c-11.164,0-20.214-2.035-20.214-4.549
				c0-2.509,9.05-4.545,20.214-4.545C160.629,105.923,169.68,107.96,169.68,110.47z"/>
			<path fill="#EDE7DD" d="M176.022,117.298c0,2.51-9.049,4.547-20.221,4.547c-11.16,0-20.21-2.038-20.21-4.547
				c0-2.512,9.05-4.548,20.21-4.548C166.974,112.75,176.022,114.786,176.022,117.298z"/>
			<path fill="#EAE4D6" d="M184.101,105.923c0,2.511-9.049,4.547-20.221,4.547c-11.161,0-20.21-2.036-20.21-4.547
				c0-2.508,9.049-4.549,20.21-4.549C175.052,101.374,184.101,103.415,184.101,105.923z"/>
			<path fill="#EDE7DD" d="M196.242,110.47c0,2.514-9.052,4.549-20.22,4.549c-11.165,0-20.214-2.035-20.214-4.549
				c0-2.509,9.049-4.545,20.214-4.545C187.19,105.923,196.242,107.96,196.242,110.47z"/>
			<path fill="#FFFFFF" d="M196.236,117.298c0,2.51-9.048,4.547-20.218,4.547c-11.165,0-20.217-2.038-20.217-4.547
				c0-2.512,9.052-4.548,20.217-4.548C187.188,112.75,196.236,114.786,196.236,117.298z"/>
			<path fill="#FFFFFF" d="M176.022,121.845c0,2.51-9.049,4.547-20.221,4.547c-11.16,0-20.21-2.038-20.21-4.547
				c0-2.509,9.05-4.547,20.21-4.547C166.974,117.298,176.022,119.336,176.022,121.845z"/>
			<path fill="#EDE7DD" d="M189.893,121.845c0,2.51-9.049,4.547-20.219,4.547c-11.163,0-20.211-2.038-20.211-4.547
				c0-2.509,9.048-4.547,20.211-4.547C180.846,117.298,189.893,119.336,189.893,121.845z"/>
			<path fill="#EAE4D6" d="M189.893,130.943c0,2.512-9.049,4.548-20.219,4.548c-11.163,0-20.211-2.036-20.211-4.548
				c0-2.511,9.048-4.55,20.211-4.55C180.846,126.393,189.893,128.432,189.893,130.943z"/>
			<path fill="#EDE7DD" d="M188.504,136.377c0,2.516-9.05,4.55-20.22,4.55c-11.164,0-20.215-2.034-20.215-4.55
				c0-2.509,9.051-4.546,20.215-4.546C179.454,131.831,188.504,133.871,188.504,136.377z"/>
			<path fill="#EAE4D6" d="M216.45,130.943c0,2.512-9.052,4.548-20.22,4.548c-11.165,0-20.212-2.036-20.212-4.548
				c0-2.511,9.047-4.55,20.212-4.55C207.398,126.393,216.45,128.432,216.45,130.943z"/>
			<path fill="#FFFFFF" d="M224.53,135.491c0,2.509-9.048,4.547-20.218,4.547c-11.162,0-20.212-2.038-20.212-4.547
				c0-2.514,9.05-4.548,20.212-4.548C215.482,130.943,224.53,132.978,224.53,135.491z"/>
			<path fill="#EAE4D6" d="M196.242,121.845c0,2.51-9.052,4.547-20.22,4.547c-11.165,0-20.214-2.038-20.214-4.547
				c0-2.509,9.049-4.547,20.214-4.547C187.19,117.298,196.242,119.336,196.242,121.845z"/>
			<path fill="#FFFFFF" d="M189.896,128.102c0,2.511-9.05,4.548-20.219,4.548c-11.164,0-20.212-2.037-20.212-4.548
				c0-2.513,9.048-4.547,20.212-4.547C180.846,123.553,189.896,125.589,189.896,128.102z"/>
			<path fill="#EDE7DD" d="M221.257,122.982c0,2.511-9.049,4.547-20.219,4.547c-11.164,0-20.213-2.036-20.213-4.547
				c0-2.513,9.049-4.55,20.213-4.55C212.208,118.432,221.257,120.47,221.257,122.982z"/>
			<path fill="#EAE4D6" d="M224.53,117.298c0,2.51-9.048,4.547-20.218,4.547c-11.162,0-20.212-2.038-20.212-4.547
				c0-2.512,9.05-4.548,20.212-4.548C215.482,112.75,224.53,114.786,224.53,117.298z"/>
			<path fill="#EAE4D6" d="M226.428,110.47c0,2.514-9.049,4.549-20.221,4.549c-11.161,0-20.213-2.035-20.213-4.549
				c0-2.509,9.052-4.545,20.213-4.545C217.379,105.923,226.428,107.96,226.428,110.47z"/>
			<path fill="#EDE7DD" d="M216.453,115.019c0,2.514-9.05,4.55-20.217,4.55c-11.165,0-20.214-2.036-20.214-4.55
				c0-2.511,9.049-4.549,20.214-4.549C207.403,110.47,216.453,112.507,216.453,115.019z"/>
			<path fill="#FFFFFF" d="M213.042,105.923c0,2.511-9.05,4.547-20.219,4.547c-11.161,0-20.213-2.036-20.213-4.547
				c0-2.508,9.052-4.549,20.213-4.549C203.992,101.374,213.042,103.415,213.042,105.923z"/>
			<path fill="#FFFFFF" d="M244.436,136.496c0.44,2.47-8.109,6.062-19.107,8.021c-10.988,1.958-20.254,1.535-20.696-0.935
				c-0.439-2.471,8.112-6.064,19.103-8.02C234.732,133.6,243.996,134.022,244.436,136.496z"/>
			<path fill="#EDE7DD" d="M218.186,143.231c-0.152,2.507-9.309,3.991-20.458,3.315c-11.143-0.676-20.052-3.253-19.9-5.761
				c0.151-2.505,9.309-3.993,20.451-3.32C209.427,138.141,218.336,140.725,218.186,143.231z"/>
			<path fill="#FFFFFF" d="M192.537,138.606c0.426,2.475-8.152,6.005-19.164,7.885c-11,1.879-20.267,1.395-20.688-1.082
				c-0.422-2.473,8.155-6.005,19.16-7.881C182.854,135.645,192.117,136.134,192.537,138.606z"/>
			<path fill="#EAE4D6" d="M169.505,142.663c-0.326,2.488-9.562,3.335-20.639,1.883c-11.066-1.449-19.775-4.638-19.45-7.13
				c0.324-2.489,9.563-3.337,20.632-1.89C161.126,136.978,169.83,140.174,169.505,142.663z"/>
			<path fill="#FFFFFF" d="M146.791,140.084c-0.324,2.49-9.562,3.335-20.638,1.884c-11.069-1.447-19.776-4.644-19.451-7.133
				c0.326-2.49,9.566-3.334,20.634-1.886C138.409,134.397,147.118,137.599,146.791,140.084z"/>
			<path fill="#FFFFFF" d="M142.055,128.71c-0.323,2.491-9.562,3.334-20.634,1.885c-11.069-1.449-19.78-4.642-19.451-7.131
				c0.324-2.492,9.563-3.337,20.632-1.889C133.676,123.026,142.383,126.22,142.055,128.71z"/>
			<path fill="#EAE4D6" d="M258.078,115.264c-0.594,2.441-9.868,2.271-20.722-0.376c-10.844-2.646-19.155-6.768-18.559-9.21
				c0.594-2.438,9.871-2.272,20.717,0.373C250.365,108.699,258.671,112.824,258.078,115.264z"/>
			<path fill="#EAE4D6" d="M258.558,135.731c-0.598,2.442-9.866,2.274-20.722-0.371c-10.842-2.645-19.155-6.771-18.557-9.208
				c0.594-2.441,9.867-2.275,20.715,0.373C250.842,129.171,259.151,133.294,258.558,135.731z"/>
			<path fill="#EAE4D6" d="M267.27,124.362c-0.599,2.438-9.872,2.272-20.725-0.376c-10.843-2.647-19.152-6.77-18.557-9.208
				c0.595-2.439,9.869-2.275,20.713,0.372C259.552,117.797,267.861,121.92,267.27,124.362z"/>
			<path fill="#EAE4D6" d="M161.321,144.831c-0.594,2.439-9.868,2.273-20.72-0.376c-10.844-2.643-19.153-6.769-18.56-9.207
				c0.597-2.439,9.871-2.275,20.716,0.372C153.606,138.264,161.917,142.391,161.321,144.831z"/>
			<path fill="#EAE4D6" d="M261.11,131.449c-0.597,2.438-9.87,2.272-20.724-0.375c-10.842-2.645-19.153-6.771-18.555-9.208
				c0.594-2.44,9.866-2.276,20.711,0.37C253.396,124.886,261.704,129.007,261.11,131.449z"/>
			<path fill="#EAE4D6" d="M258.078,140.284c-0.594,2.438-9.868,2.271-20.722-0.375c-10.844-2.646-19.155-6.772-18.559-9.21
				c0.594-2.439,9.871-2.275,20.717,0.371C250.365,133.72,258.671,137.841,258.078,140.284z"/>
			<path fill="#EAE4D6" d="M84.146,121.779c0.597,2.442,9.87,2.273,20.722-0.372c10.842-2.645,19.153-6.771,18.558-9.208
				c-0.595-2.441-9.868-2.275-20.712,0.373C91.859,115.218,83.552,119.34,84.146,121.779z"/>
			<path fill="#E8DCC1" d="M89.386,132.895c0.598,2.438,9.869,2.272,20.724-0.376c10.843-2.646,19.153-6.77,18.557-9.207
				c-0.593-2.439-9.867-2.276-20.713,0.371C97.1,126.33,88.792,130.454,89.386,132.895z"/>
			<path fill="#EAE4D6" d="M84.146,128.906c0.597,2.442,9.87,2.274,20.722-0.373c10.842-2.645,19.153-6.769,18.558-9.208
				c-0.595-2.439-9.868-2.273-20.712,0.373C91.859,122.343,83.552,126.47,84.146,128.906z"/>
			<path fill="#FFFFFF" d="M94.435,119.809c0.594,2.441,9.867,2.272,20.722-0.373c10.844-2.644,19.152-6.769,18.558-9.207
				c-0.596-2.442-9.867-2.273-20.716,0.373C102.149,113.246,93.841,117.373,94.435,119.809z"/>
			<path fill="#EAE4D6" d="M118.726,135.423c0.595,2.442,9.866,2.276,20.721-0.373c10.842-2.645,19.154-6.769,18.558-9.208
				c-0.595-2.44-9.869-2.274-20.713,0.373C126.438,128.861,118.132,132.986,118.726,135.423z"/>
			<path fill="#FFFFFF" d="M233.262,104.785c0,2.514-9.05,4.551-20.22,4.551c-11.161,0-20.211-2.038-20.211-4.551
				c0-2.508,9.05-4.545,20.211-4.545C224.212,100.239,233.262,102.277,233.262,104.785z"/>
			<path fill="#FFFFFF" d="M241.469,113.883c0,2.511-9.047,4.547-20.221,4.547c-11.16,0-20.209-2.036-20.209-4.547
				c0-2.511,9.049-4.547,20.209-4.547C232.422,109.336,241.469,111.373,241.469,113.883z"/>
			<path fill="#EAE4D6" d="M241.469,119.569c0,2.511-9.047,4.547-20.221,4.547c-11.16,0-20.209-2.036-20.209-4.547
				c0-2.513,9.049-4.55,20.209-4.55C232.422,115.019,241.469,117.056,241.469,119.569z"/>
			<path fill="#FFFFFF" d="M238.437,127.531c0,2.511-9.048,4.55-20.217,4.55c-11.165,0-20.215-2.039-20.215-4.55
				c0-2.513,9.05-4.546,20.215-4.546C229.389,122.982,238.437,125.018,238.437,127.531z"/>
			<path fill="#EDE7DD" d="M244.751,132.081c0,2.509-9.049,4.544-20.221,4.544c-11.16,0-20.21-2.035-20.21-4.544
				c0-2.511,9.05-4.55,20.21-4.55C235.702,127.531,244.751,129.57,244.751,132.081z"/>
			<path fill="#EAE4D6" d="M146.961,117.298c0,2.51-9.048,4.547-20.217,4.547c-11.164,0-20.214-2.038-20.214-4.547
				c0-2.512,9.05-4.548,20.214-4.548C137.913,112.75,146.961,114.786,146.961,117.298z"/>
			<path fill="#FFFFFF" d="M151.379,104.785c0,2.514-9.05,4.551-20.217,4.551c-11.164,0-20.212-2.038-20.212-4.551
				c0-2.508,9.049-4.545,20.212-4.545C142.329,100.239,151.379,102.277,151.379,104.785z"/>
			<path fill="#FFFFFF" d="M158.582,132.081c0,2.509-9.049,4.544-20.217,4.544c-11.164,0-20.214-2.035-20.214-4.544
				c0-2.511,9.05-4.55,20.214-4.55C149.533,127.531,158.582,129.57,158.582,132.081z"/>
		</g>
	</g>
	<path fill="#BCBCBC" d="M230.428,111.557c-0.715,2.892-2.762,8.966-8.222,15.049c-10.061,11.208-27.038,17.132-49.097,17.132
		c-20.023,0-34.725-4.663-43.694-13.86c-6.928-7.101-8.385-15.062-8.689-18.321H230.428 M232.326,109.998H119.09
		c0,0-1.04,35.298,54.02,35.298C228.17,145.296,232.326,109.998,232.326,109.998L232.326,109.998z"/>
</g>
<g>
	<path fill="#EF915E" d="M276.75,128.155c0,7.781-6.308,14.089-14.088,14.089H159.94c-7.781,0-14.088-6.308-14.088-14.089l0,0
		c0-7.782,6.307-14.09,14.088-14.09h102.722C270.442,114.065,276.75,120.373,276.75,128.155L276.75,128.155z"/>
	<g>
		<defs>
			<path id="SVGID_7_" d="M276.75,128.155c0,7.781-6.308,14.089-14.088,14.089H159.94c-7.781,0-14.088-6.308-14.088-14.089l0,0
				c0-7.782,6.307-14.09,14.088-14.09h102.722C270.442,114.065,276.75,120.373,276.75,128.155L276.75,128.155z"/>
		</defs>
		<clipPath id="SVGID_8_">
			<use xlink:href="#SVGID_7_"  overflow="visible"/>
		</clipPath>
		<rect x="145.852" y="95.888" clip-path="url(#SVGID_8_)" fill="#D37248" width="7.997" height="57.136"/>
		<rect x="161.846" y="95.888" clip-path="url(#SVGID_8_)" fill="#D37248" width="7.997" height="57.136"/>
		<rect x="177.84" y="95.888" clip-path="url(#SVGID_8_)" fill="#D37248" width="7.997" height="57.136"/>
		<rect x="193.899" y="95.888" clip-path="url(#SVGID_8_)" fill="#D37248" width="7.997" height="57.136"/>
		<rect x="209.894" y="95.888" clip-path="url(#SVGID_8_)" fill="#D37248" width="7.996" height="57.136"/>
		<rect x="225.887" y="95.888" clip-path="url(#SVGID_8_)" fill="#D37248" width="7.997" height="57.136"/>
		<rect x="241.688" y="95.888" clip-path="url(#SVGID_8_)" fill="#D37248" width="7.996" height="57.136"/>
		<rect x="257.682" y="95.888" clip-path="url(#SVGID_8_)" fill="#D37248" width="7.997" height="57.136"/>
		<rect x="273.676" y="95.888" clip-path="url(#SVGID_8_)" fill="#D37248" width="7.997" height="57.136"/>
	</g>
	<g>
		<defs>
			<path id="SVGID_9_" d="M154.685,142.244h113.236c0,0-4.156,34.282-59.216,34.282
				C153.645,176.526,154.685,142.244,154.685,142.244z"/>
		</defs>
		<clipPath id="SVGID_10_">
			<use xlink:href="#SVGID_9_"  overflow="visible"/>
		</clipPath>
		<g clip-path="url(#SVGID_10_)">
			<path fill="#EAE4D6" d="M199.482,157.623c0,2.513-9.05,4.55-20.219,4.55c-11.163,0-20.212-2.037-20.212-4.55
				c0-2.51,9.049-4.547,20.212-4.547C190.433,153.076,199.482,155.113,199.482,157.623z"/>
			<path fill="#EAE4D6" d="M185.059,141.701c0,2.514-9.047,4.549-20.215,4.549c-11.163,0-20.214-2.035-20.214-4.549
				c0-2.509,9.051-4.545,20.214-4.545C176.012,137.154,185.059,139.191,185.059,141.701z"/>
			<path fill="#FFFFFF" d="M199.482,153.076c0,2.51-9.05,4.547-20.219,4.547c-11.163,0-20.212-2.037-20.212-4.547
				s9.049-4.547,20.212-4.547C190.433,148.529,199.482,150.566,199.482,153.076z"/>
			<path fill="#FFFFFF" d="M205.275,141.701c0,2.514-9.051,4.549-20.218,4.549c-11.164,0-20.214-2.035-20.214-4.549
				c0-2.509,9.05-4.545,20.214-4.545C196.225,137.154,205.275,139.191,205.275,141.701z"/>
			<path fill="#EDE7DD" d="M211.617,148.529c0,2.51-9.049,4.547-20.219,4.547c-11.162,0-20.212-2.037-20.212-4.547
				c0-2.512,9.05-4.548,20.212-4.548C202.568,143.98,211.617,146.017,211.617,148.529z"/>
			<path fill="#EAE4D6" d="M219.695,137.154c0,2.511-9.049,4.547-20.22,4.547c-11.161,0-20.212-2.036-20.212-4.547
				c0-2.508,9.051-4.549,20.212-4.549C210.646,132.605,219.695,134.646,219.695,137.154z"/>
			<path fill="#EDE7DD" d="M231.837,141.701c0,2.514-9.051,4.549-20.22,4.549c-11.165,0-20.214-2.035-20.214-4.549
				c0-2.509,9.049-4.545,20.214-4.545C222.786,137.154,231.837,139.191,231.837,141.701z"/>
			<path fill="#FFFFFF" d="M231.832,148.529c0,2.51-9.049,4.547-20.219,4.547c-11.165,0-20.215-2.037-20.215-4.547
				c0-2.512,9.05-4.548,20.215-4.548C222.783,143.98,231.832,146.017,231.832,148.529z"/>
			<path fill="#FFFFFF" d="M211.617,153.076c0,2.51-9.049,4.547-20.219,4.547c-11.162,0-20.212-2.037-20.212-4.547
				s9.05-4.547,20.212-4.547C202.568,148.529,211.617,150.566,211.617,153.076z"/>
			<path fill="#EDE7DD" d="M225.487,153.076c0,2.51-9.049,4.547-20.219,4.547c-11.162,0-20.211-2.037-20.211-4.547
				s9.049-4.547,20.211-4.547C216.44,148.529,225.487,150.566,225.487,153.076z"/>
			<path fill="#EAE4D6" d="M225.487,162.173c0,2.514-9.049,4.55-20.219,4.55c-11.162,0-20.211-2.036-20.211-4.55
				c0-2.511,9.049-4.55,20.211-4.55C216.44,157.623,225.487,159.662,225.487,162.173z"/>
			<path fill="#EDE7DD" d="M224.099,167.607c0,2.516-9.05,4.55-20.22,4.55c-11.164,0-20.215-2.034-20.215-4.55
				c0-2.51,9.051-4.545,20.215-4.545C215.049,163.062,224.099,165.102,224.099,167.607z"/>
			<path fill="#EAE4D6" d="M252.045,162.173c0,2.514-9.052,4.55-20.22,4.55c-11.165,0-20.212-2.036-20.212-4.55
				c0-2.511,9.047-4.55,20.212-4.55C242.993,157.623,252.045,159.662,252.045,162.173z"/>
			<path fill="#FFFFFF" d="M260.126,166.723c0,2.508-9.049,4.545-20.219,4.545c-11.162,0-20.212-2.037-20.212-4.545
				c0-2.516,9.05-4.55,20.212-4.55C251.077,162.173,260.126,164.207,260.126,166.723z"/>
			<path fill="#EAE4D6" d="M231.837,153.076c0,2.51-9.051,4.547-20.22,4.547c-11.165,0-20.214-2.037-20.214-4.547
				s9.049-4.547,20.214-4.547C222.786,148.529,231.837,150.566,231.837,153.076z"/>
			<path fill="#FFFFFF" d="M225.49,159.332c0,2.511-9.05,4.548-20.219,4.548c-11.164,0-20.213-2.037-20.213-4.548
				c0-2.512,9.049-4.547,20.213-4.547C216.44,154.783,225.49,156.82,225.49,159.332z"/>
			<path fill="#EDE7DD" d="M256.852,154.213c0,2.512-9.049,4.547-20.219,4.547c-11.164,0-20.213-2.035-20.213-4.547
				c0-2.513,9.049-4.55,20.213-4.55C247.803,149.663,256.852,151.7,256.852,154.213z"/>
			<path fill="#EAE4D6" d="M260.126,148.529c0,2.51-9.049,4.547-20.219,4.547c-11.162,0-20.212-2.037-20.212-4.547
				c0-2.512,9.05-4.548,20.212-4.548C251.077,143.98,260.126,146.017,260.126,148.529z"/>
			<path fill="#EAE4D6" d="M262.022,141.701c0,2.514-9.049,4.549-20.221,4.549c-11.161,0-20.212-2.035-20.212-4.549
				c0-2.509,9.051-4.545,20.212-4.545C252.974,137.154,262.022,139.191,262.022,141.701z"/>
			<path fill="#EDE7DD" d="M252.048,146.25c0,2.514-9.05,4.549-20.216,4.549s-20.215-2.035-20.215-4.549
				c0-2.511,9.049-4.549,20.215-4.549S252.048,143.738,252.048,146.25z"/>
			<path fill="#FFFFFF" d="M248.637,137.154c0,2.511-9.05,4.547-20.219,4.547c-11.161,0-20.213-2.036-20.213-4.547
				c0-2.508,9.052-4.549,20.213-4.549C239.587,132.605,248.637,134.646,248.637,137.154z"/>
			<path fill="#FFFFFF" d="M280.03,167.727c0.44,2.47-8.109,6.061-19.107,8.021c-10.988,1.96-20.254,1.535-20.696-0.935
				c-0.439-2.471,8.113-6.063,19.103-8.019C270.327,164.831,279.591,165.254,280.03,167.727z"/>
			<path fill="#EDE7DD" d="M253.78,174.462c-0.152,2.508-9.309,3.991-20.458,3.316c-11.142-0.677-20.052-3.255-19.9-5.763
				c0.151-2.504,9.309-3.993,20.451-3.319C245.022,169.371,253.931,171.956,253.78,174.462z"/>
			<path fill="#FFFFFF" d="M228.133,169.838c0.425,2.473-8.153,6.003-19.165,7.883c-11,1.879-20.267,1.396-20.688-1.082
				c-0.422-2.474,8.155-6.006,19.16-7.881C218.448,166.876,227.712,167.364,228.133,169.838z"/>
			<path fill="#EAE4D6" d="M205.1,173.895c-0.326,2.487-9.562,3.333-20.639,1.882c-11.065-1.448-19.775-4.639-19.45-7.13
				c0.325-2.489,9.563-3.336,20.633-1.89C196.721,168.208,205.425,171.403,205.1,173.895z"/>
			<path fill="#FFFFFF" d="M182.386,171.313c-0.325,2.489-9.562,3.337-20.637,1.884c-11.07-1.446-19.778-4.642-19.452-7.132
				c0.326-2.489,9.566-3.334,20.635-1.886C174.004,165.627,182.713,168.83,182.386,171.313z"/>
			<path fill="#FFFFFF" d="M177.649,159.941c-0.322,2.49-9.561,3.333-20.634,1.885c-11.069-1.448-19.78-4.641-19.451-7.131
				c0.324-2.491,9.563-3.337,20.632-1.889C169.271,154.257,177.979,157.451,177.649,159.941z"/>
			<path fill="#EAE4D6" d="M293.673,146.495c-0.594,2.441-9.868,2.27-20.721-0.376c-10.845-2.646-19.156-6.768-18.559-9.21
				c0.593-2.438,9.87-2.272,20.716,0.373C285.96,139.93,294.267,144.055,293.673,146.495z"/>
			<path fill="#EAE4D6" d="M294.152,166.962c-0.598,2.442-9.866,2.273-20.722-0.371c-10.842-2.646-19.155-6.771-18.557-9.208
				c0.594-2.441,9.867-2.275,20.715,0.373C286.437,160.402,294.746,164.523,294.152,166.962z"/>
			<path fill="#EAE4D6" d="M302.864,155.594c-0.599,2.438-9.872,2.271-20.724-0.377c-10.844-2.647-19.153-6.77-18.557-9.208
				c0.594-2.439,9.868-2.275,20.712,0.371C295.146,149.028,303.456,153.15,302.864,155.594z"/>
			<path fill="#EAE4D6" d="M196.916,176.061c-0.594,2.439-9.868,2.273-20.72-0.375c-10.844-2.644-19.153-6.77-18.56-9.206
				c0.597-2.44,9.87-2.276,20.717,0.371C189.202,169.493,197.512,173.622,196.916,176.061z"/>
			<path fill="#EAE4D6" d="M296.705,162.68c-0.596,2.438-9.87,2.272-20.724-0.376c-10.841-2.644-19.153-6.771-18.555-9.206
				c0.594-2.441,9.866-2.277,20.711,0.369C288.99,156.117,297.299,160.238,296.705,162.68z"/>
			<path fill="#EAE4D6" d="M293.673,171.513c-0.594,2.438-9.868,2.272-20.721-0.373c-10.845-2.646-19.156-6.771-18.559-9.21
				c0.593-2.439,9.87-2.275,20.716,0.371C285.96,164.95,294.267,169.071,293.673,171.513z"/>
			<path fill="#EAE4D6" d="M119.741,153.009c0.597,2.442,9.869,2.274,20.721-0.371c10.843-2.645,19.153-6.77,18.558-9.208
				c-0.595-2.441-9.868-2.275-20.712,0.373C127.454,146.449,119.148,150.571,119.741,153.009z"/>
			<path fill="#E8DCC1" d="M124.98,164.125c0.598,2.438,9.869,2.271,20.724-0.375c10.843-2.646,19.153-6.771,18.558-9.207
				c-0.594-2.439-9.868-2.276-20.714,0.371C132.695,157.561,124.386,161.685,124.98,164.125z"/>
			<path fill="#EAE4D6" d="M119.741,160.137c0.597,2.442,9.869,2.274,20.721-0.373c10.843-2.645,19.153-6.769,18.558-9.207
				c-0.595-2.44-9.868-2.274-20.712,0.372C127.454,153.574,119.148,157.701,119.741,160.137z"/>
			<path fill="#FFFFFF" d="M130.03,151.04c0.593,2.44,9.867,2.271,20.722-0.373c10.844-2.644,19.152-6.769,18.559-9.207
				c-0.597-2.443-9.867-2.273-20.716,0.373C137.744,144.477,129.435,148.604,130.03,151.04z"/>
			<path fill="#EAE4D6" d="M154.32,166.653c0.596,2.441,9.866,2.276,20.721-0.374c10.843-2.645,19.154-6.768,18.559-9.207
				c-0.595-2.439-9.869-2.273-20.713,0.373C162.033,160.092,153.727,164.217,154.32,166.653z"/>
			<path fill="#FFFFFF" d="M268.856,136.016c0,2.514-9.05,4.551-20.22,4.551c-11.161,0-20.211-2.038-20.211-4.551
				c0-2.508,9.05-4.546,20.211-4.546C259.807,131.47,268.856,133.507,268.856,136.016z"/>
			<path fill="#FFFFFF" d="M277.063,145.114c0,2.511-9.047,4.547-20.221,4.547c-11.16,0-20.208-2.036-20.208-4.547
				s9.048-4.547,20.208-4.547C268.017,140.567,277.063,142.604,277.063,145.114z"/>
			<path fill="#EAE4D6" d="M277.063,150.799c0,2.512-9.047,4.548-20.221,4.548c-11.16,0-20.208-2.036-20.208-4.548
				s9.048-4.549,20.208-4.549C268.017,146.25,277.063,148.287,277.063,150.799z"/>
			<path fill="#FFFFFF" d="M274.031,158.762c0,2.511-9.048,4.549-20.217,4.549c-11.165,0-20.215-2.038-20.215-4.549
				c0-2.513,9.05-4.546,20.215-4.546C264.983,154.213,274.031,156.249,274.031,158.762z"/>
			<path fill="#EDE7DD" d="M280.346,163.311c0,2.51-9.049,4.544-20.22,4.544c-11.161,0-20.211-2.034-20.211-4.544
				c0-2.509,9.05-4.549,20.211-4.549C271.297,158.762,280.346,160.802,280.346,163.311z"/>
			<path fill="#EAE4D6" d="M182.556,148.529c0,2.51-9.048,4.547-20.217,4.547c-11.163,0-20.214-2.037-20.214-4.547
				c0-2.512,9.051-4.548,20.214-4.548C173.508,143.98,182.556,146.017,182.556,148.529z"/>
			<path fill="#FFFFFF" d="M186.974,136.016c0,2.514-9.05,4.551-20.217,4.551c-11.164,0-20.212-2.038-20.212-4.551
				c0-2.508,9.048-4.546,20.212-4.546C177.924,131.47,186.974,133.507,186.974,136.016z"/>
			<path fill="#FFFFFF" d="M194.177,163.311c0,2.51-9.049,4.544-20.217,4.544c-11.165,0-20.215-2.034-20.215-4.544
				c0-2.509,9.05-4.549,20.215-4.549C185.128,158.762,194.177,160.802,194.177,163.311z"/>
		</g>
	</g>
	<path fill="#BCBCBC" d="M266.022,142.787c-0.715,2.892-2.762,8.967-8.222,15.049c-10.061,11.208-27.038,17.133-49.096,17.133
		c-20.024,0-34.727-4.663-43.695-13.86c-6.928-7.101-8.386-15.063-8.689-18.321H266.022 M267.921,141.229H154.685
		c0,0-1.04,35.297,54.021,35.297C263.765,176.526,267.921,141.229,267.921,141.229L267.921,141.229z"/>
</g>
</svg>
