<?xml version="1.0" encoding="utf-8"?>
<!-- Generator: Adobe Illustrator 16.0.0, SVG Export Plug-In . SVG Version: 6.00 Build 0)  -->
<!DOCTYPE svg PUBLIC "-//W3C//DTD SVG 1.1//EN" "http://www.w3.org/Graphics/SVG/1.1/DTD/svg11.dtd">
<svg version="1.1" id="Layer_1" xmlns="http://www.w3.org/2000/svg" xmlns:xlink="http://www.w3.org/1999/xlink" x="0px" y="0px"
	 width="300px" height="300px" viewBox="0 0 300 300" enable-background="new 0 0 300 300" xml:space="preserve">
<path fill="#D6D6D6" d="M279.508,130.541c0,26.256-57.982,46.312-129.508,46.312c-71.526,0-129.508-20.06-129.508-46.312
	S78.474,83,150,83C221.525,83,279.508,104.285,279.508,130.541z"/>
<g>
	<path fill="#EAE4D6" d="M96.902,130.919c0,1.584-5.704,2.868-12.742,2.868c-7.035,0-12.739-1.284-12.739-2.868
		c0-1.581,5.703-2.866,12.739-2.866C91.198,128.054,96.902,129.338,96.902,130.919z"/>
	<path fill="#EAE4D6" d="M87.813,120.884c0,1.584-5.703,2.867-12.742,2.867c-7.036,0-12.738-1.282-12.738-2.867
		c0-1.582,5.703-2.865,12.738-2.865C82.11,118.019,87.813,119.304,87.813,120.884z"/>
	<path fill="#FFFFFF" d="M96.902,128.054c0,1.581-5.704,2.866-12.742,2.866c-7.035,0-12.739-1.284-12.739-2.866
		c0-1.582,5.703-2.865,12.739-2.865C91.198,125.188,96.902,126.472,96.902,128.054z"/>
	<path fill="#FFFFFF" d="M100.551,120.884c0,1.584-5.703,2.867-12.741,2.867c-7.036,0-12.738-1.282-12.738-2.867
		c0-1.582,5.703-2.865,12.738-2.865C94.849,118.019,100.551,119.304,100.551,120.884z"/>
	<path fill="#EDE7DD" d="M104.549,125.188c0,1.581-5.704,2.865-12.743,2.865c-7.035,0-12.738-1.285-12.738-2.865
		c0-1.584,5.703-2.867,12.738-2.867C98.846,122.322,104.549,123.604,104.549,125.188z"/>
	<path fill="#EAE4D6" d="M109.639,118.019c0,1.583-5.703,2.865-12.742,2.865c-7.035,0-12.738-1.283-12.738-2.865
		c0-1.581,5.703-2.867,12.738-2.867C103.937,115.152,109.639,116.439,109.639,118.019z"/>
	<path fill="#EDE7DD" d="M117.291,120.884c0,1.584-5.703,2.867-12.743,2.867c-7.035,0-12.738-1.282-12.738-2.867
		c0-1.582,5.703-2.865,12.738-2.865C111.587,118.019,117.291,119.304,117.291,120.884z"/>
	<path fill="#FFFFFF" d="M117.288,125.188c0,1.581-5.702,2.865-12.741,2.865c-7.037,0-12.74-1.285-12.74-2.865
		c0-1.584,5.703-2.867,12.74-2.867C111.585,122.322,117.288,123.604,117.288,125.188z"/>
	<path fill="#FFFFFF" d="M104.549,128.054c0,1.581-5.704,2.866-12.743,2.866c-7.035,0-12.738-1.284-12.738-2.866
		c0-1.582,5.703-2.865,12.738-2.865C98.846,125.188,104.549,126.472,104.549,128.054z"/>
	<path fill="#EDE7DD" d="M113.29,128.054c0,1.581-5.703,2.866-12.742,2.866c-7.035,0-12.737-1.284-12.737-2.866
		c0-1.582,5.702-2.865,12.737-2.865C107.587,125.188,113.29,126.472,113.29,128.054z"/>
	<path fill="#EAE4D6" d="M113.29,133.787c0,1.584-5.703,2.867-12.742,2.867c-7.035,0-12.737-1.283-12.737-2.867
		c0-1.583,5.702-2.868,12.737-2.868C107.587,130.919,113.29,132.205,113.29,133.787z"/>
	<path fill="#EDE7DD" d="M112.414,137.211c0,1.586-5.702,2.868-12.742,2.868c-7.036,0-12.739-1.282-12.739-2.868
		c0-1.581,5.703-2.863,12.739-2.863C106.711,134.348,112.414,135.631,112.414,137.211z"/>
	<path fill="#EAE4D6" d="M130.026,133.787c0,1.584-5.704,2.867-12.742,2.867c-7.035,0-12.737-1.283-12.737-2.867
		c0-1.583,5.702-2.868,12.737-2.868C124.322,130.919,130.026,132.205,130.026,133.787z"/>
	<path fill="#FFFFFF" d="M135.12,136.654c0,1.581-5.702,2.866-12.741,2.866c-7.036,0-12.739-1.284-12.739-2.866
		c0-1.584,5.703-2.867,12.739-2.867C129.417,133.787,135.12,135.069,135.12,136.654z"/>
	<path fill="#EAE4D6" d="M117.291,128.054c0,1.581-5.703,2.866-12.743,2.866c-7.035,0-12.738-1.284-12.738-2.866
		c0-1.582,5.703-2.865,12.738-2.865C111.587,125.188,117.291,126.472,117.291,128.054z"/>
	<path fill="#FFFFFF" d="M113.292,131.997c0,1.582-5.703,2.867-12.743,2.867c-7.035,0-12.739-1.285-12.739-2.867
		c0-1.583,5.703-2.866,12.739-2.866C107.588,129.13,113.292,130.413,113.292,131.997z"/>
	<path fill="#EDE7DD" d="M133.055,128.771c0,1.583-5.702,2.866-12.741,2.866c-7.036,0-12.738-1.283-12.738-2.866
		c0-1.584,5.702-2.868,12.738-2.868C127.353,125.903,133.055,127.187,133.055,128.771z"/>
	<path fill="#EAE4D6" d="M135.12,125.188c0,1.581-5.702,2.865-12.741,2.865c-7.036,0-12.739-1.285-12.739-2.865
		c0-1.584,5.703-2.867,12.739-2.867C129.417,122.322,135.12,123.604,135.12,125.188z"/>
	<path fill="#EAE4D6" d="M136.314,120.884c0,1.584-5.704,2.867-12.742,2.867c-7.035,0-12.738-1.282-12.738-2.867
		c0-1.582,5.703-2.865,12.738-2.865C130.61,118.019,136.314,119.304,136.314,120.884z"/>
	<path fill="#EDE7DD" d="M130.029,123.751c0,1.584-5.703,2.868-12.741,2.868c-7.035,0-12.738-1.283-12.738-2.868
		c0-1.583,5.702-2.867,12.738-2.867C124.325,120.884,130.029,122.168,130.029,123.751z"/>
	<path fill="#FFFFFF" d="M127.877,118.019c0,1.583-5.701,2.865-12.741,2.865c-7.033,0-12.737-1.283-12.737-2.865
		c0-1.581,5.704-2.867,12.737-2.867C122.176,115.152,127.877,116.439,127.877,118.019z"/>
	<path fill="#FFFFFF" d="M147.664,137.287c0.276,1.557-5.111,3.82-12.042,5.056c-6.926,1.232-12.765,0.967-13.043-0.589
		c-0.277-1.559,5.111-3.823,12.038-5.056C141.547,135.461,147.385,135.728,147.664,137.287z"/>
	<path fill="#EDE7DD" d="M131.119,141.532c-0.095,1.58-5.864,2.516-12.891,2.089c-7.022-0.426-12.638-2.051-12.543-3.631
		c0.096-1.579,5.867-2.516,12.891-2.092C125.599,138.324,131.214,139.951,131.119,141.532z"/>
	<path fill="#FFFFFF" d="M114.957,138.617c0.269,1.559-5.139,3.784-12.076,4.968c-6.934,1.186-12.773,0.88-13.039-0.682
		c-0.266-1.558,5.14-3.784,12.075-4.966C108.854,136.75,114.692,137.058,114.957,138.617z"/>
	<path fill="#EAE4D6" d="M100.442,141.173c-0.206,1.569-6.026,2.103-13.007,1.188c-6.974-0.915-12.462-2.924-12.257-4.494
		c0.204-1.568,6.026-2.103,13.002-1.191C95.16,137.59,100.647,139.605,100.442,141.173z"/>
	<path fill="#FFFFFF" d="M86.126,139.548c-0.205,1.567-6.025,2.102-13.005,1.187c-6.977-0.911-12.463-2.926-12.259-4.495
		c0.206-1.568,6.028-2.101,13.003-1.188C80.845,135.964,86.333,137.981,86.126,139.548z"/>
	<path fill="#FFFFFF" d="M83.143,132.379c-0.204,1.569-6.026,2.102-13.004,1.188c-6.976-0.912-12.465-2.925-12.259-4.494
		c0.205-1.57,6.028-2.103,13.003-1.191C77.861,128.798,83.349,130.811,83.143,132.379z"/>
	<path fill="#EAE4D6" d="M156.262,123.907c-0.375,1.538-6.22,1.431-13.059-0.237c-6.835-1.668-12.072-4.265-11.696-5.804
		c0.375-1.537,6.221-1.433,13.057,0.235C151.398,119.769,156.633,122.368,156.262,123.907z"/>
	<path fill="#EAE4D6" d="M156.562,136.806c-0.377,1.539-6.218,1.432-13.059-0.234c-6.834-1.668-12.07-4.267-11.695-5.803
		c0.375-1.539,6.221-1.433,13.055,0.234C151.701,132.67,156.938,135.269,156.562,136.806z"/>
	<path fill="#EAE4D6" d="M162.053,129.64c-0.377,1.537-6.223,1.433-13.06-0.236c-6.833-1.668-12.071-4.267-11.695-5.804
		c0.375-1.537,6.221-1.433,13.054,0.234C157.189,125.502,162.426,128.1,162.053,129.64z"/>
	<path fill="#EAE4D6" d="M95.285,142.538c-0.376,1.538-6.22,1.434-13.059-0.234c-6.833-1.667-12.07-4.266-11.697-5.802
		c0.375-1.537,6.22-1.433,13.056,0.233C90.423,138.401,95.659,141.002,95.285,142.538z"/>
	<path fill="#EAE4D6" d="M158.17,134.106c-0.375,1.537-6.219,1.433-13.059-0.236c-6.833-1.668-12.071-4.267-11.694-5.802
		c0.374-1.538,6.219-1.435,13.054,0.233C153.311,129.97,158.545,132.567,158.17,134.106z"/>
	<path fill="#EAE4D6" d="M156.262,139.673c-0.375,1.537-6.22,1.433-13.059-0.234c-6.835-1.669-12.072-4.269-11.696-5.806
		c0.375-1.537,6.221-1.433,13.057,0.235C151.398,135.537,156.633,138.133,156.262,139.673z"/>
	<path fill="#EAE4D6" d="M46.647,128.011c0.375,1.539,6.219,1.433,13.058-0.234c6.834-1.667,12.071-4.267,11.696-5.803
		c-0.375-1.538-6.22-1.433-13.055,0.235C51.509,123.876,46.273,126.476,46.647,128.011z"/>
	<path fill="#E8DCC1" d="M49.951,135.018c0.375,1.537,6.219,1.432,13.059-0.236c6.833-1.668,12.07-4.267,11.696-5.802
		c-0.375-1.538-6.219-1.435-13.054,0.234C54.811,130.879,49.576,133.479,49.951,135.018z"/>
	<path fill="#EAE4D6" d="M46.647,132.504c0.375,1.539,6.219,1.432,13.058-0.235c6.834-1.667,12.071-4.266,11.696-5.804
		c-0.375-1.537-6.22-1.432-13.055,0.236C51.509,128.367,46.273,130.968,46.647,132.504z"/>
	<path fill="#FFFFFF" d="M53.132,126.771c0.375,1.538,6.219,1.432,13.059-0.235c6.834-1.667,12.07-4.267,11.696-5.803
		c-0.376-1.539-6.219-1.433-13.056,0.235C57.993,122.634,52.756,125.235,53.132,126.771z"/>
	<path fill="#EAE4D6" d="M68.439,136.61c0.376,1.539,6.22,1.435,13.059-0.235c6.833-1.667,12.071-4.265,11.696-5.803
		c-0.376-1.537-6.221-1.432-13.055,0.235C73.301,132.475,68.065,135.075,68.439,136.61z"/>
	<path fill="#FFFFFF" d="M140.621,117.303c0,1.583-5.702,2.868-12.743,2.868c-7.034,0-12.736-1.284-12.736-2.868
		c0-1.581,5.702-2.866,12.736-2.866C134.918,114.437,140.621,115.721,140.621,117.303z"/>
	<path fill="#FFFFFF" d="M145.793,123.036c0,1.582-5.701,2.865-12.742,2.865c-7.033,0-12.737-1.283-12.737-2.865
		c0-1.583,5.702-2.866,12.737-2.866C140.091,120.17,145.793,121.453,145.793,123.036z"/>
	<path fill="#EAE4D6" d="M145.793,126.619c0,1.583-5.701,2.866-12.742,2.866c-7.033,0-12.737-1.283-12.737-2.866
		c0-1.583,5.702-2.868,12.737-2.868C140.091,123.751,145.793,125.036,145.793,126.619z"/>
	<path fill="#FFFFFF" d="M143.881,131.637c0,1.582-5.701,2.866-12.74,2.866c-7.036,0-12.739-1.284-12.739-2.866
		c0-1.584,5.703-2.866,12.739-2.866C138.18,128.771,143.881,130.053,143.881,131.637z"/>
	<path fill="#EDE7DD" d="M147.863,134.503c0,1.583-5.703,2.865-12.743,2.865c-7.035,0-12.738-1.282-12.738-2.865
		c0-1.583,5.703-2.866,12.738-2.866C142.16,131.637,147.863,132.921,147.863,134.503z"/>
	<path fill="#EAE4D6" d="M86.234,125.188c0,1.581-5.701,2.865-12.741,2.865c-7.036,0-12.739-1.285-12.739-2.865
		c0-1.584,5.703-2.867,12.739-2.867C80.531,122.322,86.234,123.604,86.234,125.188z"/>
	<path fill="#FFFFFF" d="M89.018,117.303c0,1.583-5.703,2.868-12.741,2.868c-7.035,0-12.738-1.284-12.738-2.868
		c0-1.581,5.703-2.866,12.738-2.866C83.315,114.437,89.018,115.721,89.018,117.303z"/>
	<path fill="#FFFFFF" d="M93.557,134.503c0,1.583-5.703,2.865-12.742,2.865c-7.036,0-12.739-1.282-12.739-2.865
		c0-1.583,5.703-2.866,12.739-2.866C87.855,131.637,93.557,132.921,93.557,134.503z"/>
</g>
<g>
	<path fill="#EAE4D6" d="M194.615,134.075c0,1.584-5.704,2.868-12.742,2.868c-7.035,0-12.74-1.284-12.74-2.868
		c0-1.581,5.703-2.866,12.74-2.866S194.615,132.494,194.615,134.075z"/>
	<path fill="#EAE4D6" d="M185.525,124.04c0,1.584-5.703,2.867-12.742,2.867c-7.035,0-12.738-1.282-12.738-2.867
		c0-1.582,5.703-2.865,12.738-2.865C179.822,121.175,185.525,122.459,185.525,124.04z"/>
	<path fill="#FFFFFF" d="M194.615,131.209c0,1.581-5.704,2.866-12.742,2.866c-7.035,0-12.74-1.284-12.74-2.866
		c0-1.582,5.703-2.865,12.74-2.865S194.615,129.628,194.615,131.209z"/>
	<path fill="#FFFFFF" d="M198.264,124.04c0,1.584-5.703,2.867-12.741,2.867c-7.036,0-12.737-1.282-12.737-2.867
		c0-1.582,5.703-2.865,12.737-2.865C192.561,121.175,198.264,122.459,198.264,124.04z"/>
	<path fill="#EDE7DD" d="M202.262,128.344c0,1.581-5.703,2.865-12.742,2.865c-7.035,0-12.738-1.285-12.738-2.865
		c0-1.584,5.703-2.867,12.738-2.867C196.559,125.478,202.262,126.76,202.262,128.344z"/>
	<path fill="#EAE4D6" d="M207.352,121.175c0,1.583-5.703,2.865-12.742,2.865c-7.035,0-12.738-1.283-12.738-2.865
		c0-1.581,5.703-2.867,12.738-2.867C201.649,118.308,207.352,119.595,207.352,121.175z"/>
	<path fill="#EDE7DD" d="M215.003,124.04c0,1.584-5.703,2.867-12.743,2.867c-7.035,0-12.738-1.282-12.738-2.867
		c0-1.582,5.703-2.865,12.738-2.865C209.3,121.175,215.003,122.459,215.003,124.04z"/>
	<path fill="#FFFFFF" d="M215,128.344c0,1.581-5.702,2.865-12.741,2.865c-7.036,0-12.739-1.285-12.739-2.865
		c0-1.584,5.703-2.867,12.739-2.867C209.298,125.478,215,126.76,215,128.344z"/>
	<path fill="#FFFFFF" d="M202.262,131.209c0,1.581-5.703,2.866-12.742,2.866c-7.035,0-12.738-1.284-12.738-2.866
		c0-1.582,5.703-2.865,12.738-2.865C196.559,128.344,202.262,129.628,202.262,131.209z"/>
	<path fill="#EDE7DD" d="M211.002,131.209c0,1.581-5.703,2.866-12.742,2.866c-7.035,0-12.737-1.284-12.737-2.866
		c0-1.582,5.702-2.865,12.737-2.865C205.3,128.344,211.002,129.628,211.002,131.209z"/>
	<path fill="#EAE4D6" d="M211.002,136.943c0,1.584-5.703,2.867-12.742,2.867c-7.035,0-12.737-1.283-12.737-2.867
		c0-1.583,5.702-2.868,12.737-2.868C205.3,134.075,211.002,135.36,211.002,136.943z"/>
	<path fill="#EDE7DD" d="M210.126,140.367c0,1.586-5.702,2.868-12.741,2.868c-7.036,0-12.739-1.282-12.739-2.868
		c0-1.581,5.703-2.863,12.739-2.863C204.424,137.504,210.126,138.787,210.126,140.367z"/>
	<path fill="#EAE4D6" d="M227.738,136.943c0,1.584-5.704,2.867-12.742,2.867c-7.035,0-12.737-1.283-12.737-2.867
		c0-1.583,5.702-2.868,12.737-2.868C222.034,134.075,227.738,135.36,227.738,136.943z"/>
	<path fill="#FFFFFF" d="M232.832,139.81c0,1.581-5.702,2.866-12.741,2.866c-7.036,0-12.739-1.284-12.739-2.866
		c0-1.584,5.703-2.867,12.739-2.867C227.129,136.943,232.832,138.225,232.832,139.81z"/>
	<path fill="#EAE4D6" d="M215.003,131.209c0,1.581-5.703,2.866-12.743,2.866c-7.035,0-12.738-1.284-12.738-2.866
		c0-1.582,5.703-2.865,12.738-2.865C209.3,128.344,215.003,129.628,215.003,131.209z"/>
	<path fill="#FFFFFF" d="M211.005,135.152c0,1.582-5.703,2.867-12.743,2.867c-7.034,0-12.738-1.285-12.738-2.867
		c0-1.583,5.703-2.866,12.738-2.866C205.301,132.286,211.005,133.569,211.005,135.152z"/>
	<path fill="#EDE7DD" d="M230.768,131.926c0,1.583-5.702,2.866-12.741,2.866c-7.036,0-12.738-1.283-12.738-2.866
		c0-1.584,5.702-2.868,12.738-2.868C225.065,129.059,230.768,130.342,230.768,131.926z"/>
	<path fill="#EAE4D6" d="M232.832,128.344c0,1.581-5.702,2.865-12.741,2.865c-7.036,0-12.739-1.285-12.739-2.865
		c0-1.584,5.703-2.867,12.739-2.867C227.129,125.478,232.832,126.76,232.832,128.344z"/>
	<path fill="#EAE4D6" d="M234.026,124.04c0,1.584-5.704,2.867-12.742,2.867c-7.035,0-12.738-1.282-12.738-2.867
		c0-1.582,5.703-2.865,12.738-2.865C228.322,121.175,234.026,122.459,234.026,124.04z"/>
	<path fill="#EDE7DD" d="M227.741,126.907c0,1.584-5.703,2.868-12.741,2.868c-7.035,0-12.738-1.283-12.738-2.868
		c0-1.583,5.702-2.867,12.738-2.867C222.037,124.04,227.741,125.324,227.741,126.907z"/>
	<path fill="#FFFFFF" d="M225.59,121.175c0,1.583-5.701,2.865-12.741,2.865c-7.033,0-12.737-1.283-12.737-2.865
		c0-1.581,5.704-2.867,12.737-2.867C219.889,118.308,225.59,119.595,225.59,121.175z"/>
	<path fill="#FFFFFF" d="M245.376,140.442c0.276,1.557-5.111,3.82-12.042,5.056c-6.926,1.232-12.765,0.967-13.043-0.589
		c-0.277-1.559,5.111-3.823,12.038-5.056C239.26,138.617,245.098,138.884,245.376,140.442z"/>
	<path fill="#EDE7DD" d="M228.831,144.688c-0.095,1.58-5.864,2.516-12.891,2.089c-7.022-0.426-12.638-2.051-12.543-3.631
		c0.096-1.579,5.867-2.516,12.891-2.092C223.312,141.479,228.927,143.106,228.831,144.688z"/>
	<path fill="#FFFFFF" d="M212.669,141.772c0.269,1.559-5.139,3.784-12.076,4.968c-6.935,1.186-12.772,0.88-13.039-0.682
		c-0.267-1.558,5.14-3.784,12.075-4.966C206.566,139.906,212.404,140.214,212.669,141.772z"/>
	<path fill="#EAE4D6" d="M198.154,144.329c-0.206,1.569-6.026,2.103-13.008,1.188c-6.974-0.915-12.462-2.924-12.257-4.494
		c0.204-1.568,6.026-2.103,13.002-1.191C192.872,140.746,198.359,142.761,198.154,144.329z"/>
	<path fill="#FFFFFF" d="M183.838,142.704c-0.204,1.567-6.025,2.102-13.004,1.187c-6.977-0.911-12.464-2.926-12.26-4.495
		c0.206-1.568,6.029-2.101,13.004-1.188C178.557,139.12,184.045,141.137,183.838,142.704z"/>
	<path fill="#FFFFFF" d="M180.855,135.535c-0.204,1.569-6.026,2.102-13.004,1.188c-6.977-0.912-12.465-2.925-12.26-4.494
		c0.205-1.57,6.027-2.103,13.003-1.191C175.574,131.954,181.062,133.966,180.855,135.535z"/>
	<path fill="#EAE4D6" d="M253.974,127.062c-0.375,1.538-6.22,1.431-13.059-0.237c-6.835-1.668-12.072-4.265-11.696-5.804
		c0.375-1.537,6.221-1.433,13.057,0.235C249.111,122.925,254.346,125.524,253.974,127.062z"/>
	<path fill="#EAE4D6" d="M254.275,139.961c-0.378,1.539-6.219,1.432-13.06-0.234c-6.834-1.668-12.07-4.267-11.695-5.803
		c0.375-1.539,6.221-1.433,13.055,0.234C249.413,135.826,254.649,138.425,254.275,139.961z"/>
	<path fill="#EAE4D6" d="M259.765,132.795c-0.377,1.537-6.222,1.433-13.06-0.236c-6.833-1.668-12.071-4.267-11.695-5.804
		c0.375-1.537,6.221-1.433,13.054,0.234C254.902,128.658,260.138,131.256,259.765,132.795z"/>
	<path fill="#EAE4D6" d="M192.997,145.693c-0.376,1.538-6.22,1.434-13.059-0.234c-6.833-1.667-12.07-4.266-11.696-5.802
		c0.375-1.537,6.22-1.433,13.055,0.233C188.135,141.557,193.371,144.158,192.997,145.693z"/>
	<path fill="#EAE4D6" d="M255.883,137.262c-0.375,1.537-6.22,1.433-13.06-0.236c-6.833-1.668-12.071-4.267-11.694-5.802
		c0.374-1.538,6.219-1.435,13.054,0.233C251.022,133.125,256.258,135.723,255.883,137.262z"/>
	<path fill="#EAE4D6" d="M253.974,142.829c-0.375,1.537-6.22,1.433-13.059-0.234c-6.835-1.669-12.072-4.269-11.696-5.806
		c0.375-1.537,6.221-1.433,13.057,0.235C249.111,138.692,254.346,141.289,253.974,142.829z"/>
	<path fill="#EAE4D6" d="M144.36,131.167c0.375,1.539,6.219,1.433,13.058-0.234c6.834-1.667,12.07-4.267,11.696-5.803
		c-0.376-1.538-6.22-1.433-13.055,0.235C149.221,127.032,143.986,129.631,144.36,131.167z"/>
	<path fill="#E8DCC1" d="M147.663,138.173c0.375,1.537,6.219,1.432,13.06-0.236c6.833-1.668,12.07-4.267,11.695-5.802
		c-0.375-1.538-6.219-1.435-13.055,0.234C152.523,134.035,147.288,136.635,147.663,138.173z"/>
	<path fill="#EAE4D6" d="M144.36,135.66c0.375,1.539,6.219,1.432,13.058-0.235c6.834-1.667,12.07-4.266,11.696-5.804
		c-0.376-1.537-6.22-1.432-13.055,0.236C149.221,131.523,143.986,134.124,144.36,135.66z"/>
	<path fill="#FFFFFF" d="M150.844,129.927c0.375,1.538,6.22,1.432,13.06-0.235c6.834-1.667,12.07-4.267,11.696-5.803
		c-0.377-1.539-6.22-1.433-13.057,0.235C155.705,125.79,150.469,128.391,150.844,129.927z"/>
	<path fill="#EAE4D6" d="M166.151,139.766c0.376,1.539,6.22,1.435,13.06-0.235c6.832-1.667,12.07-4.265,11.695-5.803
		c-0.377-1.537-6.221-1.432-13.055,0.235C171.014,135.631,165.777,138.23,166.151,139.766z"/>
	<path fill="#FFFFFF" d="M238.333,120.458c0,1.583-5.702,2.868-12.743,2.868c-7.034,0-12.736-1.284-12.736-2.868
		c0-1.581,5.702-2.866,12.736-2.866C232.631,117.593,238.333,118.876,238.333,120.458z"/>
	<path fill="#FFFFFF" d="M243.506,126.191c0,1.582-5.701,2.865-12.742,2.865c-7.033,0-12.737-1.283-12.737-2.865
		c0-1.583,5.702-2.866,12.737-2.866C237.804,123.326,243.506,124.609,243.506,126.191z"/>
	<path fill="#EAE4D6" d="M243.506,129.774c0,1.583-5.701,2.866-12.742,2.866c-7.033,0-12.737-1.283-12.737-2.866
		c0-1.583,5.702-2.868,12.737-2.868C237.804,126.907,243.506,128.191,243.506,129.774z"/>
	<path fill="#FFFFFF" d="M241.594,134.793c0,1.582-5.701,2.866-12.74,2.866c-7.036,0-12.739-1.284-12.739-2.866
		c0-1.584,5.703-2.866,12.739-2.866C235.893,131.926,241.594,133.208,241.594,134.793z"/>
	<path fill="#EDE7DD" d="M245.575,137.659c0,1.583-5.703,2.865-12.743,2.865c-7.035,0-12.738-1.282-12.738-2.865
		c0-1.583,5.703-2.866,12.738-2.866C239.872,134.793,245.575,136.077,245.575,137.659z"/>
	<path fill="#EAE4D6" d="M183.946,128.344c0,1.581-5.701,2.865-12.741,2.865c-7.035,0-12.738-1.285-12.738-2.865
		c0-1.584,5.703-2.867,12.738-2.867C178.243,125.478,183.946,126.76,183.946,128.344z"/>
	<path fill="#FFFFFF" d="M186.73,120.458c0,1.583-5.703,2.868-12.741,2.868c-7.034,0-12.737-1.284-12.737-2.868
		c0-1.581,5.703-2.866,12.737-2.866C181.027,117.593,186.73,118.876,186.73,120.458z"/>
	<path fill="#FFFFFF" d="M191.27,137.659c0,1.583-5.703,2.865-12.742,2.865c-7.035,0-12.738-1.282-12.738-2.865
		c0-1.583,5.703-2.866,12.738-2.866C185.567,134.793,191.27,136.077,191.27,137.659z"/>
</g>
<g>
	<path fill="#EAE4D6" d="M148.14,122.924c0,1.584-5.704,2.868-12.742,2.868c-7.035,0-12.74-1.284-12.74-2.868
		c0-1.581,5.703-2.866,12.74-2.866S148.14,121.343,148.14,122.924z"/>
	<path fill="#EAE4D6" d="M139.05,112.889c0,1.584-5.703,2.867-12.742,2.867c-7.035,0-12.738-1.282-12.738-2.867
		c0-1.582,5.703-2.865,12.738-2.865C133.347,110.023,139.05,111.308,139.05,112.889z"/>
	<path fill="#FFFFFF" d="M148.14,120.058c0,1.581-5.704,2.866-12.742,2.866c-7.035,0-12.74-1.284-12.74-2.866
		c0-1.582,5.703-2.865,12.74-2.865S148.14,118.477,148.14,120.058z"/>
	<path fill="#FFFFFF" d="M151.788,112.889c0,1.584-5.703,2.867-12.741,2.867c-7.036,0-12.737-1.282-12.737-2.867
		c0-1.582,5.703-2.865,12.737-2.865C146.085,110.023,151.788,111.308,151.788,112.889z"/>
	<path fill="#EDE7DD" d="M155.786,117.193c0,1.581-5.703,2.865-12.742,2.865c-7.035,0-12.738-1.285-12.738-2.865
		c0-1.584,5.703-2.867,12.738-2.867C150.083,114.326,155.786,115.609,155.786,117.193z"/>
	<path fill="#EAE4D6" d="M160.876,110.023c0,1.583-5.703,2.865-12.742,2.865c-7.035,0-12.738-1.283-12.738-2.865
		c0-1.581,5.703-2.867,12.738-2.867C155.174,107.157,160.876,108.444,160.876,110.023z"/>
	<path fill="#EDE7DD" d="M168.527,112.889c0,1.584-5.703,2.867-12.743,2.867c-7.035,0-12.738-1.282-12.738-2.867
		c0-1.582,5.703-2.865,12.738-2.865C162.824,110.023,168.527,111.308,168.527,112.889z"/>
	<path fill="#FFFFFF" d="M168.524,117.193c0,1.581-5.702,2.865-12.741,2.865c-7.036,0-12.739-1.285-12.739-2.865
		c0-1.584,5.703-2.867,12.739-2.867C162.822,114.326,168.524,115.609,168.524,117.193z"/>
	<path fill="#FFFFFF" d="M155.786,120.058c0,1.581-5.703,2.866-12.742,2.866c-7.035,0-12.738-1.284-12.738-2.866
		c0-1.582,5.703-2.865,12.738-2.865C150.083,117.193,155.786,118.477,155.786,120.058z"/>
	<path fill="#EDE7DD" d="M164.526,120.058c0,1.581-5.703,2.866-12.742,2.866c-7.035,0-12.737-1.284-12.737-2.866
		c0-1.582,5.702-2.865,12.737-2.865C158.824,117.193,164.526,118.477,164.526,120.058z"/>
	<path fill="#EAE4D6" d="M164.526,125.792c0,1.584-5.703,2.867-12.742,2.867c-7.035,0-12.737-1.283-12.737-2.867
		c0-1.583,5.702-2.868,12.737-2.868C158.824,122.924,164.526,124.209,164.526,125.792z"/>
	<path fill="#EDE7DD" d="M163.65,129.216c0,1.586-5.702,2.868-12.741,2.868c-7.036,0-12.739-1.282-12.739-2.868
		c0-1.581,5.703-2.863,12.739-2.863C157.948,126.353,163.65,127.636,163.65,129.216z"/>
	<path fill="#EAE4D6" d="M181.263,125.792c0,1.584-5.704,2.867-12.742,2.867c-7.035,0-12.737-1.283-12.737-2.867
		c0-1.583,5.702-2.868,12.737-2.868C175.559,122.924,181.263,124.209,181.263,125.792z"/>
	<path fill="#FFFFFF" d="M186.356,128.658c0,1.581-5.702,2.866-12.741,2.866c-7.036,0-12.739-1.284-12.739-2.866
		c0-1.584,5.703-2.867,12.739-2.867C180.653,125.792,186.356,127.074,186.356,128.658z"/>
	<path fill="#EAE4D6" d="M168.527,120.058c0,1.581-5.703,2.866-12.743,2.866c-7.035,0-12.738-1.284-12.738-2.866
		c0-1.582,5.703-2.865,12.738-2.865C162.824,117.193,168.527,118.477,168.527,120.058z"/>
	<path fill="#FFFFFF" d="M164.529,124.001c0,1.582-5.703,2.867-12.743,2.867c-7.034,0-12.738-1.285-12.738-2.867
		c0-1.583,5.703-2.866,12.738-2.866C158.825,121.135,164.529,122.417,164.529,124.001z"/>
	<path fill="#EDE7DD" d="M184.292,120.775c0,1.583-5.702,2.866-12.741,2.866c-7.036,0-12.738-1.283-12.738-2.866
		c0-1.584,5.702-2.868,12.738-2.868C178.59,117.907,184.292,119.191,184.292,120.775z"/>
	<path fill="#EAE4D6" d="M186.356,117.193c0,1.581-5.702,2.865-12.741,2.865c-7.036,0-12.739-1.285-12.739-2.865
		c0-1.584,5.703-2.867,12.739-2.867C180.653,114.326,186.356,115.609,186.356,117.193z"/>
	<path fill="#EAE4D6" d="M187.551,112.889c0,1.584-5.704,2.867-12.742,2.867c-7.035,0-12.738-1.282-12.738-2.867
		c0-1.582,5.703-2.865,12.738-2.865C181.847,110.023,187.551,111.308,187.551,112.889z"/>
	<path fill="#EDE7DD" d="M181.266,115.755c0,1.584-5.703,2.868-12.741,2.868c-7.035,0-12.738-1.283-12.738-2.868
		c0-1.583,5.702-2.867,12.738-2.867C175.562,112.889,181.266,114.172,181.266,115.755z"/>
	<path fill="#FFFFFF" d="M179.114,110.023c0,1.583-5.701,2.865-12.741,2.865c-7.033,0-12.737-1.283-12.737-2.865
		c0-1.581,5.704-2.867,12.737-2.867C173.413,107.157,179.114,108.444,179.114,110.023z"/>
	<path fill="#FFFFFF" d="M198.9,129.291c0.276,1.557-5.111,3.82-12.042,5.056c-6.926,1.232-12.765,0.967-13.043-0.589
		c-0.277-1.559,5.111-3.823,12.038-5.056C192.784,127.466,198.622,127.732,198.9,129.291z"/>
	<path fill="#EDE7DD" d="M182.355,133.536c-0.095,1.58-5.864,2.516-12.891,2.089c-7.022-0.426-12.638-2.051-12.543-3.631
		c0.096-1.579,5.867-2.516,12.891-2.092C176.836,130.328,182.451,131.955,182.355,133.536z"/>
	<path fill="#FFFFFF" d="M166.193,130.621c0.269,1.559-5.139,3.784-12.076,4.968c-6.935,1.186-12.772,0.88-13.039-0.682
		c-0.267-1.558,5.14-3.784,12.075-4.966C160.091,128.754,165.929,129.062,166.193,130.621z"/>
	<path fill="#EAE4D6" d="M151.679,133.178c-0.206,1.569-6.026,2.103-13.008,1.188c-6.974-0.915-12.462-2.924-12.257-4.494
		c0.204-1.568,6.026-2.103,13.002-1.191C146.396,129.595,151.884,131.609,151.679,133.178z"/>
	<path fill="#FFFFFF" d="M137.362,131.553c-0.204,1.567-6.025,2.102-13.004,1.187c-6.977-0.911-12.464-2.926-12.26-4.495
		c0.206-1.568,6.029-2.101,13.004-1.188C132.081,127.969,137.569,129.985,137.362,131.553z"/>
	<path fill="#FFFFFF" d="M134.38,124.384c-0.204,1.569-6.026,2.102-13.004,1.188c-6.977-0.912-12.465-2.925-12.26-4.494
		c0.205-1.57,6.027-2.103,13.003-1.191C129.099,120.802,134.586,122.815,134.38,124.384z"/>
	<path fill="#EAE4D6" d="M207.498,115.911c-0.375,1.538-6.22,1.431-13.059-0.237c-6.835-1.668-12.072-4.265-11.696-5.804
		c0.375-1.537,6.221-1.433,13.057,0.235C202.636,111.773,207.87,114.373,207.498,115.911z"/>
	<path fill="#EAE4D6" d="M207.8,128.81c-0.378,1.539-6.219,1.432-13.06-0.234c-6.834-1.668-12.07-4.267-11.695-5.803
		c0.375-1.539,6.221-1.433,13.055,0.234C202.938,124.674,208.174,127.273,207.8,128.81z"/>
	<path fill="#EAE4D6" d="M213.289,121.644c-0.377,1.537-6.222,1.433-13.06-0.236c-6.833-1.668-12.071-4.267-11.695-5.804
		c0.375-1.537,6.221-1.433,13.054,0.234C208.427,117.507,213.662,120.104,213.289,121.644z"/>
	<path fill="#EAE4D6" d="M146.521,134.542c-0.376,1.538-6.22,1.434-13.059-0.234c-6.833-1.667-12.07-4.266-11.696-5.802
		c0.375-1.537,6.22-1.433,13.055,0.233C141.659,130.405,146.896,133.007,146.521,134.542z"/>
	<path fill="#EAE4D6" d="M209.407,126.11c-0.375,1.537-6.22,1.433-13.06-0.236c-6.833-1.668-12.071-4.267-11.694-5.802
		c0.374-1.538,6.219-1.435,13.054,0.233C204.547,121.974,209.782,124.571,209.407,126.11z"/>
	<path fill="#EAE4D6" d="M207.498,131.678c-0.375,1.537-6.22,1.433-13.059-0.234c-6.835-1.669-12.072-4.269-11.696-5.806
		c0.375-1.537,6.221-1.433,13.057,0.235C202.636,127.541,207.87,130.138,207.498,131.678z"/>
	<path fill="#EAE4D6" d="M97.884,120.016c0.375,1.539,6.219,1.433,13.058-0.234c6.834-1.667,12.07-4.267,11.696-5.803
		c-0.376-1.538-6.22-1.433-13.055,0.235C102.746,115.881,97.51,118.48,97.884,120.016z"/>
	<path fill="#E8DCC1" d="M101.188,127.022c0.375,1.537,6.219,1.432,13.06-0.236c6.833-1.668,12.07-4.267,11.695-5.802
		c-0.375-1.538-6.219-1.435-13.055,0.234C106.048,122.884,100.812,125.483,101.188,127.022z"/>
	<path fill="#EAE4D6" d="M97.884,124.508c0.375,1.539,6.219,1.432,13.058-0.235c6.834-1.667,12.07-4.266,11.696-5.804
		c-0.376-1.537-6.22-1.432-13.055,0.236C102.746,120.372,97.51,122.972,97.884,124.508z"/>
	<path fill="#FFFFFF" d="M104.368,118.775c0.375,1.538,6.22,1.432,13.06-0.235c6.834-1.667,12.07-4.267,11.696-5.803
		c-0.377-1.539-6.22-1.433-13.057,0.235C109.229,114.639,103.993,117.239,104.368,118.775z"/>
	<path fill="#EAE4D6" d="M119.676,128.615c0.376,1.539,6.22,1.435,13.06-0.235c6.832-1.667,12.07-4.265,11.695-5.803
		c-0.377-1.537-6.221-1.432-13.055,0.235C124.538,124.479,119.302,127.079,119.676,128.615z"/>
	<path fill="#FFFFFF" d="M191.857,109.307c0,1.583-5.702,2.868-12.743,2.868c-7.034,0-12.736-1.284-12.736-2.868
		c0-1.581,5.702-2.866,12.736-2.866C186.155,106.441,191.857,107.725,191.857,109.307z"/>
	<path fill="#FFFFFF" d="M197.03,115.04c0,1.582-5.701,2.865-12.742,2.865c-7.033,0-12.737-1.283-12.737-2.865
		c0-1.583,5.702-2.866,12.737-2.866C191.328,112.175,197.03,113.458,197.03,115.04z"/>
	<path fill="#EAE4D6" d="M197.03,118.623c0,1.583-5.701,2.866-12.742,2.866c-7.033,0-12.737-1.283-12.737-2.866
		c0-1.583,5.702-2.868,12.737-2.868C191.328,115.755,197.03,117.04,197.03,118.623z"/>
	<path fill="#FFFFFF" d="M195.118,123.642c0,1.582-5.701,2.866-12.74,2.866c-7.036,0-12.739-1.284-12.739-2.866
		c0-1.584,5.703-2.866,12.739-2.866C189.417,120.775,195.118,122.057,195.118,123.642z"/>
	<path fill="#EDE7DD" d="M199.1,126.507c0,1.583-5.703,2.865-12.743,2.865c-7.035,0-12.738-1.282-12.738-2.865
		c0-1.583,5.703-2.866,12.738-2.866C193.396,123.642,199.1,124.926,199.1,126.507z"/>
	<path fill="#EAE4D6" d="M137.471,117.193c0,1.581-5.701,2.865-12.741,2.865c-7.035,0-12.738-1.285-12.738-2.865
		c0-1.584,5.703-2.867,12.738-2.867C131.768,114.326,137.471,115.609,137.471,117.193z"/>
	<path fill="#FFFFFF" d="M140.255,109.307c0,1.583-5.703,2.868-12.741,2.868c-7.034,0-12.737-1.284-12.737-2.868
		c0-1.581,5.703-2.866,12.737-2.866C134.552,106.441,140.255,107.725,140.255,109.307z"/>
	<path fill="#FFFFFF" d="M144.794,126.507c0,1.583-5.703,2.865-12.742,2.865c-7.035,0-12.738-1.282-12.738-2.865
		c0-1.583,5.703-2.866,12.738-2.866C139.092,123.642,144.794,124.926,144.794,126.507z"/>
</g>
<g>
	<path fill="#EAE4D6" d="M126.553,125.298c0,1.584-5.704,2.868-12.742,2.868c-7.035,0-12.74-1.284-12.74-2.868
		c0-1.581,5.703-2.866,12.74-2.866S126.553,123.717,126.553,125.298z"/>
	<path fill="#EAE4D6" d="M117.463,115.263c0,1.584-5.703,2.867-12.742,2.867c-7.035,0-12.738-1.282-12.738-2.867
		c0-1.582,5.703-2.865,12.738-2.865C111.76,112.398,117.463,113.683,117.463,115.263z"/>
	<path fill="#FFFFFF" d="M126.553,122.433c0,1.581-5.704,2.866-12.742,2.866c-7.035,0-12.74-1.284-12.74-2.866
		c0-1.582,5.703-2.865,12.74-2.865S126.553,120.851,126.553,122.433z"/>
	<path fill="#FFFFFF" d="M130.202,115.263c0,1.584-5.703,2.867-12.741,2.867c-7.036,0-12.737-1.282-12.737-2.867
		c0-1.582,5.703-2.865,12.737-2.865C124.499,112.398,130.202,113.683,130.202,115.263z"/>
	<path fill="#EDE7DD" d="M134.2,119.567c0,1.581-5.703,2.865-12.742,2.865c-7.035,0-12.738-1.285-12.738-2.865
		c0-1.584,5.703-2.867,12.738-2.867C128.497,116.701,134.2,117.983,134.2,119.567z"/>
	<path fill="#EAE4D6" d="M139.29,112.398c0,1.583-5.703,2.865-12.742,2.865c-7.035,0-12.738-1.283-12.738-2.865
		c0-1.581,5.703-2.867,12.738-2.867C133.587,109.531,139.29,110.818,139.29,112.398z"/>
	<path fill="#EDE7DD" d="M146.941,115.263c0,1.584-5.703,2.867-12.743,2.867c-7.035,0-12.738-1.282-12.738-2.867
		c0-1.582,5.703-2.865,12.738-2.865C141.238,112.398,146.941,113.683,146.941,115.263z"/>
	<path fill="#FFFFFF" d="M146.938,119.567c0,1.581-5.702,2.865-12.741,2.865c-7.036,0-12.739-1.285-12.739-2.865
		c0-1.584,5.703-2.867,12.739-2.867C141.236,116.701,146.938,117.983,146.938,119.567z"/>
	<path fill="#FFFFFF" d="M134.2,122.433c0,1.581-5.703,2.866-12.742,2.866c-7.035,0-12.738-1.284-12.738-2.866
		c0-1.582,5.703-2.865,12.738-2.865C128.497,119.567,134.2,120.851,134.2,122.433z"/>
	<path fill="#EDE7DD" d="M142.94,122.433c0,1.581-5.703,2.866-12.742,2.866c-7.035,0-12.737-1.284-12.737-2.866
		c0-1.582,5.702-2.865,12.737-2.865C137.238,119.567,142.94,120.851,142.94,122.433z"/>
	<path fill="#EAE4D6" d="M142.94,128.166c0,1.584-5.703,2.867-12.742,2.867c-7.035,0-12.737-1.283-12.737-2.867
		c0-1.583,5.702-2.868,12.737-2.868C137.238,125.298,142.94,126.583,142.94,128.166z"/>
	<path fill="#EDE7DD" d="M142.064,131.59c0,1.586-5.702,2.868-12.741,2.868c-7.036,0-12.739-1.282-12.739-2.868
		c0-1.581,5.703-2.863,12.739-2.863C136.362,128.727,142.064,130.01,142.064,131.59z"/>
	<path fill="#EAE4D6" d="M159.676,128.166c0,1.584-5.703,2.867-12.742,2.867c-7.035,0-12.737-1.283-12.737-2.867
		c0-1.583,5.702-2.868,12.737-2.868C153.973,125.298,159.676,126.583,159.676,128.166z"/>
	<path fill="#FFFFFF" d="M164.77,131.033c0,1.581-5.701,2.866-12.74,2.866c-7.037,0-12.74-1.284-12.74-2.866
		c0-1.584,5.703-2.867,12.74-2.867C159.066,128.166,164.77,129.448,164.77,131.033z"/>
	<path fill="#EAE4D6" d="M146.941,122.433c0,1.581-5.703,2.866-12.743,2.866c-7.035,0-12.738-1.284-12.738-2.866
		c0-1.582,5.703-2.865,12.738-2.865C141.238,119.567,146.941,120.851,146.941,122.433z"/>
	<path fill="#FFFFFF" d="M142.943,126.375c0,1.582-5.703,2.867-12.743,2.867c-7.034,0-12.738-1.285-12.738-2.867
		c0-1.583,5.703-2.866,12.738-2.866C137.239,123.509,142.943,124.792,142.943,126.375z"/>
	<path fill="#EDE7DD" d="M162.705,123.149c0,1.583-5.701,2.866-12.741,2.866c-7.036,0-12.738-1.283-12.738-2.866
		c0-1.584,5.702-2.868,12.738-2.868C157.004,120.282,162.705,121.565,162.705,123.149z"/>
	<path fill="#EAE4D6" d="M164.77,119.567c0,1.581-5.701,2.865-12.74,2.865c-7.037,0-12.74-1.285-12.74-2.865
		c0-1.584,5.703-2.867,12.74-2.867C159.066,116.701,164.77,117.983,164.77,119.567z"/>
	<path fill="#EAE4D6" d="M165.965,115.263c0,1.584-5.705,2.867-12.742,2.867c-7.036,0-12.739-1.282-12.739-2.867
		c0-1.582,5.703-2.865,12.739-2.865C160.26,112.398,165.965,113.683,165.965,115.263z"/>
	<path fill="#EDE7DD" d="M159.68,118.13c0,1.584-5.703,2.868-12.742,2.868c-7.035,0-12.738-1.283-12.738-2.868
		c0-1.583,5.702-2.867,12.738-2.867C153.975,115.263,159.68,116.547,159.68,118.13z"/>
	<path fill="#FFFFFF" d="M157.527,112.398c0,1.583-5.701,2.865-12.741,2.865c-7.033,0-12.737-1.283-12.737-2.865
		c0-1.581,5.704-2.867,12.737-2.867C151.826,109.531,157.527,110.818,157.527,112.398z"/>
	<path fill="#FFFFFF" d="M177.314,131.666c0.275,1.557-5.111,3.82-12.043,5.056c-6.926,1.232-12.764,0.967-13.043-0.589
		c-0.277-1.559,5.111-3.823,12.039-5.056C171.197,129.84,177.035,130.107,177.314,131.666z"/>
	<path fill="#EDE7DD" d="M160.77,135.911c-0.096,1.58-5.865,2.516-12.891,2.089c-7.022-0.426-12.638-2.051-12.543-3.631
		c0.096-1.579,5.867-2.516,12.891-2.092C155.25,132.703,160.865,134.33,160.77,135.911z"/>
	<path fill="#FFFFFF" d="M144.607,132.996c0.269,1.559-5.139,3.784-12.076,4.968c-6.935,1.186-12.772,0.88-13.039-0.682
		c-0.267-1.558,5.14-3.784,12.075-4.966C138.504,131.129,144.342,131.437,144.607,132.996z"/>
	<path fill="#EAE4D6" d="M130.092,135.552c-0.206,1.569-6.026,2.103-13.008,1.188c-6.974-0.915-12.462-2.924-12.257-4.494
		c0.204-1.568,6.026-2.103,13.002-1.191C124.81,131.969,130.297,133.984,130.092,135.552z"/>
	<path fill="#FFFFFF" d="M115.776,133.927c-0.204,1.567-6.025,2.102-13.004,1.187c-6.977-0.911-12.464-2.926-12.26-4.495
		c0.206-1.568,6.029-2.101,13.004-1.188C110.495,130.343,115.983,132.36,115.776,133.927z"/>
	<path fill="#FFFFFF" d="M112.793,126.758c-0.204,1.569-6.026,2.102-13.004,1.188c-6.977-0.912-12.465-2.925-12.26-4.494
		c0.205-1.57,6.027-2.103,13.003-1.191C107.512,123.177,113,125.189,112.793,126.758z"/>
	<path fill="#EAE4D6" d="M185.912,118.286c-0.375,1.538-6.221,1.431-13.059-0.237c-6.836-1.668-12.072-4.265-11.697-5.804
		c0.375-1.537,6.221-1.433,13.057,0.235C181.049,114.148,186.283,116.747,185.912,118.286z"/>
	<path fill="#EAE4D6" d="M186.213,131.185c-0.377,1.539-6.219,1.432-13.059-0.234c-6.834-1.668-12.07-4.267-11.695-5.803
		c0.375-1.539,6.221-1.433,13.055,0.234C181.352,127.049,186.588,129.648,186.213,131.185z"/>
	<path fill="#EAE4D6" d="M191.703,124.019c-0.377,1.537-6.223,1.433-13.061-0.236c-6.832-1.668-12.07-4.267-11.695-5.804
		s6.221-1.433,13.055,0.234C186.84,119.881,192.076,122.479,191.703,124.019z"/>
	<path fill="#EAE4D6" d="M124.935,136.917c-0.376,1.538-6.22,1.434-13.059-0.234c-6.833-1.667-12.07-4.266-11.696-5.802
		c0.375-1.537,6.22-1.433,13.055,0.233C120.073,132.78,125.309,135.381,124.935,136.917z"/>
	<path fill="#EAE4D6" d="M187.82,128.485c-0.375,1.537-6.219,1.433-13.059-0.236c-6.834-1.668-12.072-4.267-11.695-5.802
		c0.375-1.538,6.219-1.435,13.055,0.233C182.961,124.349,188.195,126.946,187.82,128.485z"/>
	<path fill="#EAE4D6" d="M185.912,134.052c-0.375,1.537-6.221,1.433-13.059-0.234c-6.836-1.669-12.072-4.269-11.697-5.806
		c0.375-1.537,6.221-1.433,13.057,0.235C181.049,129.916,186.283,132.512,185.912,134.052z"/>
	<path fill="#EAE4D6" d="M76.298,122.39c0.375,1.539,6.219,1.433,13.058-0.234c6.834-1.667,12.07-4.267,11.696-5.803
		c-0.376-1.538-6.22-1.433-13.055,0.235C81.159,118.255,75.924,120.854,76.298,122.39z"/>
	<path fill="#E8DCC1" d="M79.601,129.396c0.375,1.537,6.219,1.432,13.06-0.236c6.833-1.668,12.07-4.267,11.695-5.802
		c-0.375-1.538-6.219-1.435-13.055,0.234C84.461,125.258,79.226,127.858,79.601,129.396z"/>
	<path fill="#EAE4D6" d="M76.298,126.883c0.375,1.539,6.219,1.432,13.058-0.235c6.834-1.667,12.07-4.266,11.696-5.804
		c-0.376-1.537-6.22-1.432-13.055,0.236C81.159,122.746,75.924,125.347,76.298,126.883z"/>
	<path fill="#FFFFFF" d="M82.782,121.15c0.375,1.538,6.22,1.432,13.06-0.235c6.834-1.667,12.07-4.267,11.696-5.803
		c-0.377-1.539-6.22-1.433-13.057,0.235C87.643,117.013,82.407,119.614,82.782,121.15z"/>
	<path fill="#EAE4D6" d="M98.089,130.989c0.376,1.539,6.22,1.435,13.06-0.235c6.832-1.667,12.07-4.265,11.695-5.803
		c-0.377-1.537-6.221-1.432-13.055,0.235C102.952,126.854,97.715,129.454,98.089,130.989z"/>
	<path fill="#FFFFFF" d="M170.271,111.682c0,1.583-5.703,2.868-12.744,2.868c-7.034,0-12.736-1.284-12.736-2.868
		c0-1.581,5.702-2.866,12.736-2.866C164.568,108.816,170.271,110.1,170.271,111.682z"/>
	<path fill="#FFFFFF" d="M175.443,117.415c0,1.582-5.701,2.865-12.742,2.865c-7.033,0-12.737-1.283-12.737-2.865
		c0-1.583,5.702-2.866,12.737-2.866C169.742,114.549,175.443,115.832,175.443,117.415z"/>
	<path fill="#EAE4D6" d="M175.443,120.998c0,1.583-5.701,2.866-12.742,2.866c-7.033,0-12.737-1.283-12.737-2.866
		c0-1.583,5.702-2.868,12.737-2.868C169.742,118.13,175.443,119.415,175.443,120.998z"/>
	<path fill="#FFFFFF" d="M173.531,126.016c0,1.582-5.701,2.866-12.74,2.866c-7.035,0-12.739-1.284-12.739-2.866
		c0-1.584,5.704-2.866,12.739-2.866C167.83,123.149,173.531,124.432,173.531,126.016z"/>
	<path fill="#EDE7DD" d="M177.514,128.882c0,1.583-5.703,2.865-12.744,2.865c-7.035,0-12.738-1.282-12.738-2.865
		c0-1.583,5.703-2.866,12.738-2.866C171.811,126.016,177.514,127.3,177.514,128.882z"/>
	<path fill="#EAE4D6" d="M115.884,119.567c0,1.581-5.701,2.865-12.741,2.865c-7.035,0-12.738-1.285-12.738-2.865
		c0-1.584,5.703-2.867,12.738-2.867C110.181,116.701,115.884,117.983,115.884,119.567z"/>
	<path fill="#FFFFFF" d="M118.668,111.682c0,1.583-5.703,2.868-12.741,2.868c-7.034,0-12.737-1.284-12.737-2.868
		c0-1.581,5.703-2.866,12.737-2.866C112.965,108.816,118.668,110.1,118.668,111.682z"/>
	<path fill="#FFFFFF" d="M123.208,128.882c0,1.583-5.703,2.865-12.742,2.865c-7.035,0-12.738-1.282-12.738-2.865
		c0-1.583,5.703-2.866,12.738-2.866C117.505,126.016,123.208,127.3,123.208,128.882z"/>
</g>
<ellipse transform="matrix(-0.4802 -0.8772 0.8772 -0.4802 165.5026 380.6745)" fill="#599B3D" cx="195.547" cy="141.298" rx="4.978" ry="8.621"/>
<ellipse transform="matrix(-0.7883 -0.6153 0.6153 -0.7883 248.7015 405.3466)" fill="#599B3D" cx="194.083" cy="159.889" rx="4.978" ry="8.623"/>
<ellipse transform="matrix(-0.7882 -0.6154 0.6154 -0.7882 257.3727 388.5695)" fill="#599B3D" cx="195.547" cy="149.999" rx="4.978" ry="8.622"/>
<ellipse transform="matrix(-0.7883 -0.6153 0.6153 -0.7883 264.5044 405.9052)" fill="#599B3D" cx="202.078" cy="157.451" rx="4.977" ry="8.622"/>
<ellipse transform="matrix(-0.4803 -0.8771 0.8771 -0.4803 172.8408 417.3491)" fill="#599B3D" cx="210.071" cy="157.466" rx="4.978" ry="8.621"/>
<ellipse transform="matrix(-0.4802 -0.8772 0.8772 -0.4802 173.7668 402.2012)" fill="#599B3D" cx="206.053" cy="149.615" rx="4.978" ry="8.621"/>
<ellipse transform="matrix(-0.4802 -0.8772 0.8772 -0.4802 191.9827 418.6312)" fill="#599B3D" cx="220.038" cy="152.428" rx="4.978" ry="8.621"/>
<ellipse transform="matrix(-0.4803 -0.8771 0.8771 -0.4803 193.5025 409.2876)" fill="#599B3D" cx="218.014" cy="147.313" rx="4.978" ry="8.621"/>
<ellipse transform="matrix(-0.4802 -0.8772 0.8772 -0.4802 176.282 389.2598)" fill="#599B3D" cx="203.481" cy="142.396" rx="4.978" ry="8.621"/>
<ellipse transform="matrix(-0.4802 -0.8772 0.8772 -0.4802 192.774 396.8339)" fill="#599B3D" cx="213.971" cy="141.297" rx="4.978" ry="8.621"/>
<ellipse transform="matrix(-0.4802 -0.8771 0.8771 -0.4802 209.0566 416.6747)" fill="#599B3D" cx="227.985" cy="146.396" rx="4.977" ry="8.622"/>
<ellipse transform="matrix(-0.4802 -0.8772 0.8772 -0.4802 211.3333 406.0377)" fill="#599B3D" cx="225.973" cy="140.402" rx="4.978" ry="8.621"/>
<path fill="#6FA559" d="M202.062,166.781c53.733,2.051,41.957-47.827,44.482-54.325s7.7-1.703,13.037,4.695
	c5.338,6.398,2.327,55.904-48.41,48.207L202.062,166.781z"/>
<path fill="#7FB76A" d="M206.711,167.583c53.734,2.052,43.055-34.428,45.512-40.749c2.459-6.321,7.7-1.703,13.038,4.695
	c5.339,6.398,2.327,55.905-48.411,48.208L206.711,167.583z"/>
<path fill="#93C180" d="M186.398,163.252c54.935,0.748,43.662-35.992,45.875-41.682s7.338-0.771,12.675,5.627
	c5.339,6.396-4.615,51.636-48.41,48.205C183.438,172.938,176.5,163.5,186.398,163.252z"/>
<path fill="#A76BB5" stroke="#8B499B" stroke-width="3" stroke-miterlimit="10" d="M103.029,149.098c0,0,19.59,6.123,15.426,0.405
	c-4.163-5.714-6.37-11.954-2.893-14.059c3.479-2.106,0.306-13.052,7.774-14.12c7.469-1.067,12.963-2.062,17.539-6.578
	c4.573-4.516,28.792-1.464,30.15,3.227c1.358,4.692,25.77,2.204,18.447,7.218c-7.324,5.015,11.045,20.812,4.75,21.499
	c-6.3,0.688,0.704,19.001-10.375,18.623c-11.078-0.379-20.813,17.346-33.25,15.041c-12.437-2.306-24.027-6.826-34.229-4.867
	C106.169,177.445,90.497,162.75,103.029,149.098z"/>
<g>
	<ellipse fill="#7FB76A" cx="140.5" cy="128.926" rx="24.5" ry="13.575"/>
	<path fill="#50843A" d="M165.1,128.935c0,0-0.039,0.475-0.113,1.366c-0.215,0.879-0.529,2.212-1.504,3.612
		c-0.944,1.4-2.359,2.95-4.316,4.303c-1.943,1.356-4.354,2.604-7.143,3.51c-2.781,0.917-5.936,1.459-9.274,1.589
		c-0.844,0-1.665,0.03-2.557,0.004c-0.843-0.057-1.682-0.089-2.556-0.182c-1.762-0.191-3.529-0.451-5.293-0.875
		c-3.517-0.858-7.095-2.074-10.333-4.093c-1.605-1.013-3.148-2.208-4.383-3.74c-1.229-1.537-2.123-3.391-2.17-5.554l0.086-1.432
		c0.119-0.511,0.229-1.041,0.378-1.545c0.2-0.467,0.389-0.946,0.608-1.408l0.798-1.298c1.206-1.631,2.751-2.92,4.376-4
		c3.288-2.14,6.965-3.332,10.545-4.094c3.586-0.74,7.185-0.939,10.486-0.73c3.385,0.198,6.517,0.771,9.303,1.709
		c2.783,0.925,5.191,2.179,7.138,3.541c1.958,1.355,3.375,2.908,4.318,4.311c0.976,1.405,1.284,2.738,1.495,3.609
		c0.072,0.904,0.111,1.386,0.111,1.386V128.935L165.1,128.935z M164.9,128.926c0,0-0.049-0.468-0.14-1.345
		c-0.13-0.42-0.233-0.958-0.479-1.546c-0.142-0.287-0.292-0.594-0.453-0.923c-0.168-0.323-0.423-0.625-0.647-0.965
		c-0.965-1.33-2.521-2.637-4.492-3.763c-1.979-1.131-4.41-2.023-7.121-2.686c-2.71-0.651-5.73-1.117-8.896-1.243
		c-3.242-0.113-6.599,0.056-10.035,0.68c-3.414,0.623-6.912,1.688-10.002,3.552c-1.539,0.921-2.994,2.031-4.121,3.415l-0.774,1.082
		c-0.213,0.384-0.402,0.782-0.61,1.174l-0.402,1.203l-0.186,1.415l0.085,1.28c0.112,0.432,0.201,0.873,0.326,1.305
		c0.182,0.413,0.347,0.836,0.541,1.248l0.721,1.169c1.099,1.484,2.556,2.687,4.114,3.675c3.14,1.985,6.737,3.025,10.214,3.552
		c1.743,0.279,3.478,0.402,5.147,0.462c0.842,0.031,1.708-0.008,2.544-0.001c0.79-0.009,1.629-0.071,2.424-0.103
		c3.208-0.194,6.207-0.69,8.921-1.363c2.709-0.682,5.143-1.58,7.117-2.716c1.974-1.129,3.529-2.438,4.492-3.771
		c0.228-0.341,0.48-0.643,0.648-0.967c0.16-0.329,0.311-0.638,0.451-0.925c0.24-0.588,0.343-1.12,0.473-1.54
		c0.088-0.89,0.135-1.364,0.135-1.364v0.009H164.9z"/>
</g>
<ellipse fill="#ADD19D" cx="140.5" cy="128.926" rx="6.5" ry="3.602"/>
<g>
	<ellipse fill="#7FB76A" cx="174.5" cy="129.927" rx="24.5" ry="13.575"/>
	<path fill="#50843A" d="M199.1,129.936c0,0-0.039,0.475-0.113,1.366c-0.215,0.879-0.529,2.212-1.504,3.612
		c-0.944,1.4-2.359,2.95-4.316,4.303c-1.943,1.356-4.354,2.604-7.143,3.51c-2.781,0.917-5.936,1.459-9.273,1.589
		c-0.846,0-1.665,0.03-2.559,0.004c-0.844-0.057-1.683-0.089-2.557-0.182c-1.763-0.191-3.529-0.451-5.294-0.875
		c-3.517-0.858-7.095-2.074-10.333-4.093c-1.605-1.013-3.148-2.208-4.383-3.74c-1.229-1.537-2.123-3.391-2.17-5.554l0.086-1.432
		c0.119-0.511,0.229-1.041,0.378-1.545c0.2-0.467,0.389-0.946,0.608-1.408l0.799-1.298c1.205-1.631,2.751-2.92,4.376-4
		c3.288-2.14,6.965-3.332,10.545-4.094c3.586-0.74,7.185-0.939,10.485-0.73c3.386,0.198,6.519,0.771,9.304,1.709
		c2.784,0.925,5.192,2.179,7.138,3.541c1.958,1.355,3.375,2.908,4.318,4.311c0.976,1.405,1.285,2.738,1.496,3.609
		c0.072,0.904,0.111,1.386,0.111,1.386V129.936L199.1,129.936z M198.9,129.927c0,0-0.049-0.468-0.14-1.345
		c-0.13-0.42-0.233-0.958-0.479-1.546c-0.142-0.287-0.292-0.594-0.453-0.923c-0.168-0.323-0.423-0.625-0.647-0.965
		c-0.965-1.33-2.521-2.637-4.492-3.763c-1.979-1.131-4.41-2.023-7.121-2.686c-2.711-0.651-5.73-1.117-8.896-1.243
		c-3.241-0.113-6.599,0.056-10.032,0.68c-3.414,0.623-6.912,1.688-10.005,3.552c-1.536,0.921-2.991,2.031-4.12,3.415l-0.772,1.082
		c-0.214,0.384-0.402,0.782-0.61,1.174l-0.4,1.203l-0.188,1.415l0.086,1.28c0.111,0.432,0.201,0.873,0.325,1.305
		c0.183,0.413,0.349,0.836,0.541,1.248l0.721,1.169c1.101,1.484,2.558,2.687,4.114,3.675c3.141,1.985,6.736,3.025,10.214,3.552
		c1.742,0.279,3.478,0.402,5.147,0.462c0.842,0.031,1.707-0.008,2.543-0.001c0.789-0.009,1.631-0.071,2.425-0.103
		c3.208-0.194,6.207-0.69,8.921-1.363c2.709-0.682,5.141-1.58,7.118-2.716c1.973-1.13,3.53-2.438,4.493-3.772
		c0.226-0.341,0.479-0.643,0.646-0.967c0.16-0.329,0.312-0.638,0.451-0.925c0.24-0.588,0.343-1.12,0.475-1.54
		c0.088-0.89,0.135-1.364,0.135-1.364V129.927L198.9,129.927z"/>
</g>
<ellipse fill="#ADD19D" cx="174.5" cy="129.927" rx="6.5" ry="3.602"/>
<g>
	<ellipse fill="#7FB76A" cx="150" cy="146.01" rx="24.5" ry="13.575"/>
	<path fill="#50843A" d="M174.6,146.019c0,0-0.039,0.475-0.113,1.366c-0.215,0.879-0.529,2.212-1.504,3.612
		c-0.944,1.399-2.359,2.948-4.316,4.303c-1.943,1.354-4.354,2.604-7.143,3.511c-2.78,0.916-5.936,1.459-9.273,1.59
		c-0.846-0.002-1.665,0.029-2.557,0.004c-0.843-0.059-1.682-0.09-2.556-0.182c-1.762-0.19-3.529-0.451-5.293-0.875
		c-3.517-0.856-7.095-2.074-10.333-4.094c-1.605-1.013-3.149-2.208-4.383-3.738c-1.23-1.516-2.121-3.44-2.172-5.506l0.088-1.481
		c0.119-0.511,0.229-1.041,0.378-1.545c0.2-0.467,0.389-0.946,0.608-1.407l0.798-1.298c1.206-1.631,2.751-2.92,4.375-4
		c3.288-2.14,6.965-3.332,10.545-4.094c3.587-0.74,7.185-0.939,10.486-0.73c3.386,0.198,6.519,0.771,9.304,1.709
		c2.782,0.925,5.192,2.179,7.138,3.541c1.958,1.355,3.375,2.908,4.318,4.311c0.976,1.405,1.283,2.738,1.496,3.609
		c0.072,0.904,0.109,1.386,0.109,1.386V146.019L174.6,146.019z M174.4,146.01c0,0-0.049-0.468-0.14-1.345
		c-0.13-0.42-0.233-0.958-0.479-1.546c-0.142-0.287-0.292-0.594-0.453-0.923c-0.168-0.323-0.423-0.625-0.647-0.965
		c-0.965-1.33-2.521-2.636-4.492-3.763c-1.979-1.131-4.41-2.023-7.121-2.686c-2.711-0.651-5.73-1.117-8.896-1.244
		c-3.242-0.113-6.599,0.057-10.035,0.68c-3.414,0.623-6.912,1.688-10.002,3.552c-1.539,0.921-2.994,2.031-4.121,3.416l-0.774,1.082
		c-0.213,0.384-0.402,0.782-0.61,1.174l-0.402,1.204l-0.184,1.365c-0.065,1.781,0.601,3.56,1.671,5.054
		c1.099,1.483,2.556,2.688,4.114,3.674c3.14,1.986,6.737,3.025,10.214,3.555c1.743,0.277,3.478,0.4,5.147,0.462
		c0.842,0.03,1.708-0.008,2.544-0.001c0.791-0.01,1.63-0.07,2.424-0.104c3.208-0.192,6.207-0.689,8.921-1.362
		c2.709-0.683,5.143-1.579,7.117-2.716c1.975-1.131,3.531-2.438,4.492-3.771c0.228-0.341,0.48-0.644,0.648-0.968
		c0.16-0.329,0.311-0.638,0.451-0.925c0.24-0.588,0.343-1.12,0.473-1.54c0.088-0.89,0.135-1.364,0.135-1.364v0.008h0.004V146.01z"/>
</g>
<ellipse fill="#ADD19D" cx="150" cy="146.01" rx="6.5" ry="3.602"/>
<path fill="#C67777" d="M127.916,142.563c0,7.434-6.026,13.458-13.459,13.458H87.292c-7.432,0-13.458-6.024-13.458-13.458v-7.728
	c0-7.434,6.026-13.459,13.458-13.459h27.164c7.433,0,13.459,6.026,13.459,13.459L127.916,142.563L127.916,142.563z"/>
<text transform="matrix(1 0 0 1 45.2578 52.2734)" fill="#3F403F" font-family="'Roboto-Regular'" font-size="47.6534">Pokébowl</text>
<path fill="#CE9191" d="M88.583,149.874c0,7.435-6.026,13.459-13.459,13.459H47.959c-7.432,0-13.458-6.024-13.458-13.459v-7.728
	c0-7.433,6.026-13.459,13.458-13.459h27.164c7.433,0,13.459,6.026,13.459,13.459L88.583,149.874L88.583,149.874z"/>
<path fill="#CC7D7D" d="M111.916,163.764c0,7.435-6.026,13.459-13.459,13.459H71.292c-7.432,0-13.458-6.024-13.458-13.459v-7.729
	c0-7.434,6.026-13.459,13.458-13.459h27.164c7.433,0,13.459,6.026,13.459,13.459L111.916,163.764L111.916,163.764z"/>
<ellipse transform="matrix(-0.7883 -0.6153 0.6153 -0.7883 196.0632 414.6144)" fill="#599B3D" cx="169.358" cy="173.578" rx="5.712" ry="9.892"/>
<ellipse transform="matrix(-0.7882 -0.6154 0.6154 -0.7882 215.2107 418.821)" fill="#598942" cx="179.674" cy="172.378" rx="5.711" ry="9.892"/>
<ellipse transform="matrix(-0.7883 -0.6153 0.6153 -0.7883 231.6447 426.8381)" fill="#599B3D" cx="189.258" cy="173.565" rx="5.712" ry="9.893"/>
<ellipse transform="matrix(-0.7882 -0.6155 0.6155 -0.7882 245.0198 434.8195)" fill="#598942" cx="197.342" cy="175.242" rx="5.712" ry="9.892"/>
<path fill="#B2B2B2" d="M150,176.854c-63.91,0-117-16.015-127.583-38.152C29.19,162.961,56.814,233,150,233
	c93.184,0,120.809-70.037,127.583-94.299C266.999,160.841,213.908,176.854,150,176.854z"/>
</svg>
