<?xml version="1.0" encoding="utf-8"?>
<!-- Generator: Adobe Illustrator 16.0.0, SVG Export Plug-In . SVG Version: 6.00 Build 0)  -->
<!DOCTYPE svg PUBLIC "-//W3C//DTD SVG 1.1//EN" "http://www.w3.org/Graphics/SVG/1.1/DTD/svg11.dtd">
<svg version="1.1" id="Layer_1" xmlns="http://www.w3.org/2000/svg" xmlns:xlink="http://www.w3.org/1999/xlink" x="0px" y="0px"
	 width="300px" height="300px" viewBox="0 0 300 300" enable-background="new 0 0 300 300" xml:space="preserve">
<path fill="#B7856C" d="M195.762,93.582c-37.279,0-120.689,7.152-125.451,10.485s-6.99,95.532,30.291,95.532
	s115.469-4.369,125.451-10.485S233.043,93.582,195.762,93.582z"/>
<path fill="#E0B53D" d="M72.204,88.319c0,0-7.573,2.33-8.155,12.232c-0.583,9.903,4.66,16.311,0,22.136
	c-4.66,5.825-0.045,25.63,4.055,28.542c4.1,2.913,5.654,12.038,4.1,19.806s6.312,12.947,14.775,16.311s17.263,13.98,25.418,11.067
	c8.155-2.912,22.718,4.824,34.368,0.373c11.65-4.45,23.3-6.198,34.951-6.198s16.893,2.913,24.465-4.077
	c7.573-6.99,20.641,5.598,23.301-4.66c0.869-3.351,5.86-7.968,6.797-13.786c1.261-7.839-1.804-17.499-3.514-25.804
	C229.873,130.212,72.204,88.319,72.204,88.319"/>
<text transform="matrix(1 0 0 1 -1.9355 52.2734)" fill="#3F403F" font-family="'Roboto-Regular'" font-size="47">Grilled Cheese</text>
<path fill="#B7856C" d="M197.655,77.833c-37.281,0-120.69,7.152-125.452,10.485s-6.99,95.532,30.291,95.532
	s115.469-4.369,125.451-10.485S234.936,77.833,197.655,77.833z"/>
</svg>
