<?xml version="1.0" encoding="utf-8"?>
<!-- Generator: Adobe Illustrator 16.0.0, SVG Export Plug-In . SVG Version: 6.00 Build 0)  -->
<!DOCTYPE svg PUBLIC "-//W3C//DTD SVG 1.1//EN" "http://www.w3.org/Graphics/SVG/1.1/DTD/svg11.dtd">
<svg version="1.1" id="Layer_1" xmlns="http://www.w3.org/2000/svg" xmlns:xlink="http://www.w3.org/1999/xlink" x="0px" y="0px"
	 width="300px" height="300px" viewBox="0 0 300 300" enable-background="new 0 0 300 300" xml:space="preserve">
<path fill="#C19963" d="M140.059,77.82c0,0,69.21,19.027,85.792,72.403c0,0-79.638-31.719-85.782-39.008
	C133.925,103.926,140.059,77.82,140.059,77.82z"/>
<path fill="#E2B850" d="M175.969,82.292c3.275,3.266,3.282,8.569,0.017,11.844l-13.346,13.383
	c-3.267,3.275-8.569,3.282-11.845,0.016l0,0c-3.275-3.266-3.282-8.569-0.016-11.844l13.347-13.383
	C167.392,79.032,172.694,79.025,175.969,82.292L175.969,82.292z"/>
<path fill="#E2B850" d="M218.18,131.322c3.274,3.266,3.282,8.569,0.017,11.844l-13.347,13.385
	c-3.267,3.274-8.568,3.281-11.844,0.015l0,0c-3.274-3.266-3.282-8.568-0.016-11.844l13.347-13.383
	C209.603,128.064,214.905,128.056,218.18,131.322L218.18,131.322z"/>
<path fill="#588730" d="M141.104,97.38c0,0,3.039-15.334,15.74-16.233c12.7-0.898,15.332,10.438,23.938,12.144
	c8.607,1.706,31.345,24.469,31.943,31.681c0.601,7.213,4.063,23.836-4.933,24.9C198.796,150.935,141.104,97.38,141.104,97.38z"/>
<text transform="matrix(1 0 0 1 93.4824 52.2734)" fill="#3F403F" font-family="'Roboto-Regular'" font-size="47.65">Wrap</text>
<g>
	<path fill="#AA6F35" d="M140.468,120.879c0,0,33.643-47.217,61.854-28.725s-11.15,52.435-25.741,57.131
		C161.988,153.983,140.468,120.879,140.468,120.879z"/>
	<path fill="#AA6F35" d="M139.94,120.5c0,0,0.255-0.796,0.842-2.21c0.591-1.417,1.541-3.445,2.949-5.913
		c2.82-4.917,7.463-11.666,15.052-18.201c0.94-0.818,1.967-1.595,2.998-2.405c1.049-0.791,2.174-1.537,3.315-2.301
		c2.313-1.506,4.879-2.859,7.718-3.909c2.854-1.017,5.937-1.785,9.223-1.947c3.273-0.154,6.655,0.152,9.903,1.03
		c3.246,0.94,6.274,2.376,9.062,4.091c0.674,0.458,1.349,0.917,2.026,1.376l0.256,0.166l0.128,0.083l0.148,0.1l0.056,0.045
		l0.444,0.356l0.891,0.713c0.295,0.242,0.602,0.467,0.903,0.7c0.308,0.259,0.624,0.568,0.94,0.845l0.946,0.856l0.479,0.424
		l0.424,0.463c2.329,2.375,4.316,5.331,5.438,8.736c1.126,3.393,1.405,7.121,0.964,10.68c-0.867,7.171-4.022,13.673-8.002,18.997
		c-4.025,5.34-8.549,10.031-13.468,14.043c-2.465,2.008-5.045,3.814-7.819,5.409c-0.697,0.393-1.391,0.788-2.142,1.139l-1.104,0.536
		l-1.174,0.5c-0.748,0.332-1.661,0.621-2.502,0.909l-0.08,0.027l-0.582,0.165l-0.124,0.025l-0.25,0.05l-0.497,0.1l-0.496,0.1
		c-0.304,0.046-0.67,0.092-1.004,0.128c-0.672,0.067-1.395,0.131-2.019,0.124c-0.532-0.033-1.062-0.074-1.587-0.124
		c-0.538-0.035-1.021-0.134-1.504-0.235c-0.48-0.102-0.971-0.198-1.432-0.319c-1.789-0.53-3.43-1.18-4.815-1.972
		c-2.833-1.532-5.046-3.317-6.996-5.086c-3.86-3.576-6.614-7.205-8.881-10.499c-2.232-3.312-3.921-6.313-5.171-8.859
		c-1.279-2.523-2.129-4.583-2.687-5.996c-0.544-1.421-0.789-2.208-0.789-2.207l-0.107-0.345L139.94,120.5z M141.456,120.909
		c0.292,0.253,0.723,0.627,1.288,1.118c1.107,0.976,2.731,2.408,4.798,4.23c2.068,1.788,4.545,3.95,7.39,6.301
		c2.849,2.321,6.085,4.889,9.621,7.062c1.749,1.086,3.596,2.056,5.326,2.682c0.877,0.328,1.678,0.501,2.405,0.637l0.497,0.027
		c0.164,0.016,0.329,0.038,0.454,0.004c0.135-0.017,0.268-0.024,0.4-0.024c0.04-0.031-0.018-0.05-0.021-0.032
		c-0.001,0.005-0.031,0.028-0.002,0.036l0.487-0.136l0.488-0.136l0.245-0.068l0.122-0.034c0.135-0.036-0.93,0.258-0.461,0.125
		l0.039-0.017c0.431-0.192,0.824-0.312,1.321-0.571l0.722-0.332l0.758-0.396c0.504-0.253,1.032-0.54,1.561-0.841
		c2.128-1.174,4.334-2.578,6.552-4.073c4.444-2.995,8.867-6.55,12.768-10.596c1.964-2.014,3.851-4.103,5.569-6.293
		c1.733-2.181,3.26-4.506,4.347-6.99c1.052-2.481,1.636-5.165,1.251-7.817c-0.345-2.651-1.673-5.179-3.599-7.214
		c-0.428-0.565-0.985-0.948-1.479-1.419c-0.259-0.227-0.491-0.452-0.777-0.67c-0.315-0.215-0.625-0.437-0.946-0.642l-0.954-0.625
		l-0.477-0.312l-0.06-0.039c0.149,0.106,0.008,0.012,0.025,0.028l-0.117-0.06l-0.235-0.12c-0.631-0.3-1.261-0.599-1.889-0.897
		c-2.583-1.007-5.269-1.425-7.823-1.301c-5.165,0.366-9.569,2.494-13.753,4.559c-0.515,0.293-1.041,0.546-1.56,0.804
		c-0.523,0.247-1.016,0.585-1.532,0.841c-1.026,0.526-2.023,1.13-3.028,1.666c-1.968,1.177-3.889,2.347-5.691,3.589
		c-3.637,2.432-6.944,4.879-9.883,7.112c-2.965,2.285-5.549,4.277-7.678,5.917C144.679,118.517,142.386,120.22,141.456,120.909z"/>
</g>
<path fill="#D1B699" d="M140.059,77.82c0,0,34.225,56.288,77.419,67.323c43.193,11.035-88.703,74.218-127.111,76.507
	C51.959,223.94,65.39,139.833,140.059,77.82z"/>
</svg>
