<?xml version="1.0" encoding="utf-8"?>
<!-- Generator: Adobe Illustrator 16.0.0, SVG Export Plug-In . SVG Version: 6.00 Build 0)  -->
<!DOCTYPE svg PUBLIC "-//W3C//DTD SVG 1.1//EN" "http://www.w3.org/Graphics/SVG/1.1/DTD/svg11.dtd">
<svg version="1.1" id="Layer_1" xmlns="http://www.w3.org/2000/svg" xmlns:xlink="http://www.w3.org/1999/xlink" x="0px" y="0px"
	 width="300px" height="300px" viewBox="0 0 300 300" enable-background="new 0 0 300 300" xml:space="preserve">
<path fill="#9DC2E3" d="M279.508,130.541c0,0-16.804,102.459-129.508,102.459C37.295,233,20.492,130.541,20.492,130.541"/>
<path fill="#BED8EE" d="M279.508,130.541c0,26.256-57.982,46.312-129.508,46.312c-71.526,0-129.508-20.057-129.508-46.312
	S78.474,83,150,83C221.525,83,279.508,104.285,279.508,130.541z"/>
<path fill="#DDD18E" d="M22.445,138.803c0,0,4.194-33.672,50.916-31.213c46.721,2.459,41.803-23.77,84.836-9.426
	c43.031,14.344,64.768-1.242,80.326,18.162c15.561,19.405,42.826,15.387,34.557,29.036
	C255.736,173.982,72.541,205.951,22.445,138.803z"/>
<path fill="#F9E375" d="M77.049,171.523c0,0-0.819-12.799,13.935-13.162c14.754-0.361,3.217-32.288,27.223-34.357
	c24.006-2.069,46.587-10.773,57.611,2.405c11.027,13.178,49.232,11.038,33.606,29.542c-15.626,18.504,12.476,13.033,12.476,13.033
	l-19.862,4.123c0,0-14.125-8.695-2.038-18.387c12.088-9.688-26.229-14.754-31.559-22.131c-5.326-7.377-36.475-9.209-47.541-2.76
	c-11.065,6.449-10.615,16.625-14.345,22.843c-8.606,14.345-28.134,13-21.649,20.435"/>
<path fill="#EFE6BD" d="M189.322,175.107c0,0-45.879-2.765-32.354-18.338c13.524-15.574,10.81-34.467-11.507-38.726
	c-22.316-4.259-46.281-2.667-55.707-11.274c-9.426-8.606-62.294,3.661-34.836,26.011c27.458,22.351-9.585,27.662,24.337,39.139
	c6.122,1.293,14.833,3.102,14.833,3.102s-16.22-5.135-17.04-15.381c-0.82-10.247-2.974-25.809-16.394-33.23
	c-13.42-7.422,6.558-22.099,23.361-13.901c16.803,8.197,31.148,11.819,50.82,13.901s27.049,12.737,13.115,26.672
	c-13.935,13.936,5.882,19.395,20.636,24.312L189.322,175.107z"/>
<path fill="#EFE39B" d="M26.105,144.421c0,0,53.813-9.371,75.534-31.093c21.721-21.722,82.787-10.239,90.983,4.716
	c8.196,14.956,77.008-24.611,71.926,34.69l-10,5.627c0,0,9.388-28.641-10.694-27.82c-20.084,0.82-60.22,4.969-65.984-9.836
	c-5.766-14.804-52.049-12.295-69.262-0.82c-17.213,11.476-49.958,28.039-75.389,31.232L26.105,144.421z"/>
<path fill="none" d="M20.492,126.41"/>
<path fill="#E0D5A6" d="M56.875,163.575c-42.715-49.344,8.289-37.132,21.222-28.249c12.933,8.883,23.543,18.576,66.803,14.358
	c25.28-2.465,99.81,0.168,96.584,13.891l10.238-3.994c4.971-17.915-76.722-23.303-101.723-18.813
	c-25.001,4.49-43.852,4.937-64.344-10.67c-20.492-15.606-33.435-12.358-42.127-10.261c-8.692,2.097-24.267,11.853-0.496,37.508
	L56.875,163.575z"/>
<text transform="matrix(1 0 0 1 47.4678 52.2734)" fill="#3F403F" font-family="'Roboto-Regular'" font-size="47.6534">Spagetthi</text>
</svg>
